<svg width="21" height="21" viewBox="0 0 21 21" fill="none" xmlns="http://www.w3.org/2000/svg">
<rect x="0.5" y="0.5" width="20" height="20" rx="10" fill="#737373"/>
<rect x="0.5" y="0.5" width="20" height="20" rx="10" stroke="#FECDA3"/>
<path d="M12.5088 6.73899L13.3849 5.86289C13.8688 5.37904 14.6532 5.37904 15.1371 5.86289C15.6209 6.34675 15.6209 7.13124 15.1371 7.61509L14.261 8.49119M12.5088 6.73899L7.36264 11.8852C6.70933 12.5385 6.38266 12.8651 6.16023 13.2632C5.93779 13.6612 5.714 14.6012 5.5 15.5C6.39881 15.286 7.33874 15.0622 7.73681 14.8397C8.13487 14.6173 8.46152 14.2907 9.11484 13.6374L14.261 8.49119M12.5088 6.73899L14.261 8.49119" stroke="white" stroke-width="1.5" stroke-linecap="round" stroke-linejoin="round"/>
<path d="M9.875 15.5H13.625" stroke="white" stroke-width="1.5" stroke-linecap="round"/>
</svg>
