<svg width="257" height="200" viewBox="0 0 257 200" fill="none" xmlns="http://www.w3.org/2000/svg">
<g clip-path="url(#clip0_58_33368)">
<path d="M220.102 15.156C199.334 5.14281 176.569 -0.0386958 153.514 -2.93153e-05C68.7305 -2.93153e-05 0.0138524 68.719 0.0138524 153.495C-0.0243897 178.378 6.0138 202.893 17.6038 224.912C62.0185 220.17 104.04 202.401 138.383 173.84C138.402 173.829 138.418 173.814 138.432 173.798C139.649 172.7 140.867 171.669 142.073 170.73C142.096 170.703 142.122 170.679 142.151 170.66C151.361 163.451 160.363 160.703 164.933 164.52C169.897 168.661 168.18 179.321 161.472 190.699C161.472 190.699 161.472 190.699 161.472 190.72C159.964 193.263 158.304 195.713 156.501 198.055L156.441 198.143C131.98 232.768 98.6615 259.791 60.0869 275.298C86.8682 295.915 119.731 307.068 153.528 307.011C238.311 307.011 307.028 238.291 307.028 153.505C306.996 92.5753 271.514 39.9515 220.102 15.156ZM245.08 111.721L212.363 127.795C211.808 128.065 211.328 128.467 210.964 128.965C210.6 129.462 210.363 130.042 210.273 130.652L204.926 166.491C204.82 167.192 204.522 167.85 204.063 168.391C203.605 168.931 203.005 169.334 202.331 169.553C201.657 169.772 200.935 169.799 200.246 169.631C199.557 169.463 198.929 169.107 198.431 168.601L181.865 151.715L173.049 142.729C172.678 142.352 172.232 142.057 171.74 141.86C171.249 141.664 170.722 141.572 170.193 141.589C170.019 141.601 169.847 141.621 169.675 141.649L133.757 147.838C133.053 147.96 132.33 147.882 131.669 147.612C131.008 147.343 130.435 146.893 130.017 146.315C129.599 145.736 129.352 145.052 129.304 144.339C129.256 143.627 129.41 142.916 129.746 142.286L146.773 110.321C147.064 109.77 147.215 109.157 147.215 108.535C147.215 107.913 147.064 107.3 146.773 106.75L129.95 74.8089C129.62 74.1806 129.472 73.4725 129.522 72.7645C129.573 72.0565 129.82 71.3766 130.237 70.8017C130.653 70.2267 131.221 69.7794 131.878 69.5103C132.535 69.2411 133.254 69.1608 133.954 69.2784L169.911 75.319C170.516 75.4197 171.137 75.3735 171.72 75.1843C172.303 74.9951 172.833 74.6685 173.264 74.2319L198.825 48.2296C199.124 47.9287 199.468 47.677 199.846 47.4838C200.387 47.2171 200.983 47.0824 201.587 47.0907C202.19 47.099 202.783 47.25 203.316 47.5314C203.85 47.8129 204.309 48.2167 204.657 48.7098C205.005 49.203 205.23 49.7714 205.316 50.3686L208.465 72.3884L210.428 86.109C210.519 86.726 210.759 87.3116 211.126 87.8153C211.494 88.3191 211.979 88.726 212.539 89.0009L245.08 104.875C245.722 105.187 246.263 105.673 246.642 106.279C247.02 106.884 247.221 107.584 247.221 108.298C247.221 109.012 247.02 109.711 246.642 110.317C246.263 110.922 245.722 111.408 245.08 111.721Z" fill="#46332E"/>
</g>
<defs>
<clipPath id="clip0_58_33368">
<rect width="307" height="307" fill="white"/>
</clipPath>
</defs>
</svg>
