<svg width="140" height="66" viewBox="0 0 140 66" fill="none" xmlns="http://www.w3.org/2000/svg">
<path d="M17.336 48.308C14.432 48.308 11.7627 47.6333 9.328 46.284C6.92267 44.9347 5.00133 43.0573 3.564 40.652C2.156 38.2173 1.452 35.4893 1.452 32.468C1.452 29.4467 2.156 26.7333 3.564 24.328C5.00133 21.9227 6.92267 20.0453 9.328 18.696C11.7627 17.3467 14.432 16.672 17.336 16.672C20.24 16.672 22.8947 17.3467 25.3 18.696C27.7347 20.0453 29.6413 21.9227 31.02 24.328C32.428 26.7333 33.132 29.4467 33.132 32.468C33.132 35.4893 32.428 38.2173 31.02 40.652C29.612 43.0573 27.7053 44.9347 25.3 46.284C22.8947 47.6333 20.24 48.308 17.336 48.308ZM17.336 41.444C19.8 41.444 21.7653 40.6227 23.232 38.98C24.728 37.3373 25.476 35.1667 25.476 32.468C25.476 29.74 24.728 27.5693 23.232 25.956C21.7653 24.3133 19.8 23.492 17.336 23.492C14.8427 23.492 12.848 24.2987 11.352 25.912C9.88533 27.5253 9.152 29.7107 9.152 32.468C9.152 35.196 9.88533 37.3813 11.352 39.024C12.848 40.6373 14.8427 41.444 17.336 41.444ZM40.4418 15.44V48H32.9178V15.44H40.4418ZM52.6704 48.352C50.2651 48.352 48.0944 47.8387 46.1584 46.812C44.2517 45.7853 42.7411 44.3187 41.6264 42.412C40.5411 40.5053 39.9984 38.276 39.9984 35.724C39.9984 33.2013 40.5557 30.9867 41.6704 29.08C42.7851 27.144 44.3104 25.6627 46.2464 24.636C48.1824 23.6093 50.3531 23.096 52.7584 23.096C55.1637 23.096 57.3344 23.6093 59.2704 24.636C61.2064 25.6627 62.7317 27.144 63.8464 29.08C64.9611 30.9867 65.5184 33.2013 65.5184 35.724C65.5184 38.2467 64.9464 40.476 63.8024 42.412C62.6877 44.3187 61.1477 45.7853 59.1824 46.812C57.2464 47.8387 55.0757 48.352 52.6704 48.352ZM52.6704 41.84C54.1077 41.84 55.3251 41.312 56.3224 40.256C57.3491 39.2 57.8624 37.6893 57.8624 35.724C57.8624 33.7587 57.3637 32.248 56.3664 31.192C55.3984 30.136 54.1957 29.608 52.7584 29.608C51.2917 29.608 50.0744 30.136 49.1064 31.192C48.1384 32.2187 47.6544 33.7293 47.6544 35.724C47.6544 37.6893 48.1237 39.2 49.0624 40.256C50.0304 41.312 51.2331 41.84 52.6704 41.84ZM83.81 32.16C85.5994 32.5413 87.0367 33.436 88.122 34.844C89.2074 36.2227 89.75 37.8067 89.75 39.596C89.75 42.1773 88.8407 44.2307 87.022 45.756C85.2327 47.252 82.7247 48 79.498 48H65.11V17.112H79.014C82.1527 17.112 84.602 17.8307 86.362 19.268C88.1514 20.7053 89.046 22.656 89.046 25.12C89.046 26.9387 88.562 28.4493 87.594 29.652C86.6554 30.8547 85.394 31.6907 83.81 32.16ZM72.634 29.608H77.562C78.794 29.608 79.7327 29.344 80.378 28.816C81.0527 28.2587 81.39 27.452 81.39 26.396C81.39 25.34 81.0527 24.5333 80.378 23.976C79.7327 23.4187 78.794 23.14 77.562 23.14H72.634V29.608ZM78.178 41.928C79.4394 41.928 80.4074 41.6493 81.082 41.092C81.786 40.5053 82.138 39.6693 82.138 38.584C82.138 37.4987 81.7714 36.648 81.038 36.032C80.334 35.416 79.3514 35.108 78.09 35.108H72.634V41.928H78.178ZM94.8179 20.896C93.4979 20.896 92.4126 20.5147 91.5619 19.752C90.7406 18.96 90.3299 17.992 90.3299 16.848C90.3299 15.6747 90.7406 14.7067 91.5619 13.944C92.4126 13.152 93.4979 12.756 94.8179 12.756C96.1086 12.756 97.1646 13.152 97.9859 13.944C98.8366 14.7067 99.2619 15.6747 99.2619 16.848C99.2619 17.992 98.8366 18.96 97.9859 19.752C97.1646 20.5147 96.1086 20.896 94.8179 20.896ZM98.5579 23.448V48H91.0339V23.448H98.5579ZM108.014 15.44V48H100.49V15.44H108.014ZM117.471 15.44V48H109.947V15.44H117.471ZM127.324 41.796H137.972V48H118.92V42.016L129.128 29.652H119.008V23.448H137.752V29.432L127.324 41.796Z" fill="#FC8118"/>
<path d="M82.5 19.9999C81.3 19.1999 71.6667 19.6666 67 19.9999L68.5 46.5H79.5C82.5 46.5 84 45 84.5 42C85 39 84 37.5 83.5 35.5C83 33.5 82.5 31.5 84 30.5C85.5 29.5 86.5 27.5 86.5 25.5C86.5 23.5 84 20.9999 82.5 19.9999Z" fill="#FC8118"/>
<path d="M83.7456 28.3775L79.8625 30.2125C79.7969 30.2437 79.7402 30.2897 79.6971 30.3466C79.654 30.4034 79.626 30.4695 79.6153 30.5391L78.9786 34.6301C78.9658 34.7101 78.9302 34.7851 78.8756 34.8466C78.8211 34.9082 78.7498 34.954 78.6697 34.9789C78.5897 35.0038 78.504 35.0067 78.4223 34.9874C78.3406 34.9682 78.266 34.9274 78.207 34.8698L76.2404 32.9419L75.1924 31.9162C75.1482 31.8733 75.0951 31.8397 75.0367 31.8174C74.9783 31.7951 74.9157 31.7847 74.8528 31.7868C74.8326 31.7876 74.8125 31.7896 74.7926 31.7928L70.5292 32.4988C70.4458 32.5126 70.36 32.5036 70.2815 32.4729C70.2031 32.4421 70.1352 32.3908 70.0856 32.3248C70.036 32.2588 70.0067 32.1807 70.0009 32.0995C69.9952 32.0182 70.0132 31.9371 70.0531 31.8652L72.074 28.216C72.1084 28.1532 72.1266 28.0834 72.1269 28.0125C72.1273 27.9415 72.1098 27.8716 72.076 27.8085L70.0783 24.1634C70.039 24.0916 70.0214 24.0107 70.0274 23.9298C70.0334 23.8489 70.0628 23.7712 70.1123 23.7055C70.1618 23.6398 70.2294 23.5887 70.3075 23.558C70.3855 23.5273 70.471 23.5182 70.5541 23.5317L74.8211 24.2213C74.8931 24.2329 74.967 24.2277 75.0366 24.2062C75.1061 24.1847 75.1693 24.1476 75.2209 24.0979L78.2532 21.1305C78.2886 21.0963 78.3292 21.0676 78.3737 21.0454C78.4379 21.0148 78.5087 20.9993 78.5804 21C78.652 21.0008 78.7225 21.0178 78.786 21.0498C78.8495 21.0817 78.9042 21.1276 78.9457 21.1838C78.9872 21.24 79.0143 21.3048 79.0248 21.3729L79.3985 23.8881L79.6313 25.4507C79.6417 25.5214 79.67 25.5886 79.7138 25.6462C79.7576 25.7038 79.8156 25.7502 79.8825 25.7811L83.7469 27.595C83.823 27.631 83.887 27.6868 83.9317 27.756C83.9764 27.8253 84 27.9052 83.9999 27.9867C83.9997 28.0682 83.9758 28.148 83.9309 28.2171C83.886 28.2862 83.8218 28.3418 83.7456 28.3775Z" fill="white"/>
<mask id="mask0_58_33404" style="mask-type:alpha" maskUnits="userSpaceOnUse" x="58" y="35" width="17" height="12">
<path d="M74.2822 37.9848C74.2817 37.9848 74.2812 37.985 74.2808 37.9853C74.2805 37.9856 74.2803 37.9861 74.2803 37.9866C74.1094 38.2584 73.9205 38.5199 73.7149 38.7695C73.7135 38.7729 73.7115 38.776 73.7089 38.7787C70.9464 42.4614 67.1896 45.337 62.8409 47C60.8341 45.5622 59.1826 43.7318 58 41.6351C63.0229 41.1187 67.7731 39.2216 71.6578 36.1805C71.6591 36.1804 71.6603 36.18 71.6613 36.1794C71.6624 36.1788 71.6632 36.1779 71.6638 36.1769C71.802 36.0589 71.9406 35.9489 72.0772 35.8477C72.081 35.8459 72.0829 35.8421 72.0866 35.8403C73.1325 35.0694 74.1552 34.7762 74.6746 35.1836C75.2397 35.6267 75.0435 36.767 74.2822 37.9848Z" fill="white"/>
</mask>
<g mask="url(#mask0_58_33404)">
<rect x="65" y="17" width="22" height="31" fill="white"/>
</g>
</svg>
