<svg width="99" height="99" viewBox="0 0 99 99" fill="none" xmlns="http://www.w3.org/2000/svg">
<path d="M70.9699 4.88733C64.2731 1.65845 56.9322 -0.0123993 49.4978 6.92734e-05C22.1585 6.92734e-05 5.82121e-05 22.1595 5.82121e-05 49.4966C-0.0122734 57.5204 1.9348 65.4259 5.67211 72.5262C19.9941 70.997 33.5443 65.2672 44.6187 56.0572C44.6247 56.0535 44.63 56.0489 44.6345 56.0436C45.0271 55.6896 45.4196 55.3572 45.8087 55.0543C45.8158 55.0456 45.8242 55.0379 45.8336 55.0316C48.8035 52.7071 51.7065 51.8211 53.1801 53.052C54.7807 54.3873 54.2271 57.8247 52.0638 61.4935C52.0638 61.4935 52.0638 61.4935 52.0638 61.5003C51.5778 62.3205 51.0425 63.1104 50.4609 63.8657L50.4416 63.894C42.554 75.0594 31.81 83.7732 19.3712 88.7739C28.0072 95.4221 38.604 99.0185 49.5023 98.9999C76.8416 98.9999 99 76.8405 99 49.5C98.9898 29.8523 87.5481 12.883 70.9699 4.88733ZM79.0242 36.026L68.4742 41.2094C68.2954 41.2965 68.1406 41.426 68.0232 41.5865C67.9058 41.747 67.8293 41.9338 67.8003 42.1306L66.076 53.6873C66.042 53.9134 65.9458 54.1255 65.798 54.3C65.6502 54.4744 65.4568 54.6042 65.2393 54.6749C65.0219 54.7456 64.7891 54.7543 64.567 54.7001C64.3449 54.6459 64.1423 54.5309 63.9819 54.368L58.64 48.9226L55.7971 46.0251C55.6773 45.9036 55.5336 45.8082 55.375 45.745C55.2165 45.6817 55.0466 45.652 54.876 45.6576C54.8201 45.6612 54.7645 45.6677 54.7092 45.6769L43.1269 47.6724C42.9001 47.7117 42.6668 47.6866 42.4536 47.5997C42.2404 47.5129 42.0559 47.3679 41.9211 47.1813C41.7863 46.9947 41.7066 46.774 41.6911 46.5443C41.6757 46.3146 41.7251 46.0852 41.8337 45.8822L47.3242 35.5745C47.4178 35.397 47.4667 35.1994 47.4667 34.9988C47.4667 34.7981 47.4178 34.6005 47.3242 34.423L41.8995 24.1232C41.793 23.9206 41.7452 23.6923 41.7615 23.464C41.7778 23.2357 41.8575 23.0165 41.9918 22.8311C42.126 22.6457 42.3093 22.5014 42.5211 22.4146C42.7329 22.3279 42.9647 22.302 43.1904 22.3399L54.7852 24.2877C54.9804 24.3202 55.1804 24.3053 55.3685 24.2443C55.5567 24.1833 55.7274 24.078 55.8663 23.9372L64.109 15.5524C64.2052 15.4554 64.3163 15.3742 64.4379 15.3119C64.6124 15.2259 64.8048 15.1825 64.9994 15.1851C65.1939 15.1878 65.385 15.2365 65.5571 15.3273C65.7292 15.418 65.8773 15.5482 65.9894 15.7072C66.1015 15.8663 66.1743 16.0496 66.2019 16.2422L67.2172 23.3427L67.8503 27.7671C67.8797 27.9661 67.957 28.1549 68.0755 28.3174C68.1941 28.4798 68.3504 28.611 68.5309 28.6997L79.0242 33.8184C79.2312 33.9191 79.4058 34.076 79.5279 34.2712C79.65 34.4663 79.7147 34.6919 79.7147 34.9222C79.7147 35.1524 79.65 35.378 79.5279 35.5732C79.4058 35.7684 79.2312 35.9253 79.0242 36.026Z" fill="#6B5C58"/>
</svg>
