<svg width="24" height="24" viewBox="0 0 24 24" fill="none" xmlns="http://www.w3.org/2000/svg">
<path d="M12 8.25C11.2583 8.25 10.5333 8.46993 9.91661 8.88199C9.29993 9.29404 8.81928 9.87971 8.53545 10.5649C8.25162 11.2502 8.17736 12.0042 8.32206 12.7316C8.46675 13.459 8.8239 14.1272 9.34835 14.6516C9.8728 15.1761 10.541 15.5332 11.2684 15.6779C11.9958 15.8226 12.7498 15.7484 13.4351 15.4645C14.1203 15.1807 14.7059 14.7001 15.118 14.0834C15.5301 13.4667 15.75 12.7417 15.75 12C15.7488 11.0058 15.3534 10.0526 14.6503 9.34964C13.9473 8.64663 12.9942 8.25117 12 8.25ZM12 14.25C11.555 14.25 11.12 14.118 10.75 13.8708C10.38 13.6236 10.0916 13.2722 9.92127 12.861C9.75097 12.4499 9.70642 11.9975 9.79323 11.561C9.88005 11.1246 10.0943 10.7237 10.409 10.409C10.7237 10.0943 11.1246 9.88005 11.561 9.79323C11.9975 9.70641 12.4499 9.75097 12.861 9.92127C13.2722 10.0916 13.6236 10.38 13.8708 10.75C14.118 11.12 14.25 11.555 14.25 12C14.2493 12.5965 14.0121 13.1684 13.5903 13.5903C13.1684 14.0121 12.5965 14.2493 12 14.25Z" fill="#4A4A4A"/>
<path d="M4.70512 7.33697C4.33633 7.19842 3.9281 7.20876 3.5668 7.3658C3.20549 7.52285 2.91945 7.81428 2.76917 8.17846C2.61889 8.54263 2.61618 8.95098 2.76159 9.31712C2.907 9.68326 3.18914 9.97848 3.54832 10.1403C3.91373 10.2949 4.22549 10.5537 4.44468 10.8844C4.66387 11.2151 4.78077 11.603 4.78077 11.9998C4.78077 12.3965 4.66387 12.7845 4.44468 13.1152C4.22549 13.4459 3.91373 13.7046 3.54832 13.8592C3.18905 14.021 2.90685 14.3163 2.76141 14.6825C2.61598 15.0487 2.61873 15.4572 2.76909 15.8214C2.91945 16.1856 3.20561 16.4771 3.56702 16.6341C3.92844 16.791 4.33676 16.8013 4.70557 16.6625C5.07361 16.5127 5.47769 16.4747 5.8672 16.5534C6.25671 16.6322 6.61432 16.8241 6.89525 17.1052C7.17617 17.3862 7.36792 17.7439 7.44646 18.1335C7.52501 18.523 7.48686 18.9271 7.3368 19.295C7.19375 19.6648 7.20263 20.0762 7.3615 20.4394C7.52037 20.8027 7.81635 21.0885 8.18497 21.2345C8.36957 21.3109 8.56741 21.3502 8.7672 21.3502C9.05907 21.3522 9.34505 21.2681 9.58928 21.1083C9.83352 20.9485 10.0252 20.7201 10.1401 20.4518C10.2947 20.0864 10.5535 19.7747 10.8842 19.5555C11.2149 19.3363 11.6028 19.2194 11.9996 19.2194C12.3963 19.2194 12.7843 19.3363 13.115 19.5555C13.4457 19.7747 13.7045 20.0864 13.859 20.4518C14.0209 20.8111 14.3161 21.0933 14.6824 21.2388C15.0486 21.3842 15.457 21.3814 15.8212 21.2311C16.1855 21.0807 16.4769 20.7946 16.6339 20.4331C16.7909 20.0717 16.8011 19.6634 16.6624 19.2946C16.5125 18.9266 16.4745 18.5225 16.5533 18.133C16.632 17.7435 16.8239 17.3858 17.105 17.1049C17.386 16.824 17.7438 16.6323 18.1333 16.5537C18.5228 16.4752 18.9269 16.5133 19.2949 16.6634C19.6623 16.806 20.0712 16.7984 20.4331 16.6421C20.7949 16.4858 21.0808 16.1934 21.2288 15.828L20.5411 15.5292L19.8586 15.2736C19.2176 15.0117 18.5134 14.9452 17.8347 15.0825C17.156 15.2197 16.5331 15.5545 16.0441 16.0448C15.5556 16.5373 15.2199 17.1606 15.0776 17.8396C14.9353 18.5185 14.9924 19.2241 15.2421 19.8713C14.9746 19.2326 14.5239 18.6873 13.947 18.3043C13.37 17.9213 12.6926 17.7177 12.0001 17.7191C11.306 17.7212 10.6275 17.9245 10.0466 18.3042C9.46567 18.684 9.00727 19.224 8.72685 19.8588C8.98855 19.2178 9.05497 18.5137 8.91775 17.835C8.78053 17.1564 8.4458 16.5334 7.95562 16.0444C7.4631 15.5559 6.83981 15.2203 6.16088 15.078C5.48195 14.9357 4.77635 14.9928 4.12912 15.2423C4.76786 14.9747 5.31306 14.524 5.696 13.947C6.07894 13.37 6.28248 12.6925 6.28095 11.9999C6.2788 11.3059 6.07555 10.6274 5.69579 10.0465C5.31604 9.46555 4.77606 9.00714 4.1412 8.72672C4.7822 8.98859 5.48632 9.05509 6.16502 8.91786C6.84372 8.78064 7.4667 8.44582 7.95562 7.9555C8.44417 7.46301 8.77983 6.83973 8.92214 6.16078C9.06445 5.48183 9.00733 4.77622 8.75767 4.129C9.02529 4.76773 9.47602 5.31294 10.053 5.69588C10.6301 6.07882 11.3075 6.28236 12.0001 6.28082C12.6941 6.27867 13.3726 6.07542 13.9536 5.69567C14.5345 5.31591 14.9929 4.77593 15.2733 4.14107C15.0116 4.78211 14.9452 5.48619 15.0824 6.16485C15.2196 6.84351 15.5543 7.46649 16.0445 7.9555C16.5372 8.44379 17.1604 8.77929 17.8393 8.92158C18.5182 9.06388 19.2238 9.00692 19.871 8.75755C19.2354 9.0246 18.6924 9.47283 18.3097 10.0464C17.9271 10.6199 17.7217 11.2934 17.7192 11.9829C17.7167 12.6723 17.9172 13.3473 18.2957 13.9236C18.6742 14.4999 19.2139 14.952 19.8476 15.2237C19.8497 15.2299 19.8497 15.2365 19.8476 15.2427L20.5408 15.5288L21.23 15.8243L21.2341 15.8147C21.3872 15.4515 21.3909 15.0426 21.2445 14.6767C21.098 14.3107 20.8132 14.0173 20.4518 13.8599C20.0864 13.7054 19.7746 13.4466 19.5555 13.1159C19.3363 12.7852 19.2194 12.3973 19.2194 12.0005C19.2194 11.6038 19.3363 11.2158 19.5555 10.8851C19.7746 10.5544 20.0864 10.2956 20.4518 10.1411C20.8111 9.97923 21.0933 9.68396 21.2387 9.31774C21.3842 8.95152 21.3814 8.54309 21.2311 8.17886C21.0807 7.81464 20.7945 7.5232 20.4331 7.36621C20.0717 7.20922 19.6634 7.19901 19.2946 7.33772C18.9265 7.48761 18.5225 7.52556 18.1329 7.44683C17.7434 7.3681 17.3858 7.17618 17.1049 6.89511C16.824 6.61405 16.6322 6.25634 16.5537 5.8668C16.4751 5.47725 16.5133 5.07319 16.6633 4.70522C16.802 4.33643 16.7918 3.92815 16.6347 3.56677C16.4777 3.2054 16.1863 2.91929 15.8221 2.76897C15.4579 2.61864 15.0495 2.61591 14.6833 2.76134C14.3171 2.90677 14.0219 3.18896 13.8601 3.5482C13.7055 3.9136 13.4467 4.22537 13.116 4.44456C12.7853 4.66375 12.3974 4.78064 12.0006 4.78064C11.6039 4.78064 11.2159 4.66375 10.8852 4.44456C10.5545 4.22537 10.2957 3.9136 10.1412 3.5482C9.97935 3.18893 9.68408 2.90672 9.31786 2.76129C8.95164 2.61586 8.54321 2.61861 8.17899 2.76897C7.81476 2.91932 7.52332 3.20549 7.36633 3.5669C7.20935 3.92832 7.19913 4.33663 7.33785 4.70545C7.48773 5.07349 7.52568 5.47757 7.44695 5.86707C7.36822 6.25658 7.1763 6.6142 6.89524 6.89513C6.61417 7.17605 6.25647 7.3678 5.86692 7.44634C5.47737 7.52489 5.07331 7.48674 4.70535 7.33667L4.70512 7.33697Z" fill="#4A4A4A"/>
</svg>
