<svg xmlns="http://www.w3.org/2000/svg" viewBox="0 0 84.37 84.17"><defs><style>.cls-1{fill:#c82127;}</style></defs><g id="Layer_2" data-name="Layer 2"><g id="Layer_1-2" data-name="Layer 1"><path class="cls-1" d="M4,9A5,5,0,0,1,9,4a4.5,4.5,0,0,1,4.48,4.43l.09,9.22h42.1v9.84h4V17.65H68v-9A8.66,8.66,0,0,0,59.35,0H9A9,9,0,0,0,0,9V75.57H40.89v-4H4ZM59.35,4A4.66,4.66,0,0,1,64,8.65v5H17.49l0-5.26A8.45,8.45,0,0,0,16.15,4Z"/><rect class="cls-1" x="17.33" y="21.58" width="30.02" height="4"/><rect class="cls-1" x="9.6" y="30.5" width="29.11" height="4"/><rect class="cls-1" x="9.6" y="38.41" width="29.11" height="4"/><rect class="cls-1" x="9.6" y="46.33" width="29.11" height="4"/><rect class="cls-1" x="9.6" y="54.24" width="29.11" height="4"/><rect class="cls-1" x="9.6" y="62.16" width="29.11" height="4"/><path class="cls-1" d="M73.72,30.09H55A10.67,10.67,0,0,0,44.35,40.75V73.51A10.67,10.67,0,0,0,55,84.17H73.72A10.67,10.67,0,0,0,84.37,73.51V40.75A10.67,10.67,0,0,0,73.72,30.09ZM55,34.09H73.72a6.66,6.66,0,0,1,6.22,4.32H48.78A6.67,6.67,0,0,1,55,34.09ZM80.37,73.51a6.66,6.66,0,0,1-6.65,6.66H55a6.66,6.66,0,0,1-6.66-6.66V50.67h32Zm0-26.84h-32V42.41h32Z"/><path class="cls-1" d="M70.23,78.71h4.9A3.72,3.72,0,0,0,78.85,75V55.91a3.73,3.73,0,0,0-3.72-3.72h-4.9a3.72,3.72,0,0,0-3.71,3.72V75A3.72,3.72,0,0,0,70.23,78.71Zm.29-22.52h4.33V74.71H70.52Z"/><path class="cls-1" d="M56.83,52.1H49.37v7.46h7.46Zm-2,5.46H51.37V54.1h3.46Z"/><path class="cls-1" d="M65.36,52.1H57.9v7.46h7.46Zm-2,5.46H59.9V54.1h3.46Z"/><path class="cls-1" d="M56.83,60.43H49.37v7.46h7.46Zm-2,5.46H51.37V62.43h3.46Z"/><path class="cls-1" d="M65.36,60.43H57.9v7.46h7.46Zm-2,5.46H59.9V62.43h3.46Z"/><path class="cls-1" d="M56.83,68.75H49.37v7.46h7.46Zm-2,5.46H51.37V70.75h3.46Z"/><path class="cls-1" d="M65.36,68.75H57.9v7.46h7.46Zm-2,5.46H59.9V70.75h3.46Z"/></g></g></svg>