<?xml version="1.0" encoding="utf-8"?>
<!-- Generator: Adobe Illustrator 26.5.0, SVG Export Plug-In . SVG Version: 6.00 Build 0)  -->
<svg version="1.1" id="Layer_1" xmlns="http://www.w3.org/2000/svg" xmlns:xlink="http://www.w3.org/1999/xlink" x="0px" y="0px"
	 viewBox="0 0 78.9 81.5" style="enable-background:new 0 0 78.9 81.5;" xml:space="preserve">
<g>
	<path d="M71.5,8.1H61c-0.5-1.3-1.7-2.3-3.2-2.3H41.9c-1.5,0-2.7,1-3.2,2.3H28.2c-1.9,0-3.4,1.5-3.4,3.4v14.8h-3.9
		c-1.4,0-2.8,0.4-4,1.1l-6.1,3.5H4.3v20.5h7.6l4.8,3.2c1.3,0.9,2.8,1.3,4.4,1.3h3.6v17.1c0,1.9,1.5,3.4,3.4,3.4h43.3
		c1.9,0,3.4-1.5,3.4-3.4V11.5C74.9,9.7,73.4,8.1,71.5,8.1z M31.6,35.5h2.3c2.5,0,4.6-2,4.6-4.6c0-2.5-2-4.6-4.6-4.6h-2.3V15h7
		c0.5,1.3,1.7,2.3,3.2,2.3h15.9c1.5,0,2.7-1,3.2-2.3h7v54.7H31.6V35.5z M40.8,9.3c0-0.6,0.5-1.1,1.1-1.1h15.9c0.6,0,1.1,0.5,1.1,1.1
		v4.6c0,0.6-0.5,1.1-1.1,1.1H41.9c-0.6,0-1.1-0.5-1.1-1.1V9.3z M27.1,11.5c0-0.6,0.5-1.1,1.1-1.1h10.3v2.3h-9.1v13.7h-2.3V11.5z
		 M21.2,53.7c-1.1,0-2.2-0.3-3.2-1l-5.4-3.6h-6V33.2h4.9l6.7-3.8c0.9-0.5,1.8-0.8,2.8-0.8h13c1.3,0,2.3,1,2.3,2.3
		c0,1.3-1,2.3-2.3,2.3H20.2v1.1c0,3.1-2.6,5.7-5.7,5.7v2.3c4,0,7.3-3,7.9-6.8h2.4v18.2H21.2z M72.6,73.1c0,0.6-0.5,1.1-1.1,1.1H28.2
		c-0.6,0-1.1-0.5-1.1-1.1V35.5h2.3v36.5h41V12.7h-9.1v-2.3h10.3c0.6,0,1.1,0.5,1.1,1.1V73.1z"/>
	<rect x="43" y="10.4" width="2.3" height="2.3"/>
	<rect x="54.4" y="10.4" width="2.3" height="2.3"/>
	<path d="M58.3,58.5l-3.8-1.1l0-0.6c2.1-1.4,3.4-3.8,3.4-6.5V48c0-4.4-3.6-8-8-8s-8,3.6-8,8v2.3c0,2.7,1.4,5.1,3.4,6.5v0.6l-3.8,1.1
		c-2.4,0.7-4.1,2.9-4.1,5.5v3.4h25.1V64C62.4,61.4,60.7,59.2,58.3,58.5z M44.2,50.3V48c0-3.1,2.6-5.7,5.7-5.7s5.7,2.6,5.7,5.7v2.3
		c0,3.1-2.6,5.7-5.7,5.7S44.2,53.4,44.2,50.3z M52.1,57.9l-2.2,3l-2.2-3c0.7,0.2,1.5,0.3,2.2,0.3S51.4,58.1,52.1,57.9z M60.1,65.1
		H39.6V64c0-1.5,1-2.9,2.5-3.3l3.9-1.1l3.9,5.1l3.9-5.1l3.9,1.1c1.5,0.4,2.5,1.8,2.5,3.3V65.1z"/>
	<rect x="33.9" y="19.5" width="2.3" height="2.3"/>
	<rect x="38.5" y="19.5" width="27.3" height="2.3"/>
	<rect x="40.8" y="24.1" width="25.1" height="2.3"/>
	<rect x="40.8" y="28.6" width="25.1" height="2.3"/>
	<rect x="63.5" y="33.2" width="2.3" height="2.3"/>
	<rect x="40.8" y="33.2" width="20.5" height="2.3"/>
</g>
</svg>
