<svg xmlns="http://www.w3.org/2000/svg" viewBox="0 0 84.1 84.26"><defs><style>.cls-1{fill:#c82127;}</style></defs><g id="Layer_2" data-name="Layer 2"><g id="Layer_1-2" data-name="Layer 1"><path class="cls-1" d="M65,46A19.12,19.12,0,1,0,84.1,65.15,19.12,19.12,0,0,0,65,46ZM75,68.51H68.19v6.81H61.78V68.51H55V62.09h6.82V55.28h6.41v6.81H75Z"/><path class="cls-1" d="M29.06,53.2V55a3.82,3.82,0,0,0,3.82,3.82h7.49a25.47,25.47,0,0,1,4.7-9.44H32.88A3.82,3.82,0,0,0,29.06,53.2Z"/><rect class="cls-1" x="12.36" y="15.98" width="9.44" height="9.44" rx="3.82"/><rect class="cls-1" x="29.06" y="15.98" width="35.31" height="9.44" rx="3.82"/><rect class="cls-1" x="12.36" y="32.68" width="9.44" height="9.44" rx="3.82"/><rect class="cls-1" x="12.36" y="49.38" width="9.44" height="9.44" rx="3.82"/><path class="cls-1" d="M60.56,32.68H32.88a3.82,3.82,0,0,0-3.82,3.82v1.8a3.82,3.82,0,0,0,3.82,3.82H54.26a25.4,25.4,0,0,1,9.82-2.36,3.73,3.73,0,0,0,.29-1.46V36.5A3.81,3.81,0,0,0,60.56,32.68Z"/><path class="cls-1" d="M14,70.8a10,10,0,0,1-10-10V14A10,10,0,0,1,14,4H63A10,10,0,0,1,73,14V41a25.78,25.78,0,0,1,4,1.72V14A14,14,0,0,0,63,0H14A14,14,0,0,0,0,14V60.8a14,14,0,0,0,14,14H41.48a24.79,24.79,0,0,1-1.26-4Z"/></g></g></svg>