<?xml version="1.0" encoding="utf-8"?>
<!-- Generator: Adobe Illustrator 26.5.0, SVG Export Plug-In . SVG Version: 6.00 Build 0)  -->
<svg version="1.1" id="Layer_1" xmlns="http://www.w3.org/2000/svg" xmlns:xlink="http://www.w3.org/1999/xlink" x="0px" y="0px"
	 viewBox="0 0 78.9 81.5" style="enable-background:new 0 0 78.9 81.5;" xml:space="preserve">
<g>
	<g>
		<path d="M7,23.4h2.6v2.9c0,1.3,1,2.3,2.3,2.3H39h27.2c1.3,0,2.3-1,2.3-2.3v-2.9H71c1.3,0,2.3-1,2.3-2.3v-3.7c0-1-0.7-1.9-1.6-2.2
			L40,5.6c-0.3-0.1-0.7-0.1-1-0.1c-0.3,0-0.7,0-1,0.1L6.3,15.1c-1,0.3-1.6,1.2-1.6,2.2v3.7C4.7,22.3,5.7,23.4,7,23.4z"/>
		<path d="M71.1,69.1h-2.6v-2.9c0-1.3-1-2.3-2.3-2.3h-3V30.8h-8.8V64H43.1V30.8h-8.2V64H23.6V30.8h-8.8V64h-3c-1.3,0-2.3,1-2.3,2.3
			v2.9H6.9c-1.3,0-2.3,1-2.3,2.3v3.1c0,1.3,1,2.3,2.3,2.3h64.2c1.3,0,2.3-1,2.3-2.3v-3.1C73.4,70.2,72.4,69.1,71.1,69.1z"/>
	</g>
</g>
</svg>
