<svg width="16" height="17" viewBox="0 0 16 17" fill="none" xmlns="http://www.w3.org/2000/svg">
<path d="M1.3335 3.16669V13.8334" stroke="#141B34" stroke-linecap="round" stroke-linejoin="round"/>
<path d="M3.3335 3.16669V13.8334" stroke="#141B34" stroke-linecap="round" stroke-linejoin="round"/>
<path d="M10 3.16669V13.8334" stroke="#141B34" stroke-linecap="round" stroke-linejoin="round"/>
<path d="M5.3335 12.5V4.50002C5.3335 3.87148 5.3335 3.55721 5.52876 3.36195C5.72402 3.16669 6.03829 3.16669 6.66683 3.16669C7.29536 3.16669 7.60963 3.16669 7.8049 3.36195C8.00016 3.55721 8.00016 3.87148 8.00016 4.50002V12.5C8.00016 13.1286 8.00016 13.4428 7.8049 13.6381C7.60963 13.8334 7.29536 13.8334 6.66683 13.8334C6.03829 13.8334 5.72402 13.8334 5.52876 13.6381C5.3335 13.4428 5.3335 13.1286 5.3335 12.5Z" stroke="#141B34" stroke-linecap="round" stroke-linejoin="round"/>
<path d="M12 12.5V4.50002C12 3.87148 12 3.55721 12.1953 3.36195C12.3905 3.16669 12.7048 3.16669 13.3333 3.16669C13.9619 3.16669 14.2761 3.16669 14.4714 3.36195C14.6667 3.55721 14.6667 3.87148 14.6667 4.50002V12.5C14.6667 13.1286 14.6667 13.4428 14.4714 13.6381C14.2761 13.8334 13.9619 13.8334 13.3333 13.8334C12.7048 13.8334 12.3905 13.8334 12.1953 13.6381C12 13.4428 12 13.1286 12 12.5Z" stroke="#141B34" stroke-linecap="round" stroke-linejoin="round"/>
</svg>
