<svg xmlns="http://www.w3.org/2000/svg" viewBox="0 0 83.71 84.06"><defs><style>.cls-1,.cls-2{fill:#c82127;}.cls-2{font-size:14.29px;font-family:Constantia-Bold, Constantia;font-weight:700;}</style></defs><g id="Layer_2" data-name="Layer 2"><g id="Layer_1-2" data-name="Layer 1"><path class="cls-1" d="M27,84.06l-27-27L47.86,9.19l22.35,4.44,4.67,22.56Zm-21.35-27L27,78.4,70.52,34.88,66.83,17,49.18,13.53Z"/><text class="cls-2" transform="translate(23.64 67.72) rotate(-45)">BRAND</text><path class="cls-1" d="M69.49,0A14,14,0,0,0,55.27,14h3A11,11,0,0,1,69.49,3a11.23,11.23,0,0,1,0,22.45A12,12,0,0,1,66.13,25a5.75,5.75,0,0,0,.4-2.12,5.89,5.89,0,1,0-2.29,4.65,14.87,14.87,0,0,0,5.25.95A14.23,14.23,0,0,0,69.49,0Zm-6,22.85a2.79,2.79,0,0,1-.15.87,10.5,10.5,0,0,1-3.47-3.63,3.09,3.09,0,0,1,.75-.11A2.88,2.88,0,0,1,63.53,22.85Zm-2.87,2.88a2.88,2.88,0,0,1-2.88-2.88,3.29,3.29,0,0,1,0-.44A13.39,13.39,0,0,0,61,25.7,2.58,2.58,0,0,1,60.66,25.73Z"/></g></g></svg>