<?xml version="1.0" encoding="utf-8"?>
<!-- Generator: Adobe Illustrator 26.5.0, SVG Export Plug-In . SVG Version: 6.00 Build 0)  -->
<svg version="1.1" id="Layer_1" xmlns="http://www.w3.org/2000/svg" xmlns:xlink="http://www.w3.org/1999/xlink" x="0px" y="0px"
	 viewBox="0 0 78.9 81.5" style="enable-background:new 0 0 78.9 81.5;" xml:space="preserve">
<path d="M71,48.3h-8.7v-6.5c0-2.4-2-4.4-4.4-4.4H42.7v-6.5h6.5c2.4,0,4.4-2,4.4-4.4V9.1c0-2.4-2-4.4-4.4-4.4H31.8
	c-2.4,0-4.4,2-4.4,4.4v17.4c0,2.4,2,4.4,4.4,4.4h6.5v6.5H23c-2.4,0-4.4,2-4.4,4.4v6.5H9.9c-2.4,0-4.4,2-4.4,4.4v17.4
	c0,2.4,2,4.4,4.4,4.4h17.4c2.4,0,4.4-2,4.4-4.4V52.7c0-2.4-2-4.4-4.4-4.4H23v-6.5h34.9v6.5h-4.4c-2.4,0-4.4,2-4.4,4.4v17.4
	c0,2.4,2,4.4,4.4,4.4H71c2.4,0,4.4-2,4.4-4.4V52.7C75.4,50.3,73.4,48.3,71,48.3L71,48.3z M31.8,26.5V9.1h17.4v17.4L31.8,26.5
	L31.8,26.5z M27.4,52.7v17.4H9.9V52.7H27.4L27.4,52.7z M71,70.1H53.6V52.7H71V70.1z"/>
</svg>
