<svg xmlns="http://www.w3.org/2000/svg" viewBox="0 0 82.4 82.68"><defs><style>.cls-1{fill:#c82127;}</style></defs><g id="Layer_2" data-name="Layer 2"><g id="Layer_1-2" data-name="Layer 1"><path class="cls-1" d="M71.44,29.27l3.63-2.18V45.56a5.09,5.09,0,0,1-1.37,3.49L44.41,80.19l-4.49-4.86,30-31.25.21-.31a8.36,8.36,0,0,0,1.39-4.67Z"/><path class="cls-1" d="M63.15,11c-.59,1.18-1.26,2.56-1.92,4H65V38.59a2.12,2.12,0,0,1-.58,1.47L28.85,76.9,5.54,52.46,41.08,15.59A1.82,1.82,0,0,1,42.4,15H56.63l1.9-4H42.4a5.88,5.88,0,0,0-4.2,1.8L0,52.44,28.84,82.68,67.25,42.84A6.08,6.08,0,0,0,69,38.59V11Z"/><path class="cls-1" d="M82.37,12.2a14.19,14.19,0,0,0-2.7-7.65A11.45,11.45,0,0,0,71.87.07c-4.49-.5-8.31,1.83-11,5.43a42,42,0,0,0-5,9.74c-1.06,2.7-2.24,5.35-3.35,8l-.26.64v0a4,4,0,1,0,4.84,3.91,4.25,4.25,0,0,0-.57-2.09A38,38,0,0,1,58,20.5c1.47-4.11,3-8.3,5.59-11.81A14.14,14.14,0,0,1,67,5.29a6.91,6.91,0,0,1,6.7-.24c3,1.43,4.5,4.73,4.59,8a8.79,8.79,0,0,1-1,4.55,9.93,9.93,0,0,1-5.28,4,.62.62,0,0,0-.35.24.63.63,0,0,0-.05.31v4.44a13.69,13.69,0,0,0,9-6.33A14.4,14.4,0,0,0,82.37,12.2Z"/><path class="cls-1" d="M59.34,19.8a22.94,22.94,0,0,0-.92,5,6.34,6.34,0,0,1,.75,3,5.92,5.92,0,1,1-5.91-6.21,5.53,5.53,0,0,1,2.46.58l-1.63-1.83,1.2-2.53a9.78,9.78,0,0,0-2-.22,10.21,10.21,0,1,0,9.91,10.21A10.29,10.29,0,0,0,59.34,19.8Z"/></g></g></svg>