<svg xmlns="http://www.w3.org/2000/svg" viewBox="0 0 79.04 79.04"><g id="Layer_2" data-name="Layer 2"><g id="Layer_1-2" data-name="Layer 1"><g id="_09" data-name="09"><path d="M76.22,0H2.82A2.82,2.82,0,0,0,0,2.82v73.4A2.82,2.82,0,0,0,2.82,79h73.4A2.82,2.82,0,0,0,79,76.22V2.82A2.82,2.82,0,0,0,76.22,0ZM73.4,16.94h-35L44.09,5.65H73.4ZM30,16.94,35.62,5.65h2.16L32.13,16.94ZM5.65,5.65H29.31L23.66,16.94h-18ZM16.94,70.57h2.82a2.82,2.82,0,1,0,0-5.64H16.94V62.11h2.82a2.83,2.83,0,0,0,0-5.65H16.94V53.64h2.82a2.83,2.83,0,0,0,0-5.65H16.94V46.77l8.47-5.09V73.4H16.94Zm25.4-11.29H36.7a2.83,2.83,0,0,0-2.82,2.83V73.4H31.05V31.05H48V73.4H45.17V62.11A2.83,2.83,0,0,0,42.34,59.28ZM53.64,73.4V41.68l8.47,5.09V48H59.28a2.83,2.83,0,0,0,0,5.65h2.83v2.82H59.28a2.83,2.83,0,0,0,0,5.65h2.83v2.82H59.28a2.82,2.82,0,0,0,0,5.64h2.83V73.4Zm19.76,0H67.75V45.17a2.82,2.82,0,0,0-1.37-2.42L53.64,35.1V28.23a2.83,2.83,0,0,0-2.83-2.82H28.23a2.82,2.82,0,0,0-2.82,2.82V35.1L12.66,42.75a2.82,2.82,0,0,0-1.37,2.42V73.4H5.65V22.58H73.4Z"/><path d="M11.38,8.47h0a2.82,2.82,0,1,0,2.85,2.82A2.81,2.81,0,0,0,11.35,8.47Z"/><path d="M19.85,8.47h0a2.82,2.82,0,1,0,2.85,2.82A2.81,2.81,0,0,0,19.82,8.47Z"/><path d="M36.7,39.52h5.64a2.82,2.82,0,1,0,0-5.64H36.7a2.82,2.82,0,0,0,0,5.64Z"/><path d="M36.7,48h5.64a2.83,2.83,0,1,0,0-5.65H36.7a2.83,2.83,0,0,0,0,5.65Z"/><path d="M42.34,50.81H36.7a2.83,2.83,0,0,0,0,5.65h5.64a2.83,2.83,0,1,0,0-5.65Z"/></g></g></g></svg>