<svg xmlns="http://www.w3.org/2000/svg" viewBox="0 0 78.88 82.27"><g id="Layer_2" data-name="Layer 2"><g id="Layer_1-2" data-name="Layer 1"><path d="M28.16,13.7a4.23,4.23,0,1,0-4.23-4.23A4.24,4.24,0,0,0,28.16,13.7Zm0-6a1.82,1.82,0,1,1-1.82,1.82A1.83,1.83,0,0,1,28.16,7.65Z"/><path d="M58.46,55.08a4.23,4.23,0,1,0-4.23-4.23A4.24,4.24,0,0,0,58.46,55.08Zm0-6a1.82,1.82,0,1,1-1.82,1.82A1.83,1.83,0,0,1,58.46,49Z"/><path d="M69.64,17.46A39.39,39.39,0,0,0,60,9.14a1.2,1.2,0,0,0-1.25,2,37.39,37.39,0,0,1,8.56,7.2c-.85,1.18-1.17,3.14-3.14,3.3a4.93,4.93,0,0,0-4,2.59l-1.42,2.65c-1,1.83-2.91,1.23-4,1.23a8.12,8.12,0,0,0-6,2.64A9.62,9.62,0,0,0,46.51,36a8.2,8.2,0,0,1-1.15,3.36c-.12.18,0,0-3.39,4.54a3.45,3.45,0,0,0,.74,4.87l2.81,2a3.45,3.45,0,0,0,2.89.55l.58-.14h0c0,.14,0,.28,0,.41.28,4.7,3,9.15,6.2,12.63a4.4,4.4,0,0,0,6.5,0h0a25.53,25.53,0,0,0,5.36-8.55l5.3,4.07a37,37,0,0,1-30.07,20c-.11-.59-1.91-3,.16-4.46a4.81,4.81,0,0,0,2-3.91,6.46,6.46,0,0,0-.58-3.51,4.75,4.75,0,0,0-.71-1l-1.88-2a2.41,2.41,0,0,1-.23-3l.51-.74a4.79,4.79,0,0,0-2.47-7.25l-5.43-1.79a.94.94,0,0,1-.52-.42l-3.73-6.41a3.34,3.34,0,0,0-5.74-.07l-.89,1.44a.93.93,0,0,1-.79.45A.94.94,0,0,1,21.1,46L23,38.56a.94.94,0,0,1,.48-.59l3.93-2a3.36,3.36,0,0,0,1.82-2.87,5.23,5.23,0,0,0-4.38-4.94c-2-.42-3.15-.33-4.5-1.16l-5.71-3.46a5.37,5.37,0,0,1-2.38-3.11l-.61-2.09A37.08,37.08,0,0,1,18.93,12a17.33,17.33,0,0,0,.53,2,25.6,25.6,0,0,0,5.78,9.17,4.39,4.39,0,0,0,6.16-.32c3.36-3.69,6.22-8.42,6.23-13.42h0a9.53,9.53,0,0,0-.71-3.59c.84-.06,1.69-.08,2.52-.08A36.7,36.7,0,0,1,54.36,8.93a1.21,1.21,0,0,0,1-2.21,39.22,39.22,0,0,0-15.9-3.33,38.76,38.76,0,0,0-3.88.19A9.45,9.45,0,0,0,28.19,0,9.57,9.57,0,0,0,18.7,9.28a39.51,39.51,0,0,0-9.28,8l0,0a39.44,39.44,0,0,0,1.4,52.67,1.21,1.21,0,1,0,1.75-1.66A37,37,0,0,1,9.83,20.59a7.91,7.91,0,0,0,3.59,5L19.12,29c2.29,1.39,4.9,1.11,6.16,1.74a3,3,0,0,1,1.55,2,.93.93,0,0,1-.49,1l-3.93,2A3.33,3.33,0,0,0,20.7,38l-1.93,7.39A3.34,3.34,0,0,0,24.85,48l.9-1.45a.93.93,0,0,1,1.6,0c3.94,6.76,3.73,6.45,3.89,6.67a3.3,3.3,0,0,0,1.69,1.24l5.43,1.79a2.38,2.38,0,0,1,1.23,3.6c-.45.67-.56.8-.73,1.1a4.75,4.75,0,0,0,.69,5.62l1.87,2c.9,1,.57,2,.64,2.9a2.38,2.38,0,0,1-1,1.89c-3.51,2.51-1.32,6.5-1.32,6.54h-.3A37.09,37.09,0,0,1,16,71.47a1.2,1.2,0,1,0-1.53,1.86,39.52,39.52,0,0,0,25,8.94c1.16,0,1.91,0,2.14-.06C41.6,82.2,64.33,82,75,60h0a39,39,0,0,0,3.91-17.13,39.48,39.48,0,0,0-9.24-25.37Zm-41.48-15h0a7.07,7.07,0,0,1,7,7.06c0,4.91-3.51,9.5-5.6,11.8a2,2,0,0,1-2.93,0c-2.74-3-5.4-7.19-5.58-11.27V9.91h0a7.17,7.17,0,0,1,7.05-7.5ZM58.45,43.79h0a7.08,7.08,0,0,1,7,7.06c0,4.29-2.7,8.61-5.6,11.8a2,2,0,0,1-2.93,0c-2-2.16-5.29-6.47-5.57-11.15a7.18,7.18,0,0,1,7-7.7Zm15,13.77-5.7-4.39a13.89,13.89,0,0,0,.21-2.32,9.49,9.49,0,0,0-9.44-9.47h0a9.48,9.48,0,0,0-9.17,7.28c-1.46.38-1.86.57-2.36.21l-2.81-2a1.05,1.05,0,0,1-.22-1.48L47.14,41a10,10,0,0,0,1.74-4.57,7.32,7.32,0,0,1,1.67-4,5.74,5.74,0,0,1,4.22-1.86c1,0,4.35.75,6.09-2.5l1.43-2.65a2.48,2.48,0,0,1,2-1.32,5.39,5.39,0,0,0,4.36-3.32l.23-.39a37.08,37.08,0,0,1,7.57,22.44,36.56,36.56,0,0,1-3,14.73Z"/></g></g></svg>