<svg width="20" height="21" viewBox="0 0 20 21" fill="none" xmlns="http://www.w3.org/2000/svg">
<path d="M15.1725 14.4941C15.498 14.8195 15.498 15.3472 15.1725 15.6726C14.8471 15.998 14.3194 15.998 13.994 15.6726L9.99995 11.6786L6.00601 15.6726C5.68058 15.9981 5.15294 15.9981 4.8275 15.6726C4.50206 15.3472 4.50206 14.8195 4.82749 14.4941L8.82143 10.5001L4.82733 6.50607C4.50189 6.18064 4.50189 5.65301 4.82733 5.32757C5.15277 5.00214 5.68041 5.00214 6.00585 5.32757L9.99993 9.32158L13.9939 5.32759C14.3193 5.00215 14.8469 5.00214 15.1724 5.32758C15.4978 5.65301 15.4978 6.18065 15.1724 6.50609L11.1784 10.5001L15.1725 14.4941Z" fill="#6B5C58"/>
</svg>
