<svg xmlns="http://www.w3.org/2000/svg" viewBox="0 0 78.94 78.94"><g id="Layer_2" data-name="Layer 2"><g id="Layer_1-2" data-name="Layer 1"><g id="_OUTLINE" data-name=" OUTLINE"><path d="M21.72,18.2a2.59,2.59,0,0,0,2.6-2.6V13a2.6,2.6,0,0,0-2.6-2.6h-2.6a2.61,2.61,0,0,0-2.6,2.6v2.6a2.6,2.6,0,0,0,2.6,2.6ZM19.12,13h2.6v2.6H19.12Z"/><path d="M29.53,18.2h2.6a2.6,2.6,0,0,0,2.6-2.6V13a2.61,2.61,0,0,0-2.6-2.6h-2.6a2.6,2.6,0,0,0-2.6,2.6v2.6A2.59,2.59,0,0,0,29.53,18.2Zm0-5.2h2.6v2.6h-2.6Z"/><path d="M39.93,18.2h2.6a2.6,2.6,0,0,0,2.6-2.6V13a2.61,2.61,0,0,0-2.6-2.6h-2.6a2.6,2.6,0,0,0-2.6,2.6v2.6A2.59,2.59,0,0,0,39.93,18.2Zm0-5.2h2.6v2.6h-2.6Z"/><path d="M50.33,20.8V3.9A3.91,3.91,0,0,0,46.43,0H15.22a3.91,3.91,0,0,0-3.9,3.9V33.05L4.66,39.7a3.91,3.91,0,0,0-1.14,2.76V53.53a3.9,3.9,0,0,1-1.14,2.76L0,58.67l1.84,1.84,2.38-2.38a6.43,6.43,0,0,0,1.9-4.6V42.46a1.34,1.34,0,0,1,.38-.92l7-7a2.38,2.38,0,0,1,3.37,3.36h0l-4.44,4.44a3.89,3.89,0,0,0-1.14,2.75v16a3.9,3.9,0,0,0,3.9,3.9h7.27L21,66.47a3.83,3.83,0,0,1-2.76,1.14H16.08a6.5,6.5,0,0,0-4.6,1.91L3.9,77.1l1.84,1.84,7.58-7.58a3.81,3.81,0,0,1,2.76-1.14h2.19a6.52,6.52,0,0,0,4.6-1.91l1.88-1.88A28.58,28.58,0,0,0,47.73,78h2.6a28.61,28.61,0,0,0,0-57.22ZM39.56,2.6l-.4,1.62a1.3,1.3,0,0,1-1.26,1H23.75a1.3,1.3,0,0,1-1.26-1l-.4-1.62ZM13.92,31.38V3.9a1.3,1.3,0,0,1,1.3-1.3h4.19L20,4.85a3.9,3.9,0,0,0,3.78,3H37.9a3.9,3.9,0,0,0,3.78-2.95l.56-2.25h4.19a1.3,1.3,0,0,1,1.3,1.3V20.8H19.12V33.09a5.08,5.08,0,0,0-.38-.43,5,5,0,0,0-4.82-1.28Zm1.3,31a1.3,1.3,0,0,1-1.3-1.3v-16a1.34,1.34,0,0,1,.38-.92l4.44-4.44a3.79,3.79,0,0,0,.38-.42V49.41a28.51,28.51,0,0,0,3.13,13Zm35.11,13h-2.6a26,26,0,0,1-26-26v-26H50.33a26,26,0,1,1,0,52Z"/><path d="M59.43,1.3H62V5.2h-2.6Z"/><path d="M55.53,5.2h3.9V7.8h-3.9Z"/><path d="M59.43,7.8H62v3.9h-2.6Z"/><path d="M62,5.2h3.9V7.8H62Z"/><path d="M71.13,11.7h2.61v3.9H71.13Z"/><path d="M67.23,15.6h3.9v2.6h-3.9Z"/><path d="M71.13,18.2h2.61v3.9H71.13Z"/><path d="M73.74,15.6h3.9v2.6h-3.9Z"/><path d="M59.43,27.31H36a3.89,3.89,0,0,0-3.9,3.9V65A3.91,3.91,0,0,0,36,68.92h23.4A3.91,3.91,0,0,0,63.33,65V31.21A3.89,3.89,0,0,0,59.43,27.31ZM60.73,65a1.3,1.3,0,0,1-1.3,1.3H36a1.3,1.3,0,0,1-1.3-1.3V31.21a1.3,1.3,0,0,1,1.3-1.3h23.4a1.3,1.3,0,0,1,1.3,1.3Z"/><path d="M53.41,38.93,50.9,31.4,46,36.27l-5.42-1.36-4.4,7.33,2.23,1.34,3.41-5.68,5,1.25,2.93-2.94,2.69,8.08,6.7-8.37-2-1.62Z"/><path d="M37.33,54.61h5.2v2.6h-5.2Z"/><path d="M37.33,59.81h5.2v2.6h-5.2Z"/><path d="M45.13,54.61h5.2v2.6h-5.2Z"/><path d="M45.13,59.81h5.2v2.6h-5.2Z"/><path d="M50.83,47.71l-4.28-7.13-4.88,6.5-4.92,2.47,1.16,2.32,5.47-2.73,2.93-3.9,3.52,5.87,8.88-4.44-1.16-2.32Z"/><path d="M52.93,54.61h5.2v2.6h-5.2Z"/><path d="M52.93,59.81h5.2v2.6h-5.2Z"/></g></g></g></svg>