<?xml version="1.0" encoding="utf-8"?>
<!-- Generator: Adobe Illustrator 26.5.0, SVG Export Plug-In . SVG Version: 6.00 Build 0)  -->
<svg version="1.1" id="Layer_1" xmlns="http://www.w3.org/2000/svg" xmlns:xlink="http://www.w3.org/1999/xlink" x="0px" y="0px"
	 viewBox="0 0 78.9 81.5" style="enable-background:new 0 0 78.9 81.5;" xml:space="preserve">
<path d="M40.8,35.5c-1.6,0-3.3-0.4-4.5-0.9l-25-12.3c-1.6-0.9-2.7-2.2-2.7-3.6s0.9-2.9,2.7-3.8L36.4,2c1.4-0.7,3.1-1.1,4.9-1.1
	c1.6,0,3.3,0.4,4.5,0.9l25,12.3c1.6,0.9,2.7,2.2,2.7,3.6s-0.9,2.9-2.7,3.8L45.7,34.4C44.2,35.1,42.6,35.5,40.8,35.5L40.8,35.5z
	 M13.1,18.5l25,12.3c0.7,0.4,1.6,0.5,2.7,0.5c1.1,0,2.2-0.2,2.9-0.5L69,17.9L44,5.6c-0.7-0.4-1.6-0.5-2.7-0.5
	c-1.1,0-2.2,0.2-2.9,0.5L13.1,18.5z M35.7,80.6c-0.9,0-1.8-0.2-2.7-0.7L10.5,68.1c-2.7-1.3-4.7-4.2-4.7-6.5V30.1
	c0-2.2,1.6-3.8,4-3.8c0.9,0,1.8,0.2,2.7,0.7l22.3,11.8c2.7,1.3,4.7,4.2,4.7,6.5v31.5C39.5,78.9,37.9,80.6,35.7,80.6L35.7,80.6z
	 M34.8,76.2c0.2,0.2,0.4,0.2,0.5,0.2V45.3c0-0.7-0.9-2.2-2.4-2.9L10.5,30.6c-0.2-0.2-0.4-0.2-0.5-0.2v31.1c0,0.7,0.9,2.2,2.4,2.9
	L34.8,76.2L34.8,76.2z M47.6,80.6c-2.2,0-3.8-1.6-3.8-3.8V45.3c0-2.4,2-5.3,4.7-6.5L70.8,27c0.9-0.4,1.8-0.7,2.7-0.7
	c2.2,0,3.8,1.6,3.8,3.8v31.5c0,2.4-2,5.3-4.7,6.5L50.4,79.8C49.3,80.4,48.5,80.6,47.6,80.6L47.6,80.6z M72.6,30.6L50.4,42.4
	c-1.4,0.7-2.4,2.2-2.4,2.9v31.1c0.2,0,0.4-0.2,0.5-0.2l22.3-11.8c1.4-0.7,2.4-2.2,2.4-2.9V30.4C73,30.4,72.8,30.6,72.6,30.6
	L72.6,30.6z"/>
</svg>
