<svg xmlns="http://www.w3.org/2000/svg" viewBox="0 0 79.04 79.04"><g id="Layer_2" data-name="Layer 2"><g id="Layer_1-2" data-name="Layer 1"><path d="M75.45,0H46.71a3.6,3.6,0,0,0-3.6,3.59V32.34a3.6,3.6,0,0,0,3.6,3.59H75.45A3.59,3.59,0,0,0,79,32.34V3.59A3.59,3.59,0,0,0,75.45,0ZM71.86,28.74H50.3V7.19H71.86Z"/><path d="M61.08,43.11a18,18,0,1,0,18,18A18,18,0,0,0,61.08,43.11Zm0,28.75A10.78,10.78,0,1,1,71.86,61.08,10.78,10.78,0,0,1,61.08,71.86Z"/><path d="M32.34,43.11H3.59A3.6,3.6,0,0,0,0,46.71V75.45A3.59,3.59,0,0,0,3.59,79H32.34a3.59,3.59,0,0,0,3.59-3.59V46.71A3.6,3.6,0,0,0,32.34,43.11Zm-3.6,28.75H7.19V50.3H28.74Z"/><path d="M32.34,0H3.59A3.59,3.59,0,0,0,0,3.59V32.34a3.59,3.59,0,0,0,3.59,3.59H32.34a3.59,3.59,0,0,0,3.59-3.59V3.59A3.59,3.59,0,0,0,32.34,0Zm-3.6,28.74H7.19V7.19H28.74Z"/></g></g></svg>