<svg xmlns="http://www.w3.org/2000/svg" viewBox="0 0 78.86 65.72"><g id="Layer_2" data-name="Layer 2"><g id="Layer_1-2" data-name="Layer 1"><g id="Map_-Navigation-Travel-Location-Travelling" data-name="Map -Navigation-Travel-Location-Travelling"><path d="M77.9,7.94,74.64,7A9.18,9.18,0,0,0,59.28,2.64a1.94,1.94,0,0,0-.48,0L39.43,7.84,20.06,2.67a1.51,1.51,0,0,0-.7,0L1,7.94A1.31,1.31,0,0,0,0,9.2V64.41a1.33,1.33,0,0,0,.53,1,1.26,1.26,0,0,0,1.14.21l18.06-5.15,19.36,5.16a1.56,1.56,0,0,0,.68,0l19.36-5.16,18.06,5.15a1.49,1.49,0,0,0,.36,0,1.31,1.31,0,0,0,1.31-1.31V9.2A1.31,1.31,0,0,0,77.9,7.94ZM65.72,2.63A6.57,6.57,0,0,1,72.29,9.2c0,3.38-4.14,8.59-6.57,11.24-2.43-2.65-6.57-7.86-6.57-11.24A6.57,6.57,0,0,1,65.72,2.63ZM55.36,6.31l-6.79,6.81-4-3.94ZM2.63,10.19l17.1-4.88,6.91,1.84-3,3a9.06,9.06,0,0,0-4-.92,9.22,9.22,0,0,0-9.21,9.2,10.45,10.45,0,0,0,1,3.93L8.6,25.21l-6-6Zm26,6.11,4.1-4.11,8.37,8.37L22.54,39.14l-8.37-8.37,1.63-1.63c1.43,1.76,2.67,3,3,3.34a1.33,1.33,0,0,0,1.87,0c.84-.85,8.27-8.44,8.27-14.08A9.88,9.88,0,0,0,28.67,16.3Zm-9,13.34C17.28,27,13.14,21.78,13.14,18.4a6.58,6.58,0,0,1,13.15,0C26.29,21.78,22.15,27,19.72,29.64ZM2.63,42.32l4.11-4.11,8.38,8.37L2.63,59.06Zm22.2,16.83,1.43-1.42,2.46,2.46Zm51.4,3.51L59.5,57.89a1.39,1.39,0,0,0-.7,0L45,61.57,33.69,50.29l3.76-3.75c1.81,5,6.92,10.22,7.62,10.91a1.33,1.33,0,0,0,1.87,0c.84-.85,8.26-8.44,8.26-14.07a9.19,9.19,0,0,0-6-8.61l3.07-3.07L76.23,55.64ZM39.43,43.38a6.57,6.57,0,1,1,13.14,0c0,3.37-4.14,8.58-6.57,11.23C43.57,52,39.43,46.75,39.43,43.38Zm36.8,8.55-23-23a1.33,1.33,0,0,0-1.87,0l-5.27,5.26H46a9.21,9.21,0,0,0-9.2,9.2v.07l-5.9,5.91a1.32,1.32,0,0,0,0,1.86L42,62.36l-2.6.68-5.65-1.5-6.59-6.6a1.32,1.32,0,0,0-1.86,0L21.9,58.37l-1.84-.5a1.39,1.39,0,0,0-.7,0L2.77,62.62,17.9,47.52a1.34,1.34,0,0,0,0-1.87L7.68,35.42a1.33,1.33,0,0,0-1.87,0l-3.18,3.2V34.89L4,33.57A1.33,1.33,0,0,0,4,31.7L2.63,30.39V23l5,5.05a1.33,1.33,0,0,0,1.87,0l3.19-3.21c.46.78,1,1.53,1.48,2.25l-2.82,2.8a1.32,1.32,0,0,0,0,1.86L21.61,41.93a1.32,1.32,0,0,0,1.86,0L43.93,21.49a1.34,1.34,0,0,0,0-1.86L33.7,9.4a1.33,1.33,0,0,0-1.87,0l-4.24,4.26a9.19,9.19,0,0,0-1.68-2l3.68-3.68,9.5,2.54a1.56,1.56,0,0,0,.68,0L41.69,10l5.94,5.95a1.35,1.35,0,0,0,1.87,0l7-7c0,.12,0,.22,0,.34,0,3.21,2.4,7.05,4.62,9.91l-4.21,4.22a1.33,1.33,0,0,0,0,1.87l19.3,19.29Zm0-11.14L59.71,24.27l3.12-3.12c1,1.1,1.72,1.89,2,2.13a1.32,1.32,0,0,0,1.86,0c.82-.82,7.74-7.91,8.22-13.47l1.36.38Z"/><path d="M19.72,14.46a3.95,3.95,0,1,0,3.94,3.94A3.95,3.95,0,0,0,19.72,14.46Zm0,5.26A1.32,1.32,0,1,1,21,18.4,1.32,1.32,0,0,1,19.72,19.72Z"/><path d="M46,47.32a3.95,3.95,0,1,0-3.94-3.94A3.95,3.95,0,0,0,46,47.32Zm0-5.26a1.32,1.32,0,1,1-1.31,1.32A1.32,1.32,0,0,1,46,42.06Z"/><path d="M65.72,13.15a3.95,3.95,0,1,0-3.94-4A3.94,3.94,0,0,0,65.72,13.15Zm0-5.26A1.32,1.32,0,1,1,64.4,9.2,1.31,1.31,0,0,1,65.72,7.89Z"/></g></g></g></svg>