<svg xmlns="http://www.w3.org/2000/svg" viewBox="0 0 78.78 78.78"><g id="Layer_2" data-name="Layer 2"><g id="Layer_1-2" data-name="Layer 1"><path d="M75.32,0H3.47A3.47,3.47,0,0,0,0,3.47V75.32a3.46,3.46,0,0,0,3.47,3.46H75.32a3.46,3.46,0,0,0,3.46-3.46V3.47A3.46,3.46,0,0,0,75.32,0Zm1.15,75.32a1.16,1.16,0,0,1-1.15,1.15H3.47a1.16,1.16,0,0,1-1.16-1.15V15.7H76.47Zm0-61.93H2.31V3.47A1.16,1.16,0,0,1,3.47,2.31H75.32a1.16,1.16,0,0,1,1.15,1.16Z"/><path d="M10.27,4.36A3.69,3.69,0,1,0,14,8.05,3.69,3.69,0,0,0,10.27,4.36Zm0,5.07a1.38,1.38,0,1,1,1.38-1.38A1.38,1.38,0,0,1,10.27,9.43Z"/><path d="M20.05,4.36a3.69,3.69,0,1,0,3.69,3.69A3.69,3.69,0,0,0,20.05,4.36Zm0,5.07a1.38,1.38,0,1,1,1.38-1.38A1.38,1.38,0,0,1,20.05,9.43Z"/><path d="M29.84,4.36a3.69,3.69,0,1,0,3.68,3.69A3.69,3.69,0,0,0,29.84,4.36Zm0,5.07a1.38,1.38,0,1,1,1.37-1.38A1.38,1.38,0,0,1,29.84,9.43Z"/><path d="M10.11,29.22H68.68a2.08,2.08,0,0,0,2.08-2.08V21.59a2.09,2.09,0,0,0-2.08-2.09H10.11A2.1,2.1,0,0,0,8,21.59v5.55A2.09,2.09,0,0,0,10.11,29.22Zm58.34-7.41v5.1H10.33v-5.1Z"/><path d="M10.11,41.56H68.68a2.08,2.08,0,0,0,2.08-2.08V33.92a2.08,2.08,0,0,0-2.08-2.08h-44a1.16,1.16,0,0,0,0,2.31H68.45v5.1H10.33v-5.1h9a1.16,1.16,0,1,0,0-2.31H10.11A2.09,2.09,0,0,0,8,33.92v5.56A2.09,2.09,0,0,0,10.11,41.56Z"/><path d="M10.11,62.49H68.68a2.08,2.08,0,0,0,2.08-2.08V53.66a1.16,1.16,0,0,0-2.31,0v6.52H10.33V46.49H68.45v1.89a1.16,1.16,0,0,0,2.31,0V46.26a2.08,2.08,0,0,0-2.08-2.08H10.11A2.09,2.09,0,0,0,8,46.26V60.41A2.09,2.09,0,0,0,10.11,62.49Z"/><path d="M68.68,65.11H55.61a2.08,2.08,0,0,0-2.08,2.08V71a2.08,2.08,0,0,0,2.08,2.08H68.68A2.09,2.09,0,0,0,70.76,71V67.19A2.08,2.08,0,0,0,68.68,65.11Zm-.23,5.69H55.84V67.42H68.45Z"/><path d="M14.19,51.51H18a1.16,1.16,0,0,0,0-2.31H14.19A1.14,1.14,0,0,0,13,50.35,1.16,1.16,0,0,0,14.19,51.51Z"/><path d="M46.64,50.35a1.15,1.15,0,0,0-1.16-1.15H22.26a1.16,1.16,0,0,0,0,2.31H45.48A1.16,1.16,0,0,0,46.64,50.35Z"/><path d="M33.46,53.13a1.16,1.16,0,0,0,0,2.31H42a1.16,1.16,0,1,0,0-2.31Z"/><path d="M26.37,53.13a1.16,1.16,0,0,0,0,2.31H29a1.16,1.16,0,1,0,0-2.31Z"/><path d="M14.19,55.44h7.92a1.16,1.16,0,1,0,0-2.31H14.19A1.14,1.14,0,0,0,13,54.28,1.16,1.16,0,0,0,14.19,55.44Z"/></g></g></svg>