<svg xmlns="http://www.w3.org/2000/svg" viewBox="0 0 76.51 83.21"><defs><style>.cls-1{fill:#c82127;}</style></defs><g id="Layer_2" data-name="Layer 2"><g id="Layer_1-2" data-name="Layer 1"><path class="cls-1" d="M76,68.69h0c-4.26-13.86-14.78-24.42-27.26-28.3a21.57,21.57,0,1,0-21,0C15.29,44.27,4.77,54.83.51,68.69a11.17,11.17,0,0,0,1.7,10,11,11,0,0,0,9,4.52H65.34a11,11,0,0,0,9-4.52A11.17,11.17,0,0,0,76,68.69ZM41.43,65.78,38.26,69l-3.18-3.17,3.18-14.6ZM21,21.56A17.22,17.22,0,1,1,38.26,38.78,17.23,17.23,0,0,1,21,21.56ZM70.81,76.1a6.73,6.73,0,0,1-5.47,2.76H11.17A6.73,6.73,0,0,1,5.7,76.1a6.85,6.85,0,0,1-1-6.13c4.56-14.84,17-25.47,30.87-26.72l-5.2,23.92,7.93,7.92,7.92-7.92L41,43.25C54.83,44.5,67.29,55.13,71.85,70A6.85,6.85,0,0,1,70.81,76.1Z"/></g></g></svg>