<svg width="18" height="19" viewBox="0 0 18 19" fill="none" xmlns="http://www.w3.org/2000/svg">
<path d="M3 9.50023V11.4083C3 13.842 3 15.059 3.66455 15.8832C3.79881 16.0497 3.95048 16.2014 4.117 16.3357C4.94123 17.0002 6.15811 17.0002 8.59185 17.0002C9.12105 17.0002 9.38557 17.0002 9.6279 16.9147C9.6783 16.8969 9.72765 16.8765 9.77587 16.8534C10.0077 16.7425 10.1947 16.5555 10.5689 16.1813L14.1213 12.6289C14.5549 12.1954 14.7716 11.9785 14.8858 11.7029C15 11.4273 15 11.1207 15 10.5076V8.00023C15 5.17177 15 3.75756 14.1213 2.87887C13.327 2.0845 12.0949 2.00829 9.77587 2.00098M9.75 16.6252V16.2502C9.75 14.1289 9.75 13.0682 10.409 12.4092C11.068 11.7502 12.1287 11.7502 14.25 11.7502H14.625" stroke="white" stroke-width="1.5" stroke-linecap="round" stroke-linejoin="round"/>
<path d="M9 4.99951H3M6 1.99951V7.99951" stroke="white" stroke-width="1.5" stroke-linecap="round" stroke-linejoin="round"/>
</svg>
