<?xml version="1.0" encoding="utf-8"?>
<!-- Generator: Adobe Illustrator 25.4.1, SVG Export Plug-In . SVG Version: 6.00 Build 0)  -->
<svg version="1.1" id="Layer_1" xmlns="http://www.w3.org/2000/svg" xmlns:xlink="http://www.w3.org/1999/xlink" x="0px" y="0px"
	 viewBox="0 0 78.9 81.5" style="enable-background:new 0 0 78.9 81.5;" xml:space="preserve">
<path d="M68,8.7H57.4V5.3C57.4,4,56.4,3,55.1,3c-1.3,0-2.4,1.1-2.4,2.4v3.3H26.3V5.3C26.3,4,25.2,3,23.9,3S21.5,4,21.5,5.3v3.3H11
	c-5.1,0-9.3,4.2-9.3,9.3v51.3c0,5.1,4.2,9.3,9.3,9.3h57c5.1,0,9.3-4.2,9.3-9.3V18C77.2,12.8,73.1,8.7,68,8.7L68,8.7z M11,13.4h10.6
	v3.3c0,1.3,1.1,2.4,2.4,2.4s2.4-1.1,2.4-2.4v-3.3h26.4v3.3c0,1.3,1.1,2.4,2.4,2.4c1.3,0,2.4-1.1,2.4-2.4v-3.3H68
	c2.5,0,4.5,2,4.5,4.5v5.3H6.4V18C6.4,15.4,8.5,13.4,11,13.4L11,13.4z M68,73.8H11c-2.5,0-4.5-2-4.5-4.5V27.9h66.1v41.3
	C72.5,71.7,70.5,73.8,68,73.8z M29.4,56.9c0.1,2.2-0.8,4.3-2.3,5.9c-1.1,1.1-2.4,1.9-3.8,2.3v1.1c0,1.3-1.1,2.4-2.4,2.4
	c-1.3,0-2.4-1.1-2.4-2.4v-1.1c-2.2-0.6-4-2.2-5.1-4.3c-0.6-1.2-0.1-2.6,1-3.2c1.2-0.6,2.6-0.1,3.2,1c0.6,1.3,1.9,2,3.3,2
	c1,0,2-0.4,2.7-1.2c0.7-0.7,1-1.6,1-2.5c-0.1-1.9-1.5-2.7-4.8-4.2c-1.6-0.7-3.2-1.4-4.6-2.5c-1.8-1.4-2.8-3.3-2.8-5.5
	c-0.1-2.2,0.7-4.3,2.3-5.9c1.1-1.1,2.4-1.9,3.9-2.3v-1.1c0-1.3,1.1-2.4,2.4-2.4s2.4,1.1,2.4,2.4v1.1c2.2,0.6,4.1,2.2,5.1,4.3
	c0.6,1.2,0.1,2.6-1,3.2c-1.2,0.6-2.6,0.1-3.2-1c-0.6-1.3-1.9-2-3.3-2c-1,0-2.1,0.4-2.8,1.2c-0.7,0.7-1,1.6-1,2.4
	c0.1,1.7,1.5,2.5,4.6,3.9C24.9,49.9,29.3,51.8,29.4,56.9L29.4,56.9z M45.6,48.3h-8.3c-1.3,0-2.4,1.1-2.4,2.4v15.5
	c0,1.3,1.1,2.4,2.4,2.4h8.3c1.3,0,2.4-1.1,2.4-2.4V50.7C48,49.4,46.9,48.3,45.6,48.3z M43.3,63.8h-3.6V53.1h3.6V63.8z M64.2,33.2
	h-8.3c-1.3,0-2.4,1.1-2.4,2.4v30.7c0,1.3,1.1,2.4,2.4,2.4h8.3c1.3,0,2.4-1.1,2.4-2.4V35.5C66.5,34.2,65.5,33.2,64.2,33.2z
	 M61.8,63.8h-3.6V37.9h3.6V63.8z"/>
</svg>
