<svg xmlns="http://www.w3.org/2000/svg" viewBox="0 0 82.84 84.43"><defs><style>.cls-1{fill:#c82127;}</style></defs><g id="Layer_2" data-name="Layer 2"><g id="Layer_1-2" data-name="Layer 1"><path class="cls-1" d="M43.91,4,56.44,10.6l-14.6,6.87L29.27,10.34,43.91,4m.15-4L21.16,9.91,41.68,21.54,64.56,10.78,44.06,0Z"/><path class="cls-1" d="M24.78,16.12,38,23.63,37.61,43,24.78,34.74V16.12M21.16,9.91v26.8L41.09,49.5l.59-28L21.16,9.91Z"/><polygon class="cls-1" points="64.56 10.78 62.8 35.42 41.09 49.5 41.68 21.54 64.56 10.78"/><polygon class="cls-1" points="31.61 27.33 26.49 24.42 26.49 16.77 50.69 4.21 55.92 7 31.88 18.51 31.61 27.33"/><path class="cls-1" d="M22.19,40.07l12.22,6.42-14.24,6.7L7.91,46.25l14.28-6.18m.15-3.91L0,45.82,20,57.17l22.31-10.5-20-10.51Z"/><path class="cls-1" d="M3.53,51.88,16.44,59.2,16,78.06,3.53,70V51.88M0,45.82V72L19.43,84.43,20,57.17,0,45.82Z"/><polygon class="cls-1" points="42.32 46.67 40.61 70.7 19.43 84.44 20.02 57.17 42.32 46.67"/><polygon class="cls-1" points="10.19 62.82 5.19 59.98 5.19 52.51 28.8 40.27 33.9 42.99 10.45 54.21 10.19 62.82"/><path class="cls-1" d="M62.71,38.76l12.21,6.43-14.24,6.7-12.25-7,14.28-6.18m.15-3.91L40.52,44.52l20,11.34,22.31-10.5-20-10.51Z"/><path class="cls-1" d="M44.05,50.57,57,57.89l-.4,18.87-12.51-8V50.57m-3.53-6V70.66L60,83.13l.58-27.27-20-11.34Z"/><polygon class="cls-1" points="82.84 45.36 81.13 69.39 59.95 83.13 60.53 55.86 82.84 45.36"/><polygon class="cls-1" points="50.71 61.51 45.71 58.67 45.71 51.21 69.32 38.96 74.42 41.68 50.97 52.9 50.71 61.51"/></g></g></svg>