<svg xmlns="http://www.w3.org/2000/svg" viewBox="0 0 85.67 80.79"><defs><style>.cls-1{fill:#c82127;}</style></defs><g id="Layer_2" data-name="Layer 2"><g id="Layer_1-2" data-name="Layer 1"><path class="cls-1" d="M34.67,23.94H15.38a1.26,1.26,0,1,1,0-2.51H34.67a1.26,1.26,0,1,1,0,2.51Z"/><path class="cls-1" d="M28.18,14.5H21.7a1.26,1.26,0,1,1,0-2.51h6.48a1.26,1.26,0,1,1,0,2.51Z"/><path class="cls-1" d="M34.67,33.38H15.38a1.26,1.26,0,1,1,0-2.51H34.67a1.26,1.26,0,1,1,0,2.51Z"/><path class="cls-1" d="M34.67,42.82H15.38a1.26,1.26,0,1,1,0-2.51H34.67a1.26,1.26,0,1,1,0,2.51Z"/><path class="cls-1" d="M34.67,52.26H15.38a1.26,1.26,0,1,1,0-2.51H34.67a1.26,1.26,0,1,1,0,2.51Z"/><path class="cls-1" d="M70.62,33.38H51.33a1.26,1.26,0,1,1,0-2.51H70.62a1.26,1.26,0,1,1,0,2.51Z"/><path class="cls-1" d="M70.62,42.82H51.33a1.26,1.26,0,1,1,0-2.51H70.62a1.26,1.26,0,1,1,0,2.51Z"/><path class="cls-1" d="M70.62,52.26H51.33a1.26,1.26,0,1,1,0-2.51H70.62a1.26,1.26,0,1,1,0,2.51Z"/><path class="cls-1" d="M79.44,6.49V0h-29a8.78,8.78,0,0,0-7.53,4.28A8.79,8.79,0,0,0,35.35,0h-29V6.49H0V67H32.32c.32,0,7.76-.08,9,7l.17,2.9,0,1.64v1.06a1.26,1.26,0,0,0,2.52,0v-.94h0V74C45.36,66.87,53,66.94,53.39,67H85.67V6.49Zm-37.86,62a12.21,12.21,0,0,0-9.29-4H2.52V9h3.8V61.05H31.39c7.91,0,9.84,5.07,10.19,6.28Zm0-6c-1.85-2-5-4-10.23-4H8.84v-56H35.35a6.27,6.27,0,0,1,6.27,6.27ZM68,2.52V19.1l-3.54-4.42L60.88,19.1V2.52ZM44.14,8.79a6.27,6.27,0,0,1,6.27-6.27h8V26.27l6.06-7.57,6.06,7.57V2.52h6.43v56H54.37c-5.25,0-8.39,2-10.23,4Zm39,55.64H53.42a12.56,12.56,0,0,0-9.32,3.88v-.72c.06-.27,1.46-6.54,10.26-6.54H79.44V9h3.72Z"/></g></g></svg>