<svg xmlns="http://www.w3.org/2000/svg" viewBox="0 0 79.04 78.46"><defs><style>.cls-1{fill:#262626;}</style></defs><g id="Layer_2" data-name="Layer 2"><g id="Layer_1-2" data-name="Layer 1"><path class="cls-1" d="M69.87,78.46H9.17A9.18,9.18,0,0,1,0,69.29V9.17A9.18,9.18,0,0,1,9.17,0h60.7A9.18,9.18,0,0,1,79,9.17V69.29A9.18,9.18,0,0,1,69.87,78.46ZM9.17,4.14a5,5,0,0,0-5,5V69.29a5,5,0,0,0,5,5h60.7a5,5,0,0,0,5-5V9.17a5,5,0,0,0-5-5Z"/><rect class="cls-1" x="12.03" y="17.7" width="4.8" height="4.8"/><rect class="cls-1" x="19.76" y="17.7" width="47.21" height="4.8" rx="2.07"/><rect class="cls-1" x="12.03" y="30.61" width="4.8" height="4.8"/><rect class="cls-1" x="19.76" y="30.61" width="47.21" height="4.8" rx="2.07"/><rect class="cls-1" x="12.03" y="43.52" width="4.8" height="4.8"/><rect class="cls-1" x="19.76" y="43.52" width="47.21" height="4.8" rx="2.07"/><rect class="cls-1" x="12.03" y="56.42" width="4.8" height="4.8"/><rect class="cls-1" x="19.76" y="56.42" width="47.21" height="4.8" rx="2.07"/></g></g></svg>