<svg xmlns="http://www.w3.org/2000/svg" viewBox="0 0 72.58 82.57"><g id="Layer_2" data-name="Layer 2"><g id="Layer_1-2" data-name="Layer 1"><path d="M50.07,54.56C58.86,40.77,57.76,42.49,58,42.13A26.4,26.4,0,0,0,62.9,26.77,26.61,26.61,0,1,0,14.71,42.33L22.5,54.56C14.17,55.84,0,59.66,0,68.06c0,3.06,2,7.43,11.53,10.83,6.65,2.38,15.44,3.68,24.76,3.68,17.42,0,36.29-4.91,36.29-14.51C72.58,59.65,58.42,55.84,50.07,54.56ZM18.75,39.67l-.08-.13a21.77,21.77,0,1,1,35.42-.24c-.24.31,1-1.58-17.8,27.89ZM36.29,77.74c-19,0-31.45-5.6-31.45-9.68,0-2.74,6.38-7.26,20.52-9L34.25,73a2.4,2.4,0,0,0,2,1.12,2.43,2.43,0,0,0,2-1.12L47.21,59c14.15,1.76,20.53,6.28,20.53,9C67.74,72.11,55.43,77.74,36.29,77.74Z"/><path d="M48.38,26.77a12.1,12.1,0,1,0-12.09,12.1A12.1,12.1,0,0,0,48.38,26.77ZM29,26.77A7.26,7.26,0,1,1,36.29,34,7.27,7.27,0,0,1,29,26.77Z"/></g></g></svg>