<svg xmlns="http://www.w3.org/2000/svg" viewBox="0 0 79.04 81.3"><g id="Layer_2" data-name="Layer 2"><g id="Layer_1-2" data-name="Layer 1"><path d="M67.47,13.83A39.56,39.56,0,0,0,23,5.89l.82-2.1a2.78,2.78,0,1,0-5.18-2l-3.43,8.77a3.81,3.81,0,0,0,2.41,5l9,2.82a2.71,2.71,0,0,0,.83.13,2.78,2.78,0,0,0,.84-5.43l-4.44-1.39A33.93,33.93,0,1,1,9.21,26.45a2.78,2.78,0,0,0-5-2.51A39.53,39.53,0,0,0,39.52,81.3,39.53,39.53,0,0,0,67.47,13.83Z"/><path d="M39.52,48.77a2.25,2.25,0,0,0,0,4.5,2.25,2.25,0,0,0,0-4.5Z"/><path d="M60.36,56.74a7.67,7.67,0,0,0,0-7.77L46.27,24.55a7.76,7.76,0,0,0-13.48,0L18.67,49a7.8,7.8,0,0,0,6.75,11.69H53.59A7.77,7.77,0,0,0,60.36,56.74ZM57.29,55a4.25,4.25,0,0,1-3.71,2.15H25.41A4.18,4.18,0,0,1,21.74,55a4.25,4.25,0,0,1,0-4.29L35.85,26.29a4.24,4.24,0,0,1,7.36,0L57.32,50.74A4.18,4.18,0,0,1,57.29,55Z"/><path d="M39,33a2.43,2.43,0,0,0-1.73,2.45c.05.72.09,1.44.15,2.15.15,2.71.3,5.36.46,8.07a1.65,1.65,0,0,0,1.68,1.59,1.68,1.68,0,0,0,1.68-1.64A15.07,15.07,0,0,1,41.26,44c.1-1.74.21-3.48.31-5.21,0-1.13.15-2.25.2-3.38a2.82,2.82,0,0,0-.2-1.12A2.26,2.26,0,0,0,39,33Z"/></g></g></svg>