<svg xmlns="http://www.w3.org/2000/svg" viewBox="0 0 78.44 80.68"><g id="Layer_2" data-name="Layer 2"><g id="Layer_1-2" data-name="Layer 1"><path d="M34.55,25.36a2.76,2.76,0,0,0-2.76,2.76v15a7.78,7.78,0,0,0,7.77,7.77h10a2.76,2.76,0,1,0,0-5.52h-10a2.25,2.25,0,0,1-2.25-2.25v-15a2.76,2.76,0,0,0-2.76-2.76Z"/><path d="M67,13.73A39.25,39.25,0,0,0,22.79,5.84l.81-2.08a2.76,2.76,0,0,0-5.14-2l-3.4,8.71a3.76,3.76,0,0,0,2.38,5l8.92,2.8a2.66,2.66,0,0,0,.83.13A2.76,2.76,0,0,0,28,13l-4.4-1.38A33.67,33.67,0,1,1,9.14,26.25a2.76,2.76,0,1,0-4.92-2.49,39.22,39.22,0,0,0,35,56.92A39.22,39.22,0,0,0,67,13.73Z"/></g></g></svg>