<svg xmlns="http://www.w3.org/2000/svg" viewBox="0 0 79.25 79.24"><g id="Layer_2" data-name="Layer 2"><g id="Layer_1-2" data-name="Layer 1"><g id="Line"><path d="M71.33,79.24H25.22a7.91,7.91,0,0,1-7.92-7.92V70a22.33,22.33,0,0,1,0-43.51V7.92A7.92,7.92,0,0,1,25.22,0H57.41A8,8,0,0,1,63,2.33L76.92,16.22A7.93,7.93,0,0,1,79.25,22V71.32A7.92,7.92,0,0,1,71.33,79.24ZM21.62,70.6v.72a3.6,3.6,0,0,0,3.6,3.6H71.33a3.6,3.6,0,0,0,3.6-3.6V24.49H62.68a7.92,7.92,0,0,1-7.92-7.92V4.32H25.22a3.6,3.6,0,0,0-3.6,3.6v18h.72a22.34,22.34,0,0,1,0,44.67Zm.72-40.34a18,18,0,1,0,18,18,18,18,0,0,0-18-18ZM59.08,4.73V16.57a3.6,3.6,0,0,0,3.6,3.6H74.52a3.61,3.61,0,0,0-.66-.89L60,5.39A3.61,3.61,0,0,0,59.08,4.73Zm6.48,54.34H51.16a2.16,2.16,0,1,1,0-4.32h14.4a2.16,2.16,0,0,1,0,4.32ZM18,54.75A2.09,2.09,0,0,1,16.58,54a2.15,2.15,0,0,1,0-2.88l3.68-3.69V39.62a2.17,2.17,0,0,1,4.33,0v8.65A2.13,2.13,0,0,1,24,49.79L19.46,54A2.13,2.13,0,0,1,18,54.75Zm47.54-7.2H54a2.17,2.17,0,0,1,0-4.33H65.56a2.17,2.17,0,0,1,0,4.33Zm0-11.53H51.16a2.16,2.16,0,1,1,0-4.32h14.4a2.16,2.16,0,0,1,0,4.32ZM45.39,24.49H36.75a2.16,2.16,0,1,1,0-4.32h8.64a2.16,2.16,0,0,1,0,4.32Z"/></g></g></g></svg>