<svg xmlns="http://www.w3.org/2000/svg" viewBox="0 0 79.04 79.04"><g id="Layer_2" data-name="Layer 2"><g id="Layer_1-2" data-name="Layer 1"><path d="M74.1,0H4.94A5,5,0,0,0,0,4.94v56a5,5,0,0,0,4.94,4.94H24.7v3.29H21.41a1.65,1.65,0,0,0-1.65,1.65V77.4A1.65,1.65,0,0,0,21.41,79H57.64a1.65,1.65,0,0,0,1.64-1.64V70.81a1.65,1.65,0,0,0-1.64-1.65h-3.3V65.87H74.1A5,5,0,0,0,79,60.93v-56A5,5,0,0,0,74.1,0ZM65.87,59.28H59.28a1.65,1.65,0,0,1,0-3.29h6.59a1.65,1.65,0,1,1,0,3.29Zm9.88-9.88H3.29V4.94A1.65,1.65,0,0,1,4.94,3.29H74.1a1.65,1.65,0,0,1,1.65,1.65Z"/><path d="M47.76,24.7H45a1.61,1.61,0,0,0-1.19.51l-4.3,4.56-4.3-4.56A1.59,1.59,0,0,0,34,24.7H31.29c-5.35,0-9.88,4.15-9.88,9.07v9a1.65,1.65,0,0,0,1.64,1.64H56a1.66,1.66,0,0,0,1.65-1.64v-9C57.64,28.85,53.11,24.7,47.76,24.7Z"/><circle cx="39.52" cy="16.09" r="8.23"/></g></g></svg>