<svg xmlns="http://www.w3.org/2000/svg" viewBox="0 0 78.09 77.6"><g id="Layer_2" data-name="Layer 2"><g id="Layer_1-2" data-name="Layer 1"><path d="M77.79,41.56,69.72,27.48a2.26,2.26,0,0,0-1.07-1l-.1,0-14.7-5.55a15.7,15.7,0,1,0-29.55.17L9.57,26.47h0a2.24,2.24,0,0,0-1.2,1L.3,41.56a2.29,2.29,0,0,0,1.16,3.27l6.6,2.56v17.5A2.3,2.3,0,0,0,9.58,67L38.52,77.46a2.22,2.22,0,0,0,1.55,0L69,67a2.29,2.29,0,0,0,1.51-2.15V47.2l6.11-2.37a2.29,2.29,0,0,0,1.16-3.27Zm-38.74-37A11.13,11.13,0,1,1,27.92,15.7,11.13,11.13,0,0,1,39.05,4.58ZM5.59,41.52l5.79-10.09,24.53,8.88L29.76,50.9ZM37,72,12.64,63.28V49.17l17.28,6.71a2.43,2.43,0,0,0,.83.15,2.27,2.27,0,0,0,2-1.14L37,47.59Zm2.29-35.38-22.21-8,9.47-3.45A15.69,15.69,0,0,0,51.69,25l9.5,3.59ZM66,63.28l-24.4,8.79V48l3.78,6.87a2.31,2.31,0,0,0,2.84,1L66,49Zm1.56-19.82-.2.08L48.38,50.89,42.55,40.32l24.16-8.89L72.5,41.52Z"/><path d="M35.46,21a2.28,2.28,0,0,0,3.23,0l6.93-6.93a2.28,2.28,0,0,0-3.23-3.23l-5.32,5.31-1.29-1.29a2.29,2.29,0,1,0-3.23,3.24Z"/></g></g></svg>