<?xml version="1.0" encoding="utf-8"?>
<!-- Generator: Adobe Illustrator 26.5.0, SVG Export Plug-In . SVG Version: 6.00 Build 0)  -->
<svg version="1.1" id="Layer_1" xmlns="http://www.w3.org/2000/svg" xmlns:xlink="http://www.w3.org/1999/xlink" x="0px" y="0px"
	 viewBox="0 0 78.9 81.5" style="enable-background:new 0 0 78.9 81.5;" xml:space="preserve">
<g>
	<g>
		<path d="M67.4,2.4H24.6c-3,0-5.5,2.5-5.5,5.5v3.5h-5c-3,0-5.5,2.5-5.5,5.5v57.4c0,3,2.5,5.5,5.5,5.5h42.8c3,0,5.5-2.5,5.5-5.5
			v-3.5h5c3,0,5.5-2.5,5.5-5.5V8C72.9,4.9,70.5,2.4,67.4,2.4z M58,74.4c0,0.6-0.5,1.1-1.1,1.1H14.1c-0.6,0-1.1-0.5-1.1-1.1V17
			c0-0.6,0.5-1.1,1.1-1.1h5v49.4c0,3,2.5,5.5,5.5,5.5H58L58,74.4L58,74.4z M68.5,65.3c0,0.6-0.5,1.1-1.1,1.1H24.6
			c-0.6,0-1.1-0.5-1.1-1.1V8c0-0.6,0.5-1.1,1.1-1.1h42.8c0.6,0,1.1,0.5,1.1,1.1L68.5,65.3L68.5,65.3z"/>
		<path d="M62.2,16.2H29.8c-1.2,0-2.2,1-2.2,2.2c0,1.2,1,2.2,2.2,2.2h32.4c1.2,0,2.2-1,2.2-2.2C64.4,17.1,63.5,16.2,62.2,16.2z"/>
		<path d="M62.2,26.7H29.8c-1.2,0-2.2,1-2.2,2.2c0,1.2,1,2.2,2.2,2.2h32.4c1.2,0,2.2-1,2.2-2.2C64.4,27.7,63.5,26.7,62.2,26.7z"/>
		<path d="M62.2,37.2H29.8c-1.2,0-2.2,1-2.2,2.2c0,1.2,1,2.2,2.2,2.2h32.4c1.2,0,2.2-1,2.2-2.2C64.4,38.2,63.5,37.2,62.2,37.2z"/>
		<path d="M62.2,47.7H29.8c-1.2,0-2.2,1-2.2,2.2c0,1.2,1,2.2,2.2,2.2h32.4c1.2,0,2.2-1,2.2-2.2C64.4,48.7,63.5,47.7,62.2,47.7z"/>
	</g>
</g>
</svg>
