<?xml version="1.0" encoding="utf-8"?>
<!-- Generator: Adobe Illustrator 26.5.0, SVG Export Plug-In . SVG Version: 6.00 Build 0)  -->
<svg version="1.1" id="Layer_1" xmlns="http://www.w3.org/2000/svg" xmlns:xlink="http://www.w3.org/1999/xlink" x="0px" y="0px"
	 viewBox="0 0 78.9 81.5" style="enable-background:new 0 0 78.9 81.5;" xml:space="preserve">
<path d="M22.6,77.6c-2.4,0-4.4-2-4.4-4.4V21.3c0-2.4,2-4.4,4.4-4.4h5.2h0c0.2,0,0.3,0,0.5,0.1l0,0V4.4v0c0-0.3,0.2-0.5,0.5-0.5h0
	h18.5h0c0.3,0,0.5,0.2,0.5,0.5v0v12.5c0.1,0,0.2,0,0.2,0h4.7c2.4,0,4.4,2,4.4,4.4v12.4c0.1-0.1,0.3-0.1,0.4-0.1h0h2.3
	c0.6,0,1,0.5,1,1v26.9c0,0.6-0.5,1-1,1h-2.3h0c-0.2,0-0.3,0-0.5-0.1l0,0v10.7c0,2.4-2,4.4-4.4,4.4H22.6z M45.1,67.7v3.5
	c0,0.3,0.2,0.5,0.5,0.5h4.1c0.3,0,0.5-0.2,0.5-0.5v-3.5c0-0.3-0.2-0.5-0.5-0.5h-4.1C45.3,67.2,45.1,67.4,45.1,67.7L45.1,67.7z
	 M35.4,67.7v3.5c0,0.3,0.2,0.5,0.5,0.5H40c0.3,0,0.5-0.2,0.5-0.5v-3.5c0-0.3-0.2-0.5-0.5-0.5h-4.1C35.7,67.2,35.4,67.4,35.4,67.7
	L35.4,67.7z M25.7,67.7v3.5v0c0,0.3,0.2,0.5,0.5,0.5h4.1c0.3,0,0.5-0.2,0.5-0.5v-3.5c0-0.3-0.2-0.5-0.5-0.5h-4.1
	C26,67.2,25.7,67.4,25.7,67.7L25.7,67.7z M45.1,59.8v3.5c0,0.3,0.2,0.5,0.5,0.5h4.1c0.3,0,0.5-0.2,0.5-0.5v-3.5v0
	c0-0.3-0.2-0.5-0.5-0.5h0h-4.1h0C45.3,59.3,45.1,59.5,45.1,59.8L45.1,59.8L45.1,59.8z M35.4,59.8v3.5c0,0.3,0.2,0.5,0.5,0.5H40
	c0.3,0,0.5-0.2,0.5-0.5v-3.5v0c0-0.3-0.2-0.5-0.5-0.5h0h-4.1h0C35.7,59.3,35.4,59.5,35.4,59.8L35.4,59.8z M25.7,59.8v3.5v0
	c0,0.3,0.2,0.5,0.5,0.5h4.1c0.3,0,0.5-0.2,0.5-0.5v-3.5v0c0-0.3-0.2-0.5-0.5-0.5h0h-4.1C26,59.3,25.7,59.5,25.7,59.8L25.7,59.8z
	 M45.1,51.9v3.5v0c0,0.3,0.2,0.5,0.5,0.5h0h4.1h0c0.3,0,0.5-0.2,0.5-0.5v0v-3.5c0-0.3-0.2-0.5-0.5-0.5h-4.1
	C45.3,51.4,45.1,51.6,45.1,51.9L45.1,51.9z M35.4,51.9v3.5v0c0,0.3,0.2,0.5,0.5,0.5h0H40h0c0.3,0,0.5-0.2,0.5-0.5v0v-3.5
	c0-0.3-0.2-0.5-0.5-0.5h-4.1C35.7,51.4,35.4,51.6,35.4,51.9L35.4,51.9z M25.7,51.9v3.5v0c0,0.3,0.2,0.5,0.5,0.5h4.1h0
	c0.3,0,0.5-0.2,0.5-0.5v0v-3.5c0-0.3-0.2-0.5-0.5-0.5h-4.1C26,51.4,25.7,51.6,25.7,51.9L25.7,51.9z M25.1,31.3v15.1v0
	c0,0.3,0.2,0.5,0.5,0.5h0h23.8h0c0.3,0,0.5-0.2,0.5-0.5v0V31.3c0-0.3-0.2-0.5-0.5-0.5H25.6C25.3,30.8,25.1,31,25.1,31.3L25.1,31.3z
	 M23.5,23v3.6v0c0,0.9,0.7,1.6,1.6,1.6h0h25.8c0.9,0,1.6-0.7,1.6-1.6v0V23c0-0.9-0.7-1.6-1.6-1.6h-3v3.1h1.5v0.5H26.6v-0.5h1h0
	c0.3,0,0.5-0.1,0.7-0.2l0,0v-2.8c-0.2-0.1-0.4-0.2-0.7-0.2c0,0,0,0,0,0h-2.5C24.2,21.5,23.5,22.2,23.5,23L23.5,23z"/>
</svg>
