<svg xmlns="http://www.w3.org/2000/svg" viewBox="0 0 85.14 64.73"><defs><style>.cls-1,.cls-2{fill:#c82127;}.cls-2{font-size:38.51px;font-family:Constantia-Bold, Constantia;font-weight:700;}</style></defs><g id="Layer_2" data-name="Layer 2"><g id="Layer_1-2" data-name="Layer 1"><path class="cls-1" d="M83.14,26.25h2V4.62A4.62,4.62,0,0,0,80.53,0H4.62A4.62,4.62,0,0,0,0,4.62V26.25H2A5.83,5.83,0,0,1,2,37.91H0v22.2a4.62,4.62,0,0,0,4.62,4.62H80.53a4.62,4.62,0,0,0,4.61-4.62V37.91h-2a5.83,5.83,0,0,1,0-11.66Zm-2,15.45V60.11a.61.61,0,0,1-.61.62H4.62A.62.62,0,0,1,4,60.11V41.7A9.83,9.83,0,0,0,4,22.45V4.62A.62.62,0,0,1,4.62,4H80.53a.61.61,0,0,1,.61.62V22.45a9.83,9.83,0,0,0,0,19.25Z"/><rect class="cls-1" x="18.33" y="14.03" width="45.16" height="4"/><rect class="cls-1" x="18.33" y="30.36" width="29.73" height="4"/><rect class="cls-1" x="18.33" y="46.19" width="25.39" height="4"/><text class="cls-2" transform="translate(52.74 51.4)">$</text></g></g></svg>