<?xml version="1.0" encoding="utf-8"?>
<!-- Generator: Adobe Illustrator 26.5.0, SVG Export Plug-In . SVG Version: 6.00 Build 0)  -->
<svg version="1.1" id="Layer_1" xmlns="http://www.w3.org/2000/svg" xmlns:xlink="http://www.w3.org/1999/xlink" x="0px" y="0px"
	 viewBox="0 0 78.9 81.5" style="enable-background:new 0 0 78.9 81.5;" xml:space="preserve">
<path d="M41.3,11.7c-5.8,0.8-11.4,3.6-15.5,7.7l0,0c-0.9,0.9-1.7,1.8-2.4,2.8h8.4C34.2,18.7,37.4,15.2,41.3,11.7z M7.1,37.4h39.6
	c1.6,0,2.9,1.3,2.9,2.9v26.1c0,1.6-1.3,2.9-2.9,2.9H7.1c-1.6,0-2.9-1.3-2.9-2.9V40.3C4.2,38.7,5.5,37.4,7.1,37.4z M13.8,62.5
	c-0.5,0-0.9-0.4-0.9-0.9c0-0.5,0.4-0.9,0.9-0.9h9.4c0.5,0,0.9,0.4,0.9,0.9c0,0.5-0.4,0.9-0.9,0.9H13.8z M13.8,58.2
	c-0.5,0-0.9-0.4-0.9-0.9s0.4-0.9,0.9-0.9h13.9c0.5,0,0.9,0.4,0.9,0.9c0,0.5-0.4,0.9-0.9,0.9H13.8z M34.3,55.3c1.4,0,2.6,0.7,3.3,1.7
	c0.8-1,2-1.7,3.3-1.7c2.3,0,4.1,1.9,4.1,4.1c0,2.3-1.9,4.1-4.1,4.1c-1.4,0-2.6-0.7-3.3-1.7c-0.8,1-2,1.7-3.3,1.7
	c-2.3,0-4.1-1.9-4.1-4.1C30.2,57.1,32,55.3,34.3,55.3L34.3,55.3z M6,43.6h41.9v-3.3c0-0.6-0.5-1.1-1.1-1.1H7.1
	c-0.6,0-1.1,0.5-1.1,1.1C6,40.3,6,43.6,6,43.6z M47.9,51.8H6v14.7c0,0.6,0.5,1.1,1.1,1.1h39.6c0.6,0,1.1-0.5,1.1-1.1L47.9,51.8
	L47.9,51.8z M68.8,52.5c0.1,0,0.1,0,0.2,0c2.1-3.8,3.3-7.8,3.6-12.1h-8c-0.2,4.1-1.4,8.1-3.6,12.1H68.8z M67,55.4h-7.9
	c-0.9,1.4-2,2.7-3.2,4.1v-7.1h1.6c2.5-4,3.9-8.1,4.1-12.1h-5.7v-3h5.7c-0.4-4-1.9-8-4.5-12.1H46.7v6.5h-3v-6.5H33.4
	c-1.4,2.2-2.5,4.3-3.2,6.5H27c0.7-2.2,1.6-4.3,2.9-6.5h-8.5c-1.2,2-2.1,4.2-2.7,6.5h-3.1c0.8-3.5,2.4-6.9,4.4-9.9
	c1.1-1.6,2.3-3.1,3.7-4.5c5.7-5.7,13.4-8.9,21.5-8.9c2.1,0,4.1,0.2,6.1,0.6C59,10.6,66,15.3,70.4,21.8c3.4,5.1,5.2,10.8,5.2,17
	c0,6.2-1.8,11.9-5.2,17c-3.3,4.9-7.9,8.6-13.3,11c-0.4,0.2-0.8,0.3-1.2,0.5v-3.2C60.3,62.2,64.1,59.3,67,55.4L67,55.4z M64.5,37.3h8
	C72.3,33,71.1,29,69,25.2h-8.5C62.9,29.3,64.2,33.3,64.5,37.3z M35.5,22.2h8.3v-8.7C40.4,16.5,37.7,19.4,35.5,22.2L35.5,22.2z
	 M46.7,22.2h8.3c-2.2-2.9-4.9-5.7-8.3-8.7V22.2z M58.6,22.2H67c-4-5.2-9.9-9-16.3-10.2c-0.5-0.1-1.1-0.2-1.6-0.3
	C53,15.2,56.2,18.7,58.6,22.2z"/>
</svg>
