<?xml version="1.0" encoding="utf-8"?>
<!-- Generator: Adobe Illustrator 26.5.0, SVG Export Plug-In . SVG Version: 6.00 Build 0)  -->
<svg version="1.1" id="Layer_1" xmlns="http://www.w3.org/2000/svg" xmlns:xlink="http://www.w3.org/1999/xlink" x="0px" y="0px"
	 viewBox="0 0 79 85.6" style="enable-background:new 0 0 79 85.6;" xml:space="preserve">
<style type="text/css">
	.st0{display:none;}
	.st1{display:inline;}
	.st2{fill:#C82127;}
</style>
<g id="Layer_2_00000117669624939883070000000008441108203700760470_" class="st0">
	<g id="Layer_1-2" class="st1">
		<path class="st2" d="M75,25.7v35.4L42.5,78.8V43.1L75,25.7 M79,19L38.5,40.7v44.9L79,63.5V19z"/>
		<path class="st2" d="M4,25.6L34.5,43v35.6L4,61V25.6 M0,18.7v44.7l38.5,22.2V40.7L0,18.7z"/>
		<path class="st2" d="M40.5,4.4l29.7,14.7l-31.7,17L8.7,19L40.5,4.4 M40.6,0L0,18.7l38.5,22L79,19L40.6,0z"/>
		<polygon class="st2" points="57,50.5 56.3,31.3 23,12.2 25.6,7.6 62,28.1 62.5,46.7 		"/>
	</g>
</g>
<g transform="translate(0.000000,200.000000) scale(0.100000,-0.100000)">
	<path d="M180.7,1915.7l-27.3-27.3v-112.7v-112.7l-38.9-1.5c-42.3-1.1-50.9-4.9-67.4-26.9c-7.5-9.7-7.9-15.7-9-149.3
		c-0.7-76.7,0-144.5,1.1-151.2s6-16.8,10.9-22.5c7.5-8.6,9-15.7,10.1-41.5c1.5-29.9,2.2-31.8,13.8-42.3l12-10.9h314.4h314.4l12,10.9
		c11.6,10.5,12.4,12.4,13.5,42.3c1.1,23.6,3,32.9,8.2,38.6c13.8,15.3,15,25.8,15,167.3c0,154.2,0,155-25.5,174.4
		c-12,9.4-16.8,10.1-52,11.2l-38.6,1.5v112.7v112.7l-27.3,27.3c-15,15-29.6,27.3-32.2,27.3s-14.2-9-25.8-20.2l-21.3-20.6l-21.3,20.6
		c-11.6,11.2-23.2,20.2-25.5,20.2c-2.2,0-13.8-9-25.5-20.2l-21.3-20.6l-21.3,20.6c-11.6,11.2-22.8,20.2-25.5,20.2
		c-2.2,0-13.8-9-25.5-20.2l-21.3-20.6l-21.3,20.6c-11.6,11.2-23.2,20.2-25.5,20.2c-2.2,0-13.8-9-25.5-20.2l-21.3-20.6l-21.3,20.6
		c-11.6,11.2-23.2,20.2-25.8,20.2C210.2,1943.1,196,1930.7,180.7,1915.7z M235.7,1892.5c11.2-11.2,22.1-20.6,24-20.6
		c2.2,0,13.5,9.7,25.5,21.3l21.7,21.3l21.7-21.3c12-11.6,23.2-21.3,25.1-21.3c1.9,0,13.1,9.7,25.1,21.3l21.7,21.3l21.7-21.3
		c12-11.6,23.2-21.3,25.1-21.3c1.9,0,13.1,9.7,25.1,21.3l21.7,21.3l21.7-21.3c12-11.6,23.2-21.3,25.1-21.3c1.9,0,13.1,9.7,25.1,21.3
		l21.7,21.3l16.8-16.5l16.8-16.5v-156.5v-156.5H400.4H179.5v156.1v156.1l15.7,16.1c8.6,9,16.8,16.1,18,16.1
		C214.3,1913.1,224.5,1903.8,235.7,1892.5z M153.3,1604.3v-35.6h-22.5h-22.5v35.6v35.6h22.5h22.5V1604.3z M692.3,1604.3v-35.6h-22.5
		h-22.5v35.6v35.6h22.5h22.5V1604.3z M86.7,1592.4l1.1-44.2h312.5h312.5l1.1,44.2c0.4,24,2.2,43.8,4.1,43.8c1.5,0,6.7-4.5,12-9.7
		l9-9.7v-142.2v-142.2l-12.4-10.9l-12-10.9H400.4H86l-12,10.9l-12.4,10.9v142.2v142.2l9,9.7c5.2,5.2,10.5,9.7,12,9.7
		C84.5,1636.1,86.3,1616.3,86.7,1592.4z M714.8,1266c0-16.5-1.5-22.5-6-24.3c-7.5-3-609.4-3-616.8,0c-4.5,1.9-6,7.9-6,24.3v22.1
		h314.4h314.4V1266z"/>
	<path d="M217.3,1844.3c-3-3.4-4.1-34.1-3.4-103.7l1.1-98.8h185.3h185.3l1.1,98.8c0.7,69.6-0.4,100.3-3.4,103.7
		c-3.4,4.5-35.9,5.2-183,5.2S220.7,1848.7,217.3,1844.3z M564.3,1743.9l0.7-81.6H400.4H235.7v79.7c0,44.2,1.1,81.2,2.6,82.3
		c1.1,1.5,74.9,2.2,163.6,1.9l161.3-1.1L564.3,1743.9z"/>
	<path d="M258.9,1743.9l1.1-57.3l12.4-1.1l12-1.1v58v58.4h-13.1h-13.5L258.9,1743.9z"/>
	<path d="M295.6,1742.8c0-49,0.7-58,5.6-58c4.9,0,5.6,9,5.6,58s-0.7,58-5.6,58C296.3,1800.8,295.6,1791.9,295.6,1742.8z"/>
	<path d="M318,1742.8c0-49,0.7-58,5.6-58c4.9,0,5.6,9,5.6,58s-0.7,58-5.6,58C318.8,1800.8,318,1791.9,318,1742.8z"/>
	<path d="M340.5,1742.4c0-53.5,0.4-58,6.7-56.9c5.6,1.1,6.4,7.5,7.5,58.4c0.7,55,0.7,56.9-6.7,56.9
		C340.9,1800.8,340.5,1798.6,340.5,1742.4z"/>
	<path d="M366.7,1742.8v-58h16.8h16.8v58v58h-16.8h-16.8V1742.8z"/>
	<path d="M411.6,1742.8v-58h11.2h11.2v58v58h-11.2h-11.2V1742.8z"/>
	<path d="M446,1743.9c1.1-50.9,1.9-57.3,7.9-58.4s6.4,3.4,6.4,56.9c0,56.1-0.4,58.4-7.5,58.4C445.3,1800.8,445.3,1799,446,1743.9z"
		/>
	<path d="M471.5,1742.8v-58h11.2h11.2v58v58h-11.2h-11.2V1742.8z"/>
	<path d="M505.2,1742.8v-58h11.2h11.2v58v58h-11.2h-11.2V1742.8z"/>
	<path d="M213.2,1602.5c0-10.1,1.1-11.2,11.2-11.2c10.1,0,11.2,1.1,11.2,11.2s-1.1,11.2-11.2,11.2
		C214.3,1613.7,213.2,1612.6,213.2,1602.5z"/>
	<path d="M258.9,1603.6c0.7-8.6,3-10.9,13.5-11.6c11.2-1.1,12-0.4,12,10.1c0,10.9-1.1,11.6-13.5,11.6S257.8,1612.9,258.9,1603.6z"/>
	<path d="M306.8,1602.5v-11.2h140.4h140.4v11.2v11.2H447.2H306.8V1602.5z"/>
	<path d="M107.7,1420.6c-22.5-12-29.2-48.3-12.4-68.5c12.7-14.6,31.8-21,47.5-15.7c37.8,13.1,46.8,55.8,17.6,80.8
		C147.4,1428,124.1,1429.5,107.7,1420.6z M146.6,1397.7c8.2-7.5,9-24.7,0.7-32.6c-13.1-13.5-38.9-2.6-38.9,15.7
		C108.4,1401.1,131.6,1411.2,146.6,1397.7z"/>
	<path d="M522.4,1415.3c-21.3-19.1-22.5-46.8-2.2-67c37.4-37.1,97.3,8.6,73,55.8C580.4,1428.8,544.1,1434.4,522.4,1415.3z
		 M568.8,1396.6c9-9,9.4-18,1.5-29.2c-8.6-12.7-31.4-10.5-38.2,3.7C520.9,1395.1,550.1,1415.3,568.8,1396.6z"/>
	<path d="M640.3,1417.2c-29.2-25.1-20.2-67.7,17.6-80.8c25.8-9,56.9,13.8,56.9,41.9c0,8.2-2.6,19.8-5.6,25.8
		C697.2,1427.3,660.9,1434,640.3,1417.2z M685.6,1397.7c14.6-13.1,4.1-38.6-16.1-38.6c-13.1,0-22.1,9-22.1,21.3
		C647.4,1401.1,670.6,1411.6,685.6,1397.7z"/>
</g>
</svg>
