<svg xmlns="http://www.w3.org/2000/svg" viewBox="0 0 78.98 85.55"><defs><style>.cls-1{fill:#c82127;}</style></defs><g id="Layer_2" data-name="Layer 2"><g id="Layer_1-2" data-name="Layer 1"><path class="cls-1" d="M75,25.69v35.4L42.5,78.81V43.07L75,25.69M79,19,38.5,40.68V85.55L79,63.46V19Z"/><path class="cls-1" d="M4,25.56,34.5,43V78.62L4,61V25.56m-4-6.9V63.32L38.5,85.55V40.68L0,18.66Z"/><path class="cls-1" d="M40.51,4.43,70.24,19.15l-31.68,17L8.73,19.05,40.51,4.43M40.57,0,0,18.66l38.5,22L79,19,40.57,0Z"/><polygon class="cls-1" points="57.03 50.48 56.33 31.27 22.96 12.22 25.62 7.57 62.05 28.07 62.48 46.71 57.03 50.48"/></g></g></svg>