<svg xmlns="http://www.w3.org/2000/svg" viewBox="0 0 79.27 66.11"><defs><style>.cls-1{stroke:#000;stroke-miterlimit:10;}</style></defs><g id="Layer_2" data-name="Layer 2"><g id="Layer_1-2" data-name="Layer 1"><path class="cls-1" d="M13.25.91H6.38v52H.5v6.87H6.38v5.88h6.87V59.73H78.77V52.86H13.25Zm64.52,53v4.87H12.25v5.88H7.38V58.73H1.5V53.86H7.38V1.91h4.87v52Z"/><path class="cls-1" d="M35.19,18l5.64,5.64-3.67,3.67H49.44V15l-3.67,3.67L35.19,8.11,31,12.34,19.33.71,14.39,5.64,31,22.21ZM19.33,2.12,31,13.75l4.23-4.23L45.77,20.1l2.67-2.67v8.86H39.57l2.68-2.67-7.06-7L31,20.8,15.81,5.64Z"/><path class="cls-1" d="M63.08,30.82v8.35H70V30.82ZM69,38.17H64.08V31.82H69Z"/><path class="cls-1" d="M71.89,40.14a1,1,0,0,1-1,1H62.11a1,1,0,0,1-1-1V30.82H54.26v20.1H78.77V30.82H71.89Zm1,0V31.82h4.88v18.1H55.26V31.82h4.88v8.32a2,2,0,0,0,2,2h8.81A2,2,0,0,0,72.89,40.14Z"/><path class="cls-1" d="M70,7.7H63.08V16H70ZM69,15H64.08V8.7H69Z"/><path class="cls-1" d="M71.89,7.7V17a1,1,0,0,1-1,1H62.11a1,1,0,0,1-1-1V7.7H54.26V27.8H78.77V7.7Zm5.88,19.1H55.26V8.7h4.88V17a2,2,0,0,0,2,2h8.81a2,2,0,0,0,2-2V8.7h4.88Z"/><path class="cls-1" d="M27.82,30.82v20.1h24.5V30.82H45.45v9.32a1,1,0,0,1-1,1H35.67a1,1,0,0,1-1-1V30.82Zm7.85,11.29h8.81a2,2,0,0,0,2-2V31.82h4.87v18.1H28.82V31.82H33.7v8.32A2,2,0,0,0,35.67,42.11Z"/><path class="cls-1" d="M36.63,30.82v8.35h6.88V30.82Zm5.88,7.35H37.63V31.82h4.88Z"/></g></g></svg>