<svg xmlns="http://www.w3.org/2000/svg" viewBox="0 0 81.92 81.82"><g id="Layer_2" data-name="Layer 2"><g id="Layer_1-2" data-name="Layer 1"><g id="Statistics-Stats-Report-Financial-Economy"><path d="M55.91,36.82h2.73A1.36,1.36,0,0,1,60,38.18h2.73a4.09,4.09,0,0,0-4.09-4.09V32.73H55.91v1.36a4.09,4.09,0,1,0,0,8.18h2.73a1.37,1.37,0,0,1,0,2.73H55.91a1.36,1.36,0,0,1-1.36-1.36H51.82a4.09,4.09,0,0,0,4.09,4.09v1.36h2.73V47.73a4.09,4.09,0,0,0,0-8.18H55.91a1.37,1.37,0,0,1,0-2.73Z"/><path d="M80.73,62.66,78,60a1.36,1.36,0,0,0,1.09-1.31V53.18a1.36,1.36,0,0,0-1.36-1.36h-6a5.48,5.48,0,0,0-3.58-1.36,5.08,5.08,0,0,0-1.39.2,13.59,13.59,0,0,0,.28-19.22A14.38,14.38,0,0,0,65.46,30V15a1.32,1.32,0,0,0-.36-.91L52.83.45a1.34,1.34,0,0,0-1-.45h-45A6.82,6.82,0,0,0,0,6.82H0V75a6.82,6.82,0,0,0,6.82,6.82h63a4.1,4.1,0,0,0,4.07-3.58l1.2-9.63a4.07,4.07,0,0,0,5.6-.17,4.12,4.12,0,0,0,0-5.78Zm-4.36-8.11v2.73h-1L73.6,55.56a5.73,5.73,0,0,0-.15-1Zm-8.19-1.37a2.73,2.73,0,1,1-2.72,2.73A2.73,2.73,0,0,1,68.18,53.18Zm0-12.27A10.91,10.91,0,1,1,57.28,30,10.9,10.9,0,0,1,68.18,40.91ZM62.92,57.28H51.63a5.06,5.06,0,0,0,0-2.73H62.92A5.06,5.06,0,0,0,62.92,57.28ZM49.09,55.91a2.73,2.73,0,1,1-2.72-2.73A2.72,2.72,0,0,1,49.09,55.91Zm4.09-51L61,13.64H54.55a1.37,1.37,0,0,1-1.37-1.37ZM6.82,79.09A4.09,4.09,0,0,1,2.73,75V6.82A4.09,4.09,0,0,1,6.82,2.73H50.46v9.54a4.09,4.09,0,0,0,4.09,4.09h8.18V28.42a13.62,13.62,0,0,0-15,22.24,5.08,5.08,0,0,0-1.39-.2,5.48,5.48,0,0,0-3.58,1.36h-6a1.36,1.36,0,0,0-1.36,1.36v5.46A1.36,1.36,0,0,0,36.55,60l-2.73,2.71a4.12,4.12,0,0,0,0,5.8,4.08,4.08,0,0,0,5.59.15l1.2,9.64a4,4,0,0,0,.21.84ZM41.69,58.67a5.52,5.52,0,0,0,1.92,1.92l-5.93,5.93a1.36,1.36,0,0,1-1.92,0,1.33,1.33,0,0,1,0-1.9l0,0Zm-3.51-1.39V54.55H41.1a5.73,5.73,0,0,0-.15,1l-1.73,1.72ZM71.23,77.89a1.39,1.39,0,0,1-1.37,1.2H44.69a1.4,1.4,0,0,1-1.37-1.18L41.87,66.19l4.85-4.86A5.42,5.42,0,0,0,49.94,60H64.61a5.42,5.42,0,0,0,3.22,1.33l4.85,4.86Zm7.58-11.37a1.38,1.38,0,0,1-1.94,0l-5.93-5.93a5.43,5.43,0,0,0,1.92-1.92l5.93,5.93a1.34,1.34,0,0,1,0,1.9Z"/><path d="M55.91,64.09h2.73V75H55.91Z"/><path d="M62.72,74.85l1.36-10.91,2.71.34L65.42,75.19Z"/><path d="M47.72,64.25l2.71-.34,1.36,10.9-2.7.34Z"/><path d="M15,20.46H12.27a1.37,1.37,0,0,1-1.36-1.37H8.18a4.09,4.09,0,0,0,4.09,4.09v1.37H15V23.18A4.09,4.09,0,1,0,15,15H12.27a1.37,1.37,0,0,1,0-2.73H15a1.36,1.36,0,0,1,1.36,1.37h2.73A4.09,4.09,0,0,0,15,9.55V8.18H12.27V9.55a4.09,4.09,0,0,0,0,8.18H15a1.37,1.37,0,0,1,0,2.73Z"/><path d="M24.55,20.46H46.37v2.72H24.55Z"/><path d="M24.55,15h2.72v2.73H24.55Z"/><path d="M30,15H46.37v2.73H30Z"/><path d="M36.82,30H31.37A1.37,1.37,0,0,0,30,31.37v15H27.27V36.82a1.36,1.36,0,0,0-1.36-1.36H20.46a1.36,1.36,0,0,0-1.37,1.36v9.55H16.36V39.55A1.36,1.36,0,0,0,15,38.18H9.55a1.37,1.37,0,0,0-1.37,1.37v9.54h30V31.37A1.36,1.36,0,0,0,36.82,30ZM13.64,46.37H10.91V40.91h2.73Zm10.91,0H21.82V38.18h2.73Zm10.91,0H32.73V32.73h2.73Z"/><path d="M8.18,54.55H27.27v2.73H8.18Z"/><path d="M8.18,60H19.09v2.73H8.18Z"/><path d="M21.82,60h5.45v2.73H21.82Z"/><path d="M8.18,65.46H27.27v2.72H8.18Z"/><path d="M8.18,70.91H27.27v2.73H8.18Z"/></g></g></g></svg>