<svg xmlns="http://www.w3.org/2000/svg" viewBox="0 0 78.88 65.43"><g id="Layer_2" data-name="Layer 2"><g id="Layer_1-2" data-name="Layer 1"><path d="M14,65.43H5.82V59.61H0V51.46H5.82V0H14V51.46H78.88v8.15H14ZM8.15,63.1h3.49V57.28h64.9V53.79H11.64V2.33H8.15V53.79H2.33v3.49H8.15Z"/><path d="M44.47,28,32.94,16.43l-4.19,4.19L18.28,10.15,14,14.46V0H28.42l-4.3,4.31L28.75,9l4.19-4.19L50.31,22.12ZM32.94,13.14,44.47,24.66,47,22.12,32.94,8.05l-4.19,4.19L20.82,4.31l2-2H16.3v6.5l2-2L28.75,17.33Z"/><path d="M70.14,39.24H62V29.63h8.15Zm-5.82-2.33h3.49V32H64.32Z"/><path d="M78.88,50.88H53.26V29.63h8.15v9.9a.29.29,0,0,0,.29.29h8.73a.29.29,0,0,0,.29-.29v-9.9h8.16ZM55.59,48.55h21V32H73.05v7.57a2.62,2.62,0,0,1-2.62,2.62H61.7a2.63,2.63,0,0,1-2.62-2.62V32H55.59Z"/><path d="M70.14,16.33H62V6.72h8.15ZM64.32,14h3.49V9.05H64.32Z"/><path d="M78.88,28H53.26V6.72h8.15v9.9a.29.29,0,0,0,.29.29h8.73a.29.29,0,0,0,.29-.29V6.72h8.16ZM55.59,25.64h21V9.05H73.05v7.57a2.62,2.62,0,0,1-2.62,2.62H61.7a2.62,2.62,0,0,1-2.62-2.62V9.05H55.59Z"/><path d="M52.68,50.88H27.07V29.63h8.15v9.9a.29.29,0,0,0,.29.29h8.73a.29.29,0,0,0,.29-.29v-9.9h8.15ZM29.4,48.55h21V32H46.86v7.57a2.63,2.63,0,0,1-2.62,2.62H35.51a2.62,2.62,0,0,1-2.62-2.62V32H29.4Z"/><path d="M44,39.24H35.8V29.63H44Zm-5.82-2.33h3.49V32H38.13Z"/></g></g></svg>