<svg xmlns="http://www.w3.org/2000/svg" viewBox="0 0 82 85.17"><defs><style>.cls-1{font-size:56.14px;font-family:Constantia-Bold, Constantia;font-weight:700;}.cls-1,.cls-2{fill:#c82127;}</style></defs><g id="Layer_2" data-name="Layer 2"><g id="Layer_1-2" data-name="Layer 1"><text class="cls-1" transform="translate(9.3 56.4)">$</text><path class="cls-2" d="M70.87,24.7H38a2,2,0,0,0,0,4H70.87a2,2,0,0,0,0-4Z"/><path class="cls-2" d="M70.87,34.92H38a2,2,0,1,0,0,4H70.87a2,2,0,0,0,0-4Z"/><path class="cls-2" d="M70.87,45.15H38a2,2,0,0,0,0,4H70.87a2,2,0,0,0,0-4Z"/><path class="cls-2" d="M61.63,56H38a2,2,0,0,0,0,4H61.63a2,2,0,0,0,0-4Z"/><path class="cls-2" d="M76.87,0H5.13A5.13,5.13,0,0,0,0,5.13V79.77l4.87-3.7,9.14,9,9.46-8.86,8.72,8.94,8.86-9,8.77,8.22,8.85-8.24,9,8.84L77.68,76.2,82,80.76V5.13A5.13,5.13,0,0,0,76.87,0ZM78,70.72l-.06-.07L67.79,79.58l-9-8.92L49.83,79,41,70.64l-8.74,8.82L23.6,70.63l-9.52,8.91L5.21,70.79,4,71.71V5.13A1.14,1.14,0,0,1,5.13,4H76.87A1.14,1.14,0,0,1,78,5.13Z"/><circle class="cls-2" cx="12.59" cy="13.24" r="2.6"/><circle class="cls-2" cx="26.84" cy="13.24" r="2.6"/><circle class="cls-2" cx="41" cy="13.24" r="2.6"/><circle class="cls-2" cx="55.24" cy="13.24" r="2.6"/><circle class="cls-2" cx="69.35" cy="13.24" r="2.6"/></g></g></svg>