<svg xmlns="http://www.w3.org/2000/svg" viewBox="0 0 78.61 78.61"><defs><style>.cls-1{fill-rule:evenodd;}</style></defs><g id="Layer_2" data-name="Layer 2"><g id="Layer_1-2" data-name="Layer 1"><g id="Icon"><path class="cls-1" d="M48,71.78a8.55,8.55,0,0,0,16.75,0h8.71a5.13,5.13,0,1,0,0-10.26h0a1.7,1.7,0,0,1-1.7-1.7V49.56A15.41,15.41,0,0,0,61.52,35.05V32.47a5.13,5.13,0,0,0-10.25,0v2.58A15.41,15.41,0,0,0,41,49.56V59.82a1.7,1.7,0,0,1-1.7,1.7h0a5.13,5.13,0,0,0,0,10.26Zm3.54,0a5.13,5.13,0,0,0,9.67,0Zm4.83-41a1.7,1.7,0,0,0-1.2.5,1.72,1.72,0,0,0-.5,1.21v3.85A1.7,1.7,0,0,1,53.4,38a12,12,0,0,0-9,11.59V59.82a5.12,5.12,0,0,1-5.12,5.12h0a1.7,1.7,0,0,0-1.21.5,1.71,1.71,0,0,0,0,2.42,1.7,1.7,0,0,0,1.21.5H73.48a1.7,1.7,0,0,0,1.21-.5,1.71,1.71,0,0,0,0-2.42,1.7,1.7,0,0,0-1.21-.5h0a5.12,5.12,0,0,1-5.12-5.12V49.56a12,12,0,0,0-9-11.59,1.7,1.7,0,0,1-1.29-1.65V32.47a1.72,1.72,0,0,0-.5-1.21A1.7,1.7,0,0,0,56.39,30.76Z"/><path class="cls-1" d="M58.1,22.22V8.54A8.54,8.54,0,0,0,49.56,0h-41A8.55,8.55,0,0,0,0,8.54V63.23a8.55,8.55,0,0,0,8.54,8.55h21.1a1.71,1.71,0,1,0,0-3.42H8.54a5.13,5.13,0,0,1-5.12-5.13V8.54A5.12,5.12,0,0,1,8.54,3.42h41a5.13,5.13,0,0,1,5.13,5.12V22.22a1.71,1.71,0,1,0,3.41,0Z"/><path class="cls-1" d="M45.31,30.31A22.19,22.19,0,0,0,34.18,49.56a1.71,1.71,0,0,0,3.42,0A18.77,18.77,0,0,1,47,33.27a1.71,1.71,0,1,0-1.71-3Z"/><path class="cls-1" d="M78.61,49.56A22.19,22.19,0,0,0,67.48,30.31a1.71,1.71,0,1,0-1.71,3,18.77,18.77,0,0,1,9.42,16.29,1.71,1.71,0,1,0,3.42,0Z"/><path class="cls-1" d="M15.38,10.25a5.13,5.13,0,1,0,5.13,5.13A5.13,5.13,0,0,0,15.38,10.25Zm0,3.42a1.71,1.71,0,1,1-1.71,1.71A1.72,1.72,0,0,1,15.38,13.67Z"/><path class="cls-1" d="M15.38,23.93a5.13,5.13,0,1,0,5.13,5.12A5.13,5.13,0,0,0,15.38,23.93Zm0,3.41a1.71,1.71,0,1,1-1.71,1.71A1.72,1.72,0,0,1,15.38,27.34Z"/><path class="cls-1" d="M15.38,37.6a5.13,5.13,0,1,0,5.13,5.12A5.13,5.13,0,0,0,15.38,37.6Zm0,3.41a1.71,1.71,0,1,1-1.71,1.71A1.72,1.72,0,0,1,15.38,41Z"/><path class="cls-1" d="M15.38,51.27a5.13,5.13,0,1,0,5.13,5.12A5.13,5.13,0,0,0,15.38,51.27Zm0,3.42a1.71,1.71,0,1,1-1.71,1.7A1.71,1.71,0,0,1,15.38,54.69Z"/><path class="cls-1" d="M25.63,17.09H46.17a1.71,1.71,0,1,0,0-3.42H25.63a1.71,1.71,0,0,0,0,3.42Z"/><path class="cls-1" d="M25.63,30.76H39.31a1.71,1.71,0,0,0,0-3.42H25.63a1.71,1.71,0,0,0,0,3.42Z"/><path class="cls-1" d="M25.63,44.43h5.13a1.71,1.71,0,0,0,0-3.42H25.63a1.71,1.71,0,0,0,0,3.42Z"/><path class="cls-1" d="M25.63,58.1H35.89a1.71,1.71,0,1,0,0-3.41H25.63a1.71,1.71,0,0,0,0,3.41Z"/></g></g></g></svg>