<svg xmlns="http://www.w3.org/2000/svg" viewBox="0 0 79.39 79.39"><g id="Layer_2" data-name="Layer 2"><g id="Layer_1-2" data-name="Layer 1"><circle cx="38.76" cy="26.36" r="1.55"/><circle cx="38.76" cy="32.56" r="1.55"/><path d="M78.94,16,63.43.45A1.57,1.57,0,0,0,62.33,0H23.26a4.65,4.65,0,0,0-4.65,4.65V9.38c-.52-.05-1-.08-1.55-.08a17.06,17.06,0,0,0,0,34.12c.51,0,1,0,1.55-.07V74.74a4.65,4.65,0,0,0,4.65,4.65H74.74a4.66,4.66,0,0,0,4.65-4.65V17.06A1.59,1.59,0,0,0,78.94,16ZM63.88,5.29,74.1,15.51H63.88Zm-45.27,7.2A14,14,0,0,1,30.92,24.81H18.61ZM17.06,40.32a14,14,0,0,1-1.55-27.83V26.36a1.54,1.54,0,0,0,1.55,1.55H30.92A14,14,0,0,1,17.06,40.32ZM76.29,74.74a1.56,1.56,0,0,1-1.55,1.55H23.26a1.55,1.55,0,0,1-1.55-1.55v-32a17.06,17.06,0,0,0,0-32.82V4.65A1.55,1.55,0,0,1,23.26,3.1H60.78v14a1.56,1.56,0,0,0,1.55,1.55h14Z"/><path d="M39.7,12.4H56.13a1.55,1.55,0,0,0,0-3.1H39.7a1.55,1.55,0,1,0,0,3.1Z"/><path d="M39.7,18.61H56.13a1.55,1.55,0,0,0,0-3.1H39.7a1.55,1.55,0,1,0,0,3.1Z"/><path d="M17.06,34.11A7.76,7.76,0,0,1,9.3,26.36a1.55,1.55,0,0,0-3.1,0A10.87,10.87,0,0,0,17.06,37.21a1.55,1.55,0,1,0,0-3.1Z"/><path d="M63.42,45.9a4.66,4.66,0,0,0,.79,2.6L53.45,60.05a4.64,4.64,0,0,0-1.35-.2,4.74,4.74,0,0,0-1.87.39l-4.85-6a4.59,4.59,0,0,0,.52-2.13,4.66,4.66,0,1,0-8.83,2l-5.65,6.13a4.63,4.63,0,1,0,2.22,2.17l5.65-6.13a4.67,4.67,0,0,0,2,.43,4.53,4.53,0,0,0,1.86-.39l4.85,6a4.71,4.71,0,0,0-.51,2.13,4.65,4.65,0,1,0,9.3,0A4.61,4.61,0,0,0,56,61.91L66.72,50.35a4.65,4.65,0,1,0-3.3-4.45Zm-34,20.16A1.56,1.56,0,1,1,31,64.5,1.56,1.56,0,0,1,29.46,66.06ZM41.25,53.65A1.55,1.55,0,1,1,42.8,52.1,1.54,1.54,0,0,1,41.25,53.65ZM52.1,66.06a1.56,1.56,0,1,1,1.55-1.56A1.55,1.55,0,0,1,52.1,66.06ZM69.62,45.9a1.55,1.55,0,1,1-1.55-1.55A1.55,1.55,0,0,1,69.62,45.9Z"/><path d="M43.42,26.36A1.54,1.54,0,0,0,45,27.91H68.54a1.55,1.55,0,0,0,0-3.1H45A1.54,1.54,0,0,0,43.42,26.36Z"/><path d="M68.54,34.11a1.55,1.55,0,0,0,0-3.1H45a1.55,1.55,0,1,0,0,3.1Z"/></g></g></svg>