<svg xmlns="http://www.w3.org/2000/svg" viewBox="0 0 79.58 79.58"><g id="Layer_2" data-name="Layer 2"><g id="Layer_1-2" data-name="Layer 1"><circle cx="39.79" cy="42.9" r="1.55"/><path d="M30.46,41.34a1.56,1.56,0,0,0,0,3.11h1.71a7.71,7.71,0,0,0,1.13,2.73l-1.21,1.21a1.57,1.57,0,0,0,0,2.2,1.55,1.55,0,0,0,2.2,0l1.21-1.21a7.79,7.79,0,0,0,2.73,1.13v1.71a1.56,1.56,0,1,0,3.11,0V50.51a7.71,7.71,0,0,0,2.73-1.13l1.21,1.21a1.56,1.56,0,0,0,2.2-2.2l-1.21-1.21a7.53,7.53,0,0,0,1.13-2.73h1.71a1.56,1.56,0,1,0,0-3.11H47.4a7.61,7.61,0,0,0-1.13-2.73l1.21-1.21a1.55,1.55,0,0,0,0-2.2,1.57,1.57,0,0,0-2.2,0l-1.21,1.21a7.71,7.71,0,0,0-2.73-1.13V33.57a1.56,1.56,0,0,0-3.11,0v1.71a7.79,7.79,0,0,0-2.73,1.13L34.29,35.2a1.56,1.56,0,1,0-2.2,2.2l1.21,1.21a7.79,7.79,0,0,0-1.13,2.73Zm6-1.74h0a4.65,4.65,0,0,1,6.59,0h0a4.67,4.67,0,0,1,0,6.59h0a4.65,4.65,0,0,1-6.59,0h0a4.67,4.67,0,0,1,0-6.59Z"/><path d="M22.23,59.37a7.78,7.78,0,1,0-7.78,7.77A7.79,7.79,0,0,0,22.23,59.37ZM14.45,64a4.66,4.66,0,1,1,4.67-4.66A4.66,4.66,0,0,1,14.45,64Z"/><path d="M1.55,79.58h25.8A1.56,1.56,0,0,0,28.91,78,10.89,10.89,0,0,0,18,67.14H10.88A10.89,10.89,0,0,0,0,78,1.56,1.56,0,0,0,1.55,79.58Zm9.33-9.33H18a7.78,7.78,0,0,1,7.61,6.22H3.26a7.79,7.79,0,0,1,7.62-6.22Z"/><path d="M72.89,59.37a7.77,7.77,0,1,0-7.77,7.77A7.78,7.78,0,0,0,72.89,59.37ZM65.12,64a4.66,4.66,0,1,1,4.66-4.66A4.66,4.66,0,0,1,65.12,64Z"/><path d="M22.23,7.77a7.78,7.78,0,1,0-7.78,7.77A7.79,7.79,0,0,0,22.23,7.77Zm-7.78,4.66a4.66,4.66,0,1,1,4.67-4.66A4.66,4.66,0,0,1,14.45,12.43Z"/><path d="M0,26.42A1.56,1.56,0,0,0,1.55,28h25.8a1.56,1.56,0,0,0,1.56-1.56A10.89,10.89,0,0,0,18,15.54H10.88A10.89,10.89,0,0,0,0,26.42Zm18-7.77a7.78,7.78,0,0,1,7.61,6.22H3.26a7.79,7.79,0,0,1,7.62-6.22Z"/><path d="M72.89,7.77a7.77,7.77,0,1,0-7.77,7.77A7.78,7.78,0,0,0,72.89,7.77Zm-7.77,4.66a4.66,4.66,0,1,1,4.66-4.66A4.66,4.66,0,0,1,65.12,12.43Z"/><path d="M68.7,15.54H61.55A10.89,10.89,0,0,0,50.67,26.42,1.55,1.55,0,0,0,52.22,28H78a1.56,1.56,0,0,0,1.56-1.56A10.9,10.9,0,0,0,68.7,15.54ZM53.93,24.87a7.78,7.78,0,0,1,7.62-6.22H68.7a7.78,7.78,0,0,1,7.61,6.22Z"/><path d="M32,18a1.54,1.54,0,0,0,1.55,1.55h8.68L41.8,20a1.55,1.55,0,0,0,0,2.2,1.57,1.57,0,0,0,2.2,0l3.1-3.11a1.55,1.55,0,0,0,0-2.2L44,13.82A1.56,1.56,0,0,0,41.8,16l.45.45H33.57A1.55,1.55,0,0,0,32,18Z"/><path d="M47.56,61.55A1.56,1.56,0,0,0,46,60H37.32l.46-.45a1.56,1.56,0,1,0-2.2-2.2l-3.11,3.11a1.55,1.55,0,0,0,0,2.2l3.11,3.1a1.55,1.55,0,0,0,2.2-2.19l-.46-.46H46A1.56,1.56,0,0,0,47.56,61.55Z"/><path d="M14.45,48.49A1.55,1.55,0,0,0,16,46.94V36.39l.45.46a1.57,1.57,0,0,0,2.2,0,1.55,1.55,0,0,0,0-2.2l-3.11-3.11a1.54,1.54,0,0,0-2.19,0l-3.11,3.11a1.55,1.55,0,1,0,2.19,2.2l.46-.46V46.94A1.55,1.55,0,0,0,14.45,48.49Z"/><path d="M65.12,31.08a1.55,1.55,0,0,0-1.55,1.56V43.18l-.46-.45a1.55,1.55,0,0,0-2.2,0,1.57,1.57,0,0,0,0,2.2L64,48a1.57,1.57,0,0,0,1.1.45,1.55,1.55,0,0,0,1.1-.45l3.11-3.11a1.56,1.56,0,0,0-2.2-2.2l-.45.45V32.64A1.56,1.56,0,0,0,65.12,31.08Z"/><path d="M68.7,67.14H61.55A10.89,10.89,0,0,0,50.67,78a1.55,1.55,0,0,0,1.55,1.56h5.91a1.56,1.56,0,0,0,0-3.11h-4.2a7.78,7.78,0,0,1,7.62-6.22H68.7a7.78,7.78,0,0,1,7.61,6.22H72.12a1.56,1.56,0,1,0,0,3.11H78A1.56,1.56,0,0,0,79.58,78,10.9,10.9,0,0,0,68.7,67.14Z"/><circle cx="65.12" cy="78.02" r="1.55"/></g></g></svg>