<svg xmlns="http://www.w3.org/2000/svg" viewBox="0 0 79.3 76.05"><defs><style>.cls-1{stroke:#000;stroke-miterlimit:10;}</style></defs><g id="Layer_2" data-name="Layer 2"><g id="Layer_1-2" data-name="Layer 1"><path class="cls-1" d="M58,25.93l-2.55,2.55a3.44,3.44,0,0,0,2.43,5.88H69a3.44,3.44,0,0,0,3.44-3.44V19.81a3.44,3.44,0,0,0-5.88-2.43L64,19.93,45.82,1.74a4.24,4.24,0,1,0-6,6ZM41.33,3.24a2.1,2.1,0,0,1,1.49-.61,2.14,2.14,0,0,1,1.5.61L64,22.94l4.06-4.06a1.31,1.31,0,0,1,1.43-.29,1.33,1.33,0,0,1,.81,1.22V30.92A1.31,1.31,0,0,1,69,32.23H57.9A1.31,1.31,0,0,1,57,30L61,25.93,41.33,6.23a2.11,2.11,0,0,1,0-3Z"/><path class="cls-1" d="M59.49,41.68a5,5,0,0,0-5,5V66H75.63V46.72a5,5,0,0,0-5-5Zm14,5V63.9H56.58V46.72a2.92,2.92,0,0,1,2.91-2.91h11.1A2.91,2.91,0,0,1,73.5,46.72Z"/><path class="cls-1" d="M50.24,34a5,5,0,0,0-5-5H34.1a5,5,0,0,0-5,5V66H50.24ZM48.11,63.9H31.19V34a2.91,2.91,0,0,1,2.91-2.9H45.2A2.9,2.9,0,0,1,48.11,34Z"/><path class="cls-1" d="M24.85,21.33a5,5,0,0,0-5-5H8.71a5,5,0,0,0-5,5V66H24.85ZM22.72,63.9H5.8V21.33a2.92,2.92,0,0,1,2.91-2.91h11.1a2.92,2.92,0,0,1,2.91,2.91Z"/><path class="cls-1" d="M75.36,68.66H4a3.45,3.45,0,1,0,0,6.89H75.36a3.45,3.45,0,0,0,0-6.89Zm0,4.76H4a1.32,1.32,0,1,1,0-2.63H75.36a1.32,1.32,0,0,1,0,2.63Z"/></g></g></svg>