<svg xmlns="http://www.w3.org/2000/svg" viewBox="0 0 75.68 83.03"><g id="Layer_2" data-name="Layer 2"><g id="Layer_1-2" data-name="Layer 1"><path d="M40.62,37.43a1.21,1.21,0,0,0-1,.61l-4.33,7.52a4.25,4.25,0,0,0-5.67,3.69H17.69a1.22,1.22,0,0,0,0,2.44H30.12A4.26,4.26,0,1,0,37.21,47l4.11-7.14h7.54a1.22,1.22,0,0,0,.86-.36L58.21,31v2.44a1.22,1.22,0,0,0,2.43,0V28.08a1.21,1.21,0,0,0-1.21-1.21H54.05a1.22,1.22,0,0,0,0,2.43h2.44l-8.14,8.13Zm-6.81,14a1.83,1.83,0,1,1,1.83-1.82A1.83,1.83,0,0,1,33.81,51.4Z"/><path d="M19.66,41.48A14.82,14.82,0,0,0,34,30.3a1.22,1.22,0,1,0-2.36-.6,12.39,12.39,0,1,1,.2-5.17,1.21,1.21,0,1,0,2.39-.41,14.82,14.82,0,1,0-14.6,17.36Z"/><path d="M18.29,21.32a3.5,3.5,0,1,0-3.5,3.5A3.5,3.5,0,0,0,18.29,21.32Zm-3.5,1.07a1.07,1.07,0,1,1,0-2.13,1.07,1.07,0,0,1,0,2.13Z"/><path d="M24.53,35.48A3.5,3.5,0,1,0,21,32,3.5,3.5,0,0,0,24.53,35.48Zm0-4.56A1.07,1.07,0,1,1,23.47,32,1.06,1.06,0,0,1,24.53,30.92Z"/><path d="M15.48,35.36a1.1,1.1,0,0,0,.52.12,1.21,1.21,0,0,0,1.1-.69l7.31-15.22a1.22,1.22,0,1,0-2.19-1.06L14.91,33.74A1.21,1.21,0,0,0,15.48,35.36Z"/><path d="M73.65,8.17H70.31V2.84A2.84,2.84,0,0,0,67.48,0H11.26A2.84,2.84,0,0,0,8.42,2.84v7.69a19.64,19.64,0,0,0,0,32.24V80.19A2.84,2.84,0,0,0,11.26,83H67.48a2.84,2.84,0,0,0,2.83-2.84V33.89a1.22,1.22,0,0,0-2.43,0v46.3a.4.4,0,0,1-.4.41H11.26a.41.41,0,0,1-.41-.41v-36a19.67,19.67,0,1,0,0-35.15V2.84a.41.41,0,0,1,.41-.41H67.48a.4.4,0,0,1,.4.41V8.17H42.68a2,2,0,0,0-2,2V22.54a2,2,0,0,0,2,2h25.2v3.65a1.22,1.22,0,0,0,2.43,0V24.57h3.34a2,2,0,0,0,2-2V10.19a2,2,0,0,0-2-2ZM36.89,26.65A17.23,17.23,0,1,1,19.66,9.43,17.25,17.25,0,0,1,36.89,26.65Zm36.36-4.51H43.08V10.6H73.25Z"/><path d="M48.77,19.36a1.22,1.22,0,0,0,.88.37,1.19,1.19,0,0,0,.87-.37l3.55-3.66A1.21,1.21,0,1,0,52.33,14l-2.68,2.76-1.38-1.42A1.22,1.22,0,1,0,46.52,17Z"/><path d="M57,19.73h12a1.22,1.22,0,0,0,0-2.43H57a1.22,1.22,0,1,0,0,2.43Z"/><path d="M57,15.61h12a1.22,1.22,0,0,0,0-2.43H57a1.22,1.22,0,1,0,0,2.43Z"/><path d="M16.48,72a1.21,1.21,0,0,0,1.21,1.22H61A1.21,1.21,0,0,0,62.25,72V41.25a2,2,0,0,0-2-2H55a2,2,0,0,0-2,2v29.5h-3V47a2,2,0,0,0-2-2H42.86a2,2,0,0,0-2,2V70.75H37.9V58.45a2,2,0,0,0-2-2H30.68a2,2,0,0,0-2,2v12.3H25.72V68.27a1.22,1.22,0,0,0-2.44,0v2.48H18.91V57.42h4.37V62.6a1.22,1.22,0,0,0,2.44,0V57a2,2,0,0,0-2-2H18.5a2,2,0,0,0-2,2Zm39-30.3h4.37V70.75H55.45ZM43.27,47.39h4.37V70.75H43.27ZM31.09,58.85h4.37v11.9H31.09Z"/></g></g></svg>