<svg xmlns="http://www.w3.org/2000/svg" viewBox="0 0 78.16 71.32"><defs><style>.cls-1{stroke:#000;stroke-miterlimit:10;}</style></defs><g id="Layer_2" data-name="Layer 2"><g id="Layer_1-2" data-name="Layer 1"><path class="cls-1" d="M7.76,33.82a4.14,4.14,0,0,1-2.92-7.06l18-18L20.27,6.22A3.35,3.35,0,0,1,22.64.5h11A3.35,3.35,0,0,1,37,3.85v11a3.35,3.35,0,0,1-5.72,2.37l-2.55-2.56-18,18A4.13,4.13,0,0,1,7.76,33.82ZM22.64,2.5a1.34,1.34,0,0,0-.95,2.3l4,4L6.26,28.18a2.13,2.13,0,1,0,3,3l19.41-19.4,4,4a1.34,1.34,0,0,0,1.47.3A1.35,1.35,0,0,0,35,14.81v-11A1.34,1.34,0,0,0,33.6,2.5Z"/><path class="cls-1" d="M24.42,61.43H3.63v-19A4.93,4.93,0,0,1,8.55,37.5h11a4.92,4.92,0,0,1,4.91,4.92Zm-18.79-2H22.42v-17a2.92,2.92,0,0,0-2.91-2.92h-11a2.92,2.92,0,0,0-2.92,2.92Z"/><path class="cls-1" d="M49.48,61.43H28.69V29.89A4.91,4.91,0,0,1,33.6,25h11a4.92,4.92,0,0,1,4.92,4.91Zm-18.79-2H47.48V29.89A2.91,2.91,0,0,0,44.56,27h-11a2.91,2.91,0,0,0-2.91,2.91Z"/><path class="cls-1" d="M74.53,61.43H53.74V17.36a4.91,4.91,0,0,1,4.91-4.91h11a4.91,4.91,0,0,1,4.91,4.91Zm-18.79-2H72.53V17.36a2.92,2.92,0,0,0-2.91-2.91h-11a2.92,2.92,0,0,0-2.91,2.91Z"/><path class="cls-1" d="M74.31,70.82H3.85a3.35,3.35,0,1,1,0-6.7H74.31a3.35,3.35,0,0,1,0,6.7ZM3.85,66.12a1.35,1.35,0,0,0,0,2.7H74.31a1.35,1.35,0,0,0,0-2.7Z"/></g></g></svg>