<svg xmlns="http://www.w3.org/2000/svg" viewBox="0 0 79.04 46.71"><g id="Layer_2" data-name="Layer 2"><g id="Layer_1-2" data-name="Layer 1"><path d="M28.74,32.34A1.7,1.7,0,0,0,27,30.54H12.58a1.8,1.8,0,1,0,0,3.59H27A1.7,1.7,0,0,0,28.74,32.34Z"/><path d="M23.35,23.35a1.69,1.69,0,0,0-1.79-1.79H7.19a1.8,1.8,0,1,0,0,3.59H21.56A1.69,1.69,0,0,0,23.35,23.35Z"/><path d="M18,14.37a1.68,1.68,0,0,0-1.79-1.79H1.8A1.69,1.69,0,0,0,0,14.37a1.7,1.7,0,0,0,1.8,1.8H16.17A1.69,1.69,0,0,0,18,14.37Z"/><path d="M69,7.55l-19,14.55a5.69,5.69,0,0,1-6.65,0l-19-14.55a1.79,1.79,0,1,0-2.15,2.87L41.32,25a8.8,8.8,0,0,0,5.39,1.8A8.49,8.49,0,0,0,52.1,25l19-14.55A1.94,1.94,0,0,0,71.5,7.9,2,2,0,0,0,69,7.55Z"/><path d="M73.65,0H16.17a1.7,1.7,0,0,0-1.8,1.8,1.7,1.7,0,0,0,1.8,1.79H73.65a1.7,1.7,0,0,1,1.8,1.8V41.32a1.69,1.69,0,0,1-1.8,1.79H16.17a1.8,1.8,0,1,0,0,3.6H73.65A5.29,5.29,0,0,0,79,41.32V5.39A5.29,5.29,0,0,0,73.65,0Z"/><path d="M58,25.69a1.73,1.73,0,0,0,0,2.51L68.8,39a1.74,1.74,0,0,0,2.52,0,1.73,1.73,0,0,0,0-2.51L60.54,25.69A1.73,1.73,0,0,0,58,25.69Z"/></g></g></svg>