<svg width="24" height="24" viewBox="0 0 24 24" fill="none" xmlns="http://www.w3.org/2000/svg">
<path d="M12.0001 8.25C11.2584 8.25 10.5334 8.46993 9.91667 8.88199C9.29999 9.29404 8.81934 9.87971 8.53551 10.5649C8.25169 11.2502 8.17742 12.0042 8.32212 12.7316C8.46681 13.459 8.82396 14.1272 9.34841 14.6516C9.87286 15.1761 10.541 15.5332 11.2685 15.6779C11.9959 15.8226 12.7499 15.7484 13.4351 15.4645C14.1203 15.1807 14.706 14.7001 15.1181 14.0834C15.5301 13.4667 15.75 12.7417 15.75 12C15.7489 11.0058 15.3534 10.0526 14.6504 9.34964C13.9474 8.64663 12.9943 8.25117 12.0001 8.25ZM12.0001 14.25C11.555 14.25 11.12 14.118 10.75 13.8708C10.38 13.6236 10.0916 13.2722 9.92133 12.861C9.75103 12.4499 9.70648 11.9975 9.79329 11.561C9.88011 11.1246 10.0944 10.7237 10.4091 10.409C10.7237 10.0943 11.1246 9.88005 11.5611 9.79323C11.9976 9.70641 12.45 9.75097 12.8611 9.92127C13.2722 10.0916 13.6236 10.38 13.8709 10.75C14.1181 11.12 14.2501 11.555 14.2501 12C14.2494 12.5965 14.0121 13.1684 13.5903 13.5903C13.1685 14.0121 12.5966 14.2493 12.0001 14.25Z" fill="#4A4A4A"/>
<path d="M4.70512 7.3371C4.33633 7.19854 3.9281 7.20888 3.5668 7.36593C3.20549 7.52297 2.91945 7.81441 2.76917 8.17858C2.61889 8.54275 2.61618 8.9511 2.76159 9.31724C2.907 9.68338 3.18914 9.9786 3.54832 10.1404C3.91373 10.295 4.22549 10.5538 4.44468 10.8845C4.66387 11.2152 4.78077 11.6031 4.78077 11.9999C4.78077 12.3966 4.66387 12.7846 4.44468 13.1153C4.22549 13.446 3.91373 13.7048 3.54832 13.8593C3.18905 14.0212 2.90685 14.3164 2.76141 14.6827C2.61598 15.0489 2.61873 15.4573 2.76909 15.8215C2.91945 16.1858 3.20561 16.4772 3.56702 16.6342C3.92844 16.7912 4.33676 16.8014 4.70557 16.6627C5.07361 16.5128 5.47769 16.4748 5.8672 16.5536C6.25671 16.6323 6.61432 16.8242 6.89525 17.1053C7.17617 17.3863 7.36792 17.7441 7.44646 18.1336C7.52501 18.5231 7.48686 18.9272 7.3368 19.2952C7.19375 19.665 7.20263 20.0763 7.3615 20.4395C7.52037 20.8028 7.81635 21.0886 8.18497 21.2346C8.36957 21.311 8.56741 21.3503 8.7672 21.3503C9.05907 21.3524 9.34505 21.2682 9.58928 21.1084C9.83352 20.9486 10.0252 20.7202 10.1401 20.452C10.2947 20.0866 10.5535 19.7748 10.8842 19.5556C11.2149 19.3364 11.6028 19.2195 11.9996 19.2195C12.3963 19.2195 12.7843 19.3364 13.115 19.5556C13.4457 19.7748 13.7045 20.0866 13.859 20.452C14.0209 20.8112 14.3161 21.0934 14.6824 21.2389C15.0486 21.3843 15.457 21.3816 15.8212 21.2312C16.1855 21.0808 16.4769 20.7947 16.6339 20.4333C16.7909 20.0718 16.8011 19.6635 16.6624 19.2947C16.5125 18.9267 16.4745 18.5226 16.5533 18.1331C16.632 17.7436 16.8239 17.386 17.105 17.105C17.386 16.8241 17.7438 16.6324 18.1333 16.5538C18.5228 16.4753 18.9269 16.5134 19.2949 16.6635C19.6623 16.8062 20.0712 16.7985 20.4331 16.6422C20.7949 16.4859 21.0808 16.1935 21.2288 15.8281L20.5411 15.5293L19.8586 15.2737C19.2176 15.0119 18.5134 14.9454 17.8347 15.0826C17.156 15.2198 16.5331 15.5546 16.0441 16.045C15.5556 16.5375 15.2199 17.1607 15.0776 17.8397C14.9353 18.5186 14.9924 19.2243 15.2421 19.8715C14.9746 19.2327 14.5239 18.6875 13.947 18.3044C13.37 17.9214 12.6926 17.7178 12.0001 17.7192C11.306 17.7213 10.6275 17.9246 10.0466 18.3043C9.46567 18.6841 9.00727 19.2241 8.72685 19.8589C8.98855 19.2179 9.05497 18.5138 8.91775 17.8352C8.78053 17.1565 8.4458 16.5335 7.95562 16.0445C7.4631 15.556 6.83981 15.2204 6.16088 15.0781C5.48195 14.9358 4.77635 14.9929 4.12912 15.2425C4.76786 14.9749 5.31306 14.5241 5.696 13.9471C6.07894 13.3701 6.28248 12.6926 6.28095 12.0001C6.2788 11.306 6.07555 10.6275 5.69579 10.0466C5.31604 9.46567 4.77606 9.00727 4.1412 8.72685C4.7822 8.98871 5.48632 9.05521 6.16502 8.91798C6.84372 8.78076 7.4667 8.44594 7.95562 7.95562C8.44417 7.46314 8.77983 6.83985 8.92214 6.1609C9.06445 5.48196 9.00733 4.77634 8.75767 4.12912C9.02529 4.76786 9.47602 5.31306 10.053 5.696C10.6301 6.07894 11.3075 6.28248 12.0001 6.28095C12.6941 6.2788 13.3726 6.07555 13.9536 5.69579C14.5345 5.31604 14.9929 4.77606 15.2733 4.1412C15.0116 4.78223 14.9452 5.48631 15.0824 6.16497C15.2196 6.84364 15.5543 7.46661 16.0445 7.95562C16.5372 8.44392 17.1604 8.77941 17.8393 8.9217C18.5182 9.064 19.2238 9.00704 19.871 8.75767C19.2354 9.02472 18.6924 9.47295 18.3097 10.0465C17.9271 10.62 17.7217 11.2935 17.7192 11.983C17.7167 12.6725 17.9172 13.3474 18.2957 13.9237C18.6742 14.5 19.2139 14.9522 19.8476 15.2238C19.8497 15.23 19.8497 15.2367 19.8476 15.2428L20.5408 15.5289L21.23 15.8244L21.2341 15.8149C21.3872 15.4517 21.3909 15.0427 21.2445 14.6768C21.098 14.3108 20.8132 14.0174 20.4518 13.8601C20.0864 13.7055 19.7746 13.4467 19.5555 13.116C19.3363 12.7853 19.2194 12.3974 19.2194 12.0006C19.2194 11.6039 19.3363 11.2159 19.5555 10.8852C19.7746 10.5545 20.0864 10.2957 20.4518 10.1412C20.8111 9.97935 21.0933 9.68408 21.2387 9.31786C21.3842 8.95164 21.3814 8.54321 21.2311 8.17899C21.0807 7.81476 20.7945 7.52332 20.4331 7.36633C20.0717 7.20935 19.6634 7.19913 19.2946 7.33785C18.9265 7.48773 18.5225 7.52568 18.1329 7.44695C17.7434 7.36822 17.3858 7.1763 17.1049 6.89524C16.824 6.61417 16.6322 6.25647 16.5537 5.86692C16.4751 5.47737 16.5133 5.07331 16.6633 4.70535C16.802 4.33655 16.7918 3.92827 16.6347 3.5669C16.4777 3.20552 16.1863 2.91941 15.8221 2.76909C15.4579 2.61877 15.0495 2.61603 14.6833 2.76146C14.3171 2.9069 14.0219 3.18908 13.8601 3.54832C13.7055 3.91373 13.4467 4.22549 13.116 4.44468C12.7853 4.66387 12.3974 4.78077 12.0006 4.78077C11.6039 4.78077 11.2159 4.66387 10.8852 4.44468C10.5545 4.22549 10.2957 3.91373 10.1412 3.54832C9.97935 3.18905 9.68408 2.90685 9.31786 2.76141C8.95164 2.61598 8.54321 2.61873 8.17899 2.76909C7.81476 2.91945 7.52332 3.20561 7.36633 3.56702C7.20935 3.92844 7.19913 4.33676 7.33785 4.70557C7.48773 5.07361 7.52568 5.47769 7.44695 5.8672C7.36822 6.25671 7.1763 6.61432 6.89524 6.89525C6.61417 7.17617 6.25647 7.36792 5.86692 7.44646C5.47737 7.52501 5.07331 7.48686 4.70535 7.3368L4.70512 7.3371Z" fill="#4A4A4A"/>
</svg>
