<svg xmlns="http://www.w3.org/2000/svg" viewBox="0 0 78.74 78.74"><g id="Layer_2" data-name="Layer 2"><g id="Layer_1-2" data-name="Layer 1"><path d="M73.52,30.78,69.15,30A31.38,31.38,0,0,0,67,24.92l2.55-3.63a6.31,6.31,0,0,0-.7-8.08L65.53,9.85a6.3,6.3,0,0,0-8.08-.7L53.81,11.7a31,31,0,0,0-5.09-2.11L48,5.21A6.3,6.3,0,0,0,41.74,0H37a6.29,6.29,0,0,0-6.21,5.22L30,9.59a31.12,31.12,0,0,0-5.1,2.11L21.29,9.15a6.3,6.3,0,0,0-8.08.7L9.85,13.21a6.3,6.3,0,0,0-.7,8.08l2.55,3.63A30.27,30.27,0,0,0,9.59,30l-4.38.77A6.29,6.29,0,0,0,0,37v4.74A6.29,6.29,0,0,0,5.22,48l4.37.77a31.49,31.49,0,0,0,2.11,5.1L9.15,57.45a6.3,6.3,0,0,0,.7,8.08l3.36,3.36a6.3,6.3,0,0,0,8.08.7L24.92,67A30.27,30.27,0,0,0,30,69.15l.77,4.38A6.29,6.29,0,0,0,37,78.74h4.74A6.29,6.29,0,0,0,48,73.52,2,2,0,0,0,44,72.83a2.32,2.32,0,0,1-2.28,1.91H37a2.31,2.31,0,0,1-2.28-1.91l-1-5.6a2,2,0,0,0-1.44-1.59A26.76,26.76,0,0,1,25.8,63a2,2,0,0,0-2.15.09L19,66.32A2.31,2.31,0,0,1,16,66.06L12.68,62.7a2.32,2.32,0,0,1-.26-3l3.27-4.65a2,2,0,0,0,.09-2.15,27.19,27.19,0,0,1-2.69-6.5A2,2,0,0,0,11.51,45l-5.6-1A2.31,2.31,0,0,1,4,41.74V37a2.32,2.32,0,0,1,1.91-2.28l5.6-1a2,2,0,0,0,1.58-1.44,27.19,27.19,0,0,1,2.69-6.5,2,2,0,0,0-.1-2.16L12.42,19A2.31,2.31,0,0,1,12.68,16L16,12.68A2.31,2.31,0,0,1,19,12.42l4.65,3.27a2,2,0,0,0,2.16.09,26.76,26.76,0,0,1,6.5-2.68,2,2,0,0,0,1.45-1.59l1-5.6A2.31,2.31,0,0,1,37,4h4.74A2.32,2.32,0,0,1,44,5.91l1,5.6a2,2,0,0,0,1.44,1.59,26.76,26.76,0,0,1,6.5,2.68,2,2,0,0,0,2.15-.09l4.65-3.27a2.32,2.32,0,0,1,3,.26L66.06,16a2.32,2.32,0,0,1,.26,3l-3.27,4.65A2,2,0,0,0,63,25.8a27.16,27.16,0,0,1,2.68,6.5,2,2,0,0,0,1.59,1.45l5.6,1A2.31,2.31,0,0,1,74.74,37v4.74A2.32,2.32,0,0,1,72.83,44,2,2,0,0,0,73.52,48a6.31,6.31,0,0,0,5.22-6.22V37A6.31,6.31,0,0,0,73.52,30.78Z"/><path d="M73.06,60.21,60.27,47A8.16,8.16,0,0,1,58,40.58,19.09,19.09,0,0,0,40.63,19.9a19.72,19.72,0,0,0-3.35,0A3.74,3.74,0,0,0,35,21a3.87,3.87,0,0,0-.05,5.46l5.51,5.62a2.89,2.89,0,0,1,0,4.09h0l-4.27,4.18a2.88,2.88,0,0,1-4.09,0l-5.51-5.61a3.87,3.87,0,0,0-5.46-.06,3.77,3.77,0,0,0-1.11,2.3,19.09,19.09,0,0,0,16.92,21,19.74,19.74,0,0,0,3.35.07,8.13,8.13,0,0,1,6.4,2.4L59.4,73.58a2,2,0,0,0,2.87-2.78L49.48,57.62A12.23,12.23,0,0,0,39.94,54,15.08,15.08,0,0,1,23.86,40a14.71,14.71,0,0,1,0-2.3l5.28,5.38A6.9,6.9,0,0,0,34,45.15h.07a6.9,6.9,0,0,0,4.82-2L43.17,39a6.89,6.89,0,0,0,.1-9.74L38,23.86A15.09,15.09,0,0,1,54,37.93a14.7,14.7,0,0,1,0,2.3,12.2,12.2,0,0,0,3.42,9.6L70.19,63a2,2,0,0,0,2.87-2.79Z"/></g></g></svg>