<svg xmlns="http://www.w3.org/2000/svg" viewBox="0 0 78.53 75.23"><g id="Layer_2" data-name="Layer 2"><g id="Layer_1-2" data-name="Layer 1"><path d="M65.46,56.7a5.47,5.47,0,1,0,5.47,5.47A5.48,5.48,0,0,0,65.46,56.7Zm0,7.87a2.4,2.4,0,1,1,2.4-2.4A2.41,2.41,0,0,1,65.46,64.57Z"/><path d="M77.28,58.91l-.66-.13a11.63,11.63,0,0,0-.87-2.1l.37-.56a1.53,1.53,0,0,0-.18-1.95l-2.48-2.48a1.54,1.54,0,0,0-1.95-.18l-.56.38a11.34,11.34,0,0,0-2.1-.87l-.13-.66a1.53,1.53,0,0,0-1.51-1.25H67V27.26a6.6,6.6,0,0,0-3.95-6l-23.14-19a10.09,10.09,0,0,0-12.78,0L4,21.24a6.6,6.6,0,0,0-4,6V64a6.56,6.56,0,0,0,6.56,6.56H55.34l2.12,2.12a1.53,1.53,0,0,0,1.94.18l.56-.38a11.43,11.43,0,0,0,2.11.87l.12.66a1.53,1.53,0,0,0,1.51,1.25h3.51A1.53,1.53,0,0,0,68.72,74l.12-.66A11.15,11.15,0,0,0,71,72.45l.56.38a1.54,1.54,0,0,0,1.95-.18l2.48-2.48a1.53,1.53,0,0,0,.18-2l-.37-.56a11.34,11.34,0,0,0,.87-2.1l.66-.13a1.54,1.54,0,0,0,1.25-1.51v-3.5A1.54,1.54,0,0,0,77.28,58.91ZM5.73,23.75,29,4.65a7,7,0,0,1,8.9,0L61.24,23.76a1.67,1.67,0,0,0,.28.18l-7.18,6.31V22a1.54,1.54,0,0,0-1.53-1.54H14.15A1.54,1.54,0,0,0,12.62,22v8.23L5.44,23.94A1.32,1.32,0,0,0,5.73,23.75Zm45.54-.2v9.39L37.93,44.66a10.08,10.08,0,0,0-8.9,0L15.69,32.94V23.55ZM3.07,64V27.26a3.63,3.63,0,0,1,.19-1.14L26.42,46.45,3.36,65.36A3.43,3.43,0,0,1,3.07,64Zm3.49,3.5a3.75,3.75,0,0,1-.82-.1L29,48.28a7,7,0,0,1,8.9,0L52.41,60.15a1.14,1.14,0,0,0,0,.27v3.51a1.53,1.53,0,0,0,1.24,1.5l.67.13a11.22,11.22,0,0,0,.77,1.91ZM54.79,56.12l.38.56A11.43,11.43,0,0,0,54.58,58l-14-11.51L63.7,26.12a3.37,3.37,0,0,1,.19,1.14V49.11H63.7a1.53,1.53,0,0,0-1.51,1.25l-.12.66a11.43,11.43,0,0,0-2.11.87l-.56-.38a1.53,1.53,0,0,0-1.94.18L55,54.17A1.54,1.54,0,0,0,54.79,56.12Zm20.67,6.53-.37.08a1.53,1.53,0,0,0-1.22,1.19,8.63,8.63,0,0,1-1.22,3,1.53,1.53,0,0,0,0,1.7l.21.32-.68.68-.32-.21a1.53,1.53,0,0,0-1.7,0,8.46,8.46,0,0,1-3,1.23A1.53,1.53,0,0,0,66,71.79l-.07.37H65l-.07-.37a1.51,1.51,0,0,0-1.2-1.21,8.41,8.41,0,0,1-3-1.23,1.54,1.54,0,0,0-1.71,0l-.31.21L58,68.9l.21-.32a1.53,1.53,0,0,0,0-1.7,8.46,8.46,0,0,1-1.23-3,1.5,1.5,0,0,0-1.21-1.19l-.38-.08v-1l.38-.07A1.53,1.53,0,0,0,57,60.42a8.34,8.34,0,0,1,1.23-3,1.54,1.54,0,0,0,0-1.71L58,55.45l.69-.69L59,55a1.56,1.56,0,0,0,1.71,0,8.6,8.6,0,0,1,3-1.23,1.51,1.51,0,0,0,1.2-1.21l.07-.37h1l.07.37a1.53,1.53,0,0,0,1.2,1.21,8.65,8.65,0,0,1,3,1.23,1.54,1.54,0,0,0,1.7,0l.32-.22.68.69-.21.31a1.54,1.54,0,0,0,0,1.71,8.5,8.5,0,0,1,1.22,3,1.55,1.55,0,0,0,1.22,1.2l.37.07Z"/></g></g></svg>