<svg xmlns="http://www.w3.org/2000/svg" viewBox="0 0 78.61 78.61"><g id="Layer_2" data-name="Layer 2"><g id="Layer_1-2" data-name="Layer 1"><path d="M31,41.16A1.15,1.15,0,0,0,32.16,40V37.89a1.15,1.15,0,1,0-2.3,0V40A1.16,1.16,0,0,0,31,41.16Z"/><path d="M36.54,41.16A1.15,1.15,0,0,0,37.69,40V37.89a1.15,1.15,0,1,0-2.3,0V40A1.15,1.15,0,0,0,36.54,41.16Z"/><path d="M47.59,41.16A1.16,1.16,0,0,0,48.75,40V37.89a1.16,1.16,0,0,0-2.31,0V40A1.16,1.16,0,0,0,47.59,41.16Z"/><path d="M42.07,41.16A1.16,1.16,0,0,0,43.22,40V37.89a1.15,1.15,0,1,0-2.3,0V40A1.15,1.15,0,0,0,42.07,41.16Z"/><path d="M67.18,63.11h2.89a1.16,1.16,0,0,0,0-2.31H67.18a1.16,1.16,0,0,0,0,2.31Z"/><path d="M67.18,68.63h2.89a1.15,1.15,0,1,0,0-2.3H67.18a1.15,1.15,0,0,0,0,2.3Z"/><path d="M8.7,63.11h2.89a1.16,1.16,0,0,0,0-2.31H8.7a1.16,1.16,0,0,0,0,2.31Z"/><path d="M8.7,68.63h2.89a1.15,1.15,0,0,0,0-2.3H8.7a1.15,1.15,0,0,0,0,2.3Z"/><path d="M33.78,70a1.16,1.16,0,0,0,1.15-1.15v-16a1.16,1.16,0,0,0-2.31,0v16A1.16,1.16,0,0,0,33.78,70Z"/><path d="M28.25,70a1.16,1.16,0,0,0,1.15-1.15v-16a1.15,1.15,0,0,0-2.3,0v16A1.15,1.15,0,0,0,28.25,70Z"/><path d="M22.72,70a1.15,1.15,0,0,0,1.15-1.15v-16a1.15,1.15,0,0,0-2.3,0v16A1.16,1.16,0,0,0,22.72,70Z"/><path d="M55.88,70A1.16,1.16,0,0,0,57,68.82v-16a1.16,1.16,0,0,0-2.31,0v16A1.16,1.16,0,0,0,55.88,70Z"/><path d="M50.36,70a1.16,1.16,0,0,0,1.15-1.15v-16a1.15,1.15,0,0,0-2.3,0v16A1.15,1.15,0,0,0,50.36,70Z"/><path d="M44.83,70A1.15,1.15,0,0,0,46,68.82v-16a1.15,1.15,0,0,0-2.3,0v16A1.15,1.15,0,0,0,44.83,70Z"/><path d="M39.3,70a1.15,1.15,0,0,0,1.15-1.15v-16a1.15,1.15,0,0,0-2.3,0v16A1.16,1.16,0,0,0,39.3,70Z"/><path d="M75.39,71.77V57.67a3.42,3.42,0,0,0-.21-6.84H63.83V49.32a3.42,3.42,0,0,0-.43-6.82H55.28V35.3a3.42,3.42,0,0,0,0-6.76,16,16,0,0,0-2.69-7.82A1.15,1.15,0,1,0,50.64,22a13.56,13.56,0,0,1,2.28,6.49H25.68A13.69,13.69,0,0,1,47.09,18.42a1.17,1.17,0,0,0,1.61-.29,1.15,1.15,0,0,0-.29-1.6,15.9,15.9,0,0,0-8-2.81v-1.9h7.08a3,3,0,0,0,3-3v-4a3,3,0,0,0-3-3H40.45V1.15a1.15,1.15,0,1,0-2.3,0V13.72A16,16,0,0,0,23.37,28.54a3.42,3.42,0,0,0,0,6.76v7.2H15.21a3.42,3.42,0,0,0-.44,6.82v1.51H11.49a1.16,1.16,0,0,0,0,2.31h3.28v2.23H3.42a1.12,1.12,0,1,1,0-2.23h2.7a1.16,1.16,0,0,0,0-2.31H3.42a3.42,3.42,0,0,0-.21,6.84v14.1a3.42,3.42,0,0,0,.21,6.84H60a1.16,1.16,0,1,0,0-2.31H3.42a1.12,1.12,0,1,1,0-2.23H75.18a1.12,1.12,0,1,1,0,2.23H65.37a1.16,1.16,0,0,0,0,2.31h9.81a3.42,3.42,0,0,0,.21-6.84ZM40.45,4.13h7.08a.7.7,0,0,1,.69.69v4a.7.7,0,0,1-.69.69H40.45ZM14.77,71.76H5.52V57.68h9.25Zm8-39.84a1.13,1.13,0,0,1,1.12-1.12H54.71a1.12,1.12,0,0,1,0,2.24H23.89A1.12,1.12,0,0,1,22.77,31.92ZM53,35.35V42.5H25.63V35.35Zm8.56,36.41H17.08V49.35H61.53ZM15.21,47.05a1.12,1.12,0,0,1,0-2.24H63.4a1.12,1.12,0,0,1,0,2.24ZM73.09,71.76H63.83V57.68h9.26ZM63.83,55.37V53.14H75.18a1.12,1.12,0,1,1,0,2.23Z"/></g></g></svg>