<svg xmlns="http://www.w3.org/2000/svg" viewBox="0 0 79.04 79.08"><g id="Layer_2" data-name="Layer 2"><g id="Layer_1-2" data-name="Layer 1"><path d="M19.77,23.72H17.13a2.64,2.64,0,0,0-2.63,2.64V29a2.63,2.63,0,0,0,2.63,2.63h2.64A2.64,2.64,0,0,0,22.41,29V26.36A2.64,2.64,0,0,0,19.77,23.72Zm0,5.28H17.13V26.36h2.64Z"/><path d="M29,23.72H26.36a2.64,2.64,0,0,0-2.64,2.64V29a2.64,2.64,0,0,0,2.64,2.63H29A2.63,2.63,0,0,0,31.63,29V26.36A2.64,2.64,0,0,0,29,23.72ZM29,29H26.36V26.36H29Z"/><path d="M30.31,47.45A13.18,13.18,0,1,0,43.5,60.63,13.19,13.19,0,0,0,30.31,47.45Zm0,23.72A10.54,10.54,0,1,1,40.86,60.63,10.54,10.54,0,0,1,30.31,71.17Z"/><path d="M30.31,56.68c1.61,0,2.64.78,2.64,1.31h2.64c0-1.87-1.66-3.39-4-3.82V52.72H29v1.45c-2.3.43-4,1.95-4,3.82,0,2.22,2.32,4,5.27,4,1.61,0,2.64.78,2.64,1.32s-1,1.31-2.64,1.31-2.63-.78-2.63-1.31H25c0,1.87,1.66,3.39,4,3.82v1.45h2.63V67.09c2.3-.43,4-2,4-3.82,0-2.22-2.32-4-5.28-4-1.6,0-2.63-.78-2.63-1.32S28.71,56.68,30.31,56.68Z"/><rect x="42.18" y="32.95" width="2.64" height="2.64"/><rect x="47.45" y="32.95" width="15.82" height="2.64"/><rect x="42.18" y="27.68" width="2.64" height="2.64"/><rect x="47.45" y="27.68" width="15.82" height="2.64"/><rect x="42.18" y="38.22" width="2.64" height="2.64"/><rect x="47.45" y="38.22" width="15.82" height="2.64"/><rect x="42.18" y="43.5" width="2.64" height="2.64"/><rect x="47.45" y="43.5" width="15.82" height="2.64"/><path d="M67.22,76.45H11.86V44.81H33a4,4,0,0,0,3.95-4V7.91H51.4V23.72H67.22V42.18h2.64V21.86L53.27,5.27H36.9V4A4,4,0,0,0,33,0H4A4,4,0,0,0,0,4V40.86a4,4,0,0,0,4,4H9.23V79.08H69.86V60.63H67.22ZM54,9.77,65.36,21.09H54ZM4,42.18a1.32,1.32,0,0,1-1.31-1.32V4A1.31,1.31,0,0,1,4,2.64H33A1.32,1.32,0,0,1,34.27,4V40.86A1.32,1.32,0,0,1,33,42.18Z"/><path d="M33,4H4v9.23H33Zm-2.64,6.59H6.59V6.59H30.31Z"/><path d="M10.54,14.5H7.91a2.64,2.64,0,0,0-2.64,2.63v2.64a2.64,2.64,0,0,0,2.64,2.64h2.63a2.64,2.64,0,0,0,2.64-2.64V17.13A2.64,2.64,0,0,0,10.54,14.5Zm0,5.27H7.91V17.13h2.63Z"/><path d="M19.77,14.5H17.13a2.63,2.63,0,0,0-2.63,2.63v2.64a2.64,2.64,0,0,0,2.63,2.64h2.64a2.64,2.64,0,0,0,2.64-2.64V17.13A2.64,2.64,0,0,0,19.77,14.5Zm0,5.27H17.13V17.13h2.64Z"/><path d="M29,14.5H26.36a2.64,2.64,0,0,0-2.64,2.63v2.64a2.64,2.64,0,0,0,2.64,2.64H29a2.64,2.64,0,0,0,2.63-2.64V17.13A2.63,2.63,0,0,0,29,14.5Zm0,5.27H26.36V17.13H29Z"/><path d="M10.54,23.72H7.91a2.64,2.64,0,0,0-2.64,2.64V29a2.64,2.64,0,0,0,2.64,2.63h2.63A2.64,2.64,0,0,0,13.18,29V26.36A2.64,2.64,0,0,0,10.54,23.72Zm0,5.28H7.91V26.36h2.63Z"/><path d="M10.54,33H7.91a2.64,2.64,0,0,0-2.64,2.64v2.63a2.64,2.64,0,0,0,2.64,2.64h2.63a2.64,2.64,0,0,0,2.64-2.64V35.59A2.64,2.64,0,0,0,10.54,33Zm0,5.27H7.91V35.59h2.63Z"/><path d="M19.77,33H17.13a2.64,2.64,0,0,0-2.63,2.64v2.63a2.64,2.64,0,0,0,2.63,2.64h2.64a2.64,2.64,0,0,0,2.64-2.64V35.59A2.64,2.64,0,0,0,19.77,33Zm0,5.27H17.13V35.59h2.64Z"/><path d="M29,33H26.36a2.64,2.64,0,0,0-2.64,2.64v2.63a2.64,2.64,0,0,0,2.64,2.64H29a2.64,2.64,0,0,0,2.63-2.64V35.59A2.64,2.64,0,0,0,29,33Zm0,5.27H26.36V35.59H29Z"/><path d="M77.89,42.06a4,4,0,0,0-5.6,0L49.7,64.65a1.22,1.22,0,0,0-.26.38l-3.19,6.91A1.32,1.32,0,0,0,48,73.69l6.91-3.18a1.46,1.46,0,0,0,.38-.27l22.6-22.59A4,4,0,0,0,77.89,42.06ZM53.59,68.21,50.14,69.8l1.59-3.45L68.58,49.5l1.86,1.86ZM72.31,49.49l-1.87-1.86.93-.92,1.86,1.86ZM76,45.78l-.94.93-1.86-1.86.93-.94a1.37,1.37,0,0,1,1.87,0A1.33,1.33,0,0,1,76,45.78Z"/></g></g></svg>