<svg xmlns="http://www.w3.org/2000/svg" viewBox="0 0 78.79 78.79"><g id="Layer_2" data-name="Layer 2"><g id="Layer_1-2" data-name="Layer 1"><path d="M77.25,47.55a1.54,1.54,0,1,0,1.54,1.54A1.54,1.54,0,0,0,77.25,47.55Z"/><path d="M78.79,1.54A1.54,1.54,0,0,0,77.25,0H18.77a1.54,1.54,0,0,0-1.54,1.54V12.46H6.31A6.33,6.33,0,0,0,0,18.77V68.63A10.17,10.17,0,0,0,10.16,78.79H68.63a10.13,10.13,0,0,0,7.18-3,10.13,10.13,0,0,0,3-7.18V56a1.54,1.54,0,0,0-3.08,0V68.63a7.08,7.08,0,0,1-7.08,7.08H17.44a10.12,10.12,0,0,0,2.87-7.08V21.54h55.4V42.16a1.54,1.54,0,0,0,3.08,0Zm-67.06,14h5.5v47.7H12.62V18.77A6.34,6.34,0,0,0,11.73,15.54ZM20.31,3.08h55.4V18.47H20.31ZM15.16,73.63a7.07,7.07,0,0,1-12.08-5V18.77a3.23,3.23,0,0,1,3.23-3.23h0a3.23,3.23,0,0,1,3.23,3.23v46a1.54,1.54,0,0,0,1.54,1.54h6.15v2.31A7,7,0,0,1,15.16,73.63Z"/><path d="M32.8,58.93a16.57,16.57,0,0,1-4-1.73,1.09,1.09,0,0,1-.3-1.06,1.74,1.74,0,0,1,1.24-1.36,3.58,3.58,0,0,1,3.12.48A1.58,1.58,0,0,0,35,54.69a1.54,1.54,0,0,0-.63-2.14,9.08,9.08,0,0,0-2.1-.78V49.86a1.54,1.54,0,0,0-3.08,0v1.88l-.27.08a5,5,0,0,0-3.43,3.77A4.08,4.08,0,0,0,27,59.68a17.35,17.35,0,0,0,4.86,2.17A1.87,1.87,0,0,1,33.37,64a2.68,2.68,0,0,1-2.78,2.17,4.9,4.9,0,0,1-3.32-.81,1.54,1.54,0,0,0-2.16.59A1.58,1.58,0,0,0,25.72,68a7.32,7.32,0,0,0,3.44,1.19v1.88a1.54,1.54,0,1,0,3.08,0V69a5.73,5.73,0,0,0,4.17-4.55,4.92,4.92,0,0,0-3.61-5.55Z"/><path d="M42,48.64a1.53,1.53,0,0,0,2.17,0L48,44.79a1.55,1.55,0,0,0,0-2.18l-3.85-3.84A1.53,1.53,0,0,0,42,40.94l1.22,1.22H30.31V32l1.22,1.22a1.55,1.55,0,0,0,1.09.45A1.54,1.54,0,0,0,33.71,31l-3.85-3.85a1.53,1.53,0,0,0-2.17,0L23.84,31A1.54,1.54,0,0,0,26,33.17L27.24,32V43.7a1.54,1.54,0,0,0,1.54,1.54H43.22L42,46.46a1.55,1.55,0,0,0,0,2.18Z"/><path d="M69,29.85H55.17a1.54,1.54,0,0,0,0,3.08H69a1.54,1.54,0,0,0,0-3.08Z"/><path d="M69,36H55.17a1.54,1.54,0,1,0,0,3.08H69A1.54,1.54,0,0,0,69,36Z"/><path d="M69,42.16H55.17a1.54,1.54,0,0,0,0,3.08H69a1.54,1.54,0,1,0,0-3.08Z"/><path d="M69,52.78H47.47a1.54,1.54,0,0,0,0,3.08H69a1.54,1.54,0,0,0,0-3.08Z"/><path d="M47.47,62h7.39a1.54,1.54,0,1,0,0-3.07H47.47a1.54,1.54,0,1,0,0,3.07Z"/><path d="M69,58.94H61.78a1.54,1.54,0,1,0,0,3.07H69a1.54,1.54,0,1,0,0-3.07Z"/><path d="M47.47,68.17H69a1.54,1.54,0,0,0,0-3.08H47.47a1.54,1.54,0,1,0,0,3.08Z"/><path d="M27,15.39H43.39a1.54,1.54,0,0,0,0-3.08H27a1.54,1.54,0,0,0,0,3.08Z"/><path d="M27,9.23H43.39a1.54,1.54,0,1,0,0-3.07H27a1.54,1.54,0,1,0,0,3.07Z"/><path d="M63.63,9.23H69a1.54,1.54,0,1,0,0-3.07H63.63a1.54,1.54,0,1,0,0,3.07Z"/><path d="M63.63,15.39H69a1.54,1.54,0,0,0,0-3.08H63.63a1.54,1.54,0,1,0,0,3.08Z"/></g></g></svg>