<?xml version="1.0" encoding="utf-8"?>
<!-- Generator: Adobe Illustrator 26.5.0, SVG Export Plug-In . SVG Version: 6.00 Build 0)  -->
<svg version="1.1" id="Layer_1" xmlns="http://www.w3.org/2000/svg" xmlns:xlink="http://www.w3.org/1999/xlink" x="0px" y="0px"
	 viewBox="0 0 78.9 81.5" style="enable-background:new 0 0 78.9 81.5;" xml:space="preserve">
<style type="text/css">
	.st0{display:none;}
	.st1{display:inline;}
	.st2{display:inline;fill:#333333;}
	.st3{display:inline;fill:url(#SVGID_1_);}
	.st4{display:inline;fill:url(#SVGID_00000152260735692222209060000006984890783165908630_);}
	.st5{display:inline;fill:url(#SVGID_00000069390980759360432640000009913184526009206189_);}
	.st6{display:inline;fill:url(#SVGID_00000023282424021015970860000012159222184989939102_);}
	.st7{display:inline;fill:url(#SVGID_00000041999116664858221950000017056390641024520584_);}
	.st8{display:inline;fill:url(#SVGID_00000143599836691610725910000009684442338253778052_);}
	.st9{display:inline;fill:url(#SVGID_00000037663129140248056360000002519144129114585732_);}
	.st10{display:inline;fill:url(#SVGID_00000031912153040485810670000011302530509797280137_);}
	.st11{display:inline;fill:url(#SVGID_00000124876287396667612840000015658919523453490872_);}
	.st12{display:inline;fill:url(#SVGID_00000038385814131435098030000017078409618866404250_);}
	.st13{display:inline;fill:url(#SVGID_00000055693253094381110030000011237163434489351304_);}
	.st14{display:inline;fill:url(#SVGID_00000152252179981689920930000012130451849531946892_);}
</style>
<g class="st0">
	<path class="st1" d="M65,5c0-0.3,0-0.6,0-0.9C65,2.5,63.6,1,61.9,1c-1.7,0-3.1,1.4-3.1,3.1V5H20.7V4.8c0-0.3,0-0.6,0-0.9
		c0-1.5-1.4-3.1-3.1-3.1s-3.1,1.4-3.1,3.1v1.2C7.5,5.1,1.7,11,1.7,18v49.8c0,7.1,5.8,12.9,12.9,12.9h49.8c7.1,0,12.9-5.8,12.9-12.9
		V17.9C77.2,11,71.7,5.3,65,5L65,5z M14.6,11.1v0.6c0,1.5,1.4,3.1,3.1,3.1s3.1-1.4,3.1-3.1c0-0.2,0-0.5,0-0.6h38.1V12
		c0,1.5,1.4,3.1,3.1,3.1c1.7,0,3.1-1.4,3.1-3.1c0-0.3,0-0.6,0-0.9c3.5,0.3,6.3,3.2,6.3,6.8v8.6H7.8v-8.6C7.8,14,10.9,11.1,14.6,11.1
		L14.6,11.1z M64.4,74.4H14.6c-3.7,0-6.8-3.1-6.8-6.8v-35h63.4v35C71.1,71.3,68,74.4,64.4,74.4L64.4,74.4z"/>
	<path class="st1" d="M53.6,41c-1.2-1.1-3.2-1.2-4.3,0s-1.2,3.2,0,4.3c2.6,2.5,5.2,4.9,7.8,7.2c-2.3,2.6-4.8,5.1-7.1,7.7
		c-1.1,1.2-1.2,3.2,0,4.3s3.2,1.2,4.3,0c3.1-3.4,6.1-6.6,9.4-10c1.1-1.2,1.2-3.2,0-4.3C60.2,47.2,57,44.1,53.6,41z"/>
	<path class="st1" d="M51.3,50.3c-3.4-3.1-6.6-6.1-10-9.4c-1.2-1.1-3.2-1.2-4.3,0s-1.2,3.2,0,4.3c2.6,2.5,5.2,4.9,7.8,7.2
		c-2.3,2.6-4.8,5.1-7.1,7.7c-1.1,1.2-1.2,3.2,0,4.3s3.2,1.2,4.3,0c3.1-3.4,6.1-6.6,9.4-10C52.4,53.5,52.5,51.5,51.3,50.3z"/>
</g>
<g class="st0">
	<path class="st2" d="M21.5,52.4c-0.5,0-1.1,0.2-1.5,0.5c-0.4,0.3-0.8,0.7-1,1.2c-0.2,0.5-0.3,1-0.2,1.6c0.1,0.5,0.4,1,0.7,1.4
		c0.4,0.4,0.9,0.6,1.4,0.7c0.5,0.1,1.1,0.1,1.6-0.2c0.5-0.2,0.9-0.5,1.2-1c0.3-0.4,0.5-1,0.5-1.5c0-0.7-0.3-1.4-0.8-1.9
		C22.9,52.7,22.3,52.4,21.5,52.4z M21.5,56.7c-0.3,0-0.6-0.1-0.9-0.3c-0.3-0.2-0.4-0.4-0.6-0.7C20,55.4,20,55.1,20,54.8
		c0.1-0.3,0.2-0.6,0.4-0.8c0.2-0.2,0.5-0.4,0.8-0.4c0.3-0.1,0.6,0,0.9,0.1s0.5,0.3,0.7,0.6c0.2,0.3,0.3,0.5,0.3,0.9
		c0,0.4-0.2,0.8-0.4,1.1C22.3,56.5,22,56.7,21.5,56.7L21.5,56.7z"/>
	<path class="st2" d="M64.9,52.4c-0.5,0-1.1,0.2-1.5,0.5s-0.8,0.7-1,1.2c-0.2,0.5-0.3,1-0.2,1.6c0.1,0.5,0.4,1,0.7,1.4
		c0.4,0.4,0.9,0.6,1.4,0.7c0.5,0.1,1.1,0.1,1.6-0.2c0.5-0.2,0.9-0.5,1.2-1c0.3-0.4,0.5-1,0.5-1.5c0-0.7-0.3-1.4-0.8-1.9
		C66.3,52.7,65.6,52.4,64.9,52.4z M64.9,56.7c-0.3,0-0.6-0.1-0.9-0.3c-0.3-0.2-0.4-0.4-0.6-0.7c-0.1-0.3-0.1-0.6-0.1-0.9
		c0.1-0.3,0.2-0.6,0.4-0.8c0.2-0.2,0.5-0.4,0.8-0.4s0.6,0,0.9,0.1c0.3,0.1,0.5,0.3,0.7,0.6c0.2,0.3,0.3,0.5,0.3,0.9
		c0,0.4-0.2,0.8-0.4,1.1C65.7,56.5,65.3,56.7,64.9,56.7L64.9,56.7z"/>
	<path class="st2" d="M15.4,55.7c0.1,1.5,0.8,2.9,2,4c1.1,1,2.6,1.6,4.1,1.6c1.5,0,3-0.6,4.1-1.6c1.1-1,1.8-2.4,2-4h31.2
		c0.1,1.5,0.9,2.9,2,3.9c1.1,1,2.6,1.6,4.1,1.6c1.5,0,3-0.6,4.1-1.6c1.1-1,1.8-2.4,2-3.9h4.3c0.5,0,1.1-0.2,1.4-0.6
		c0.4-0.4,0.6-0.9,0.6-1.4V42.4c0,0,0,0,0,0c0,0,0,0,0,0c0-0.1,0-0.2-0.1-0.2c0-0.1-0.1-0.1-0.2-0.2l-7.7-13c-0.3-0.4-0.6-0.8-1.1-1
		c-0.4-0.2-0.9-0.4-1.4-0.4H52.4v-5.9c0-1.2-1.2-2.3-2.8-2.3H8.4c-1.5,0-2.7,1-2.7,2.2v31.9c0,1.3,1.3,2.3,2.8,2.3H15.4z M21.5,60.1
		c-1,0-1.9-0.3-2.8-0.8c-0.8-0.5-1.5-1.3-1.8-2.2c-0.4-0.9-0.5-1.9-0.3-2.9c0.2-1,0.7-1.9,1.4-2.5c0.7-0.7,1.6-1.2,2.6-1.4
		c1-0.2,2-0.1,2.9,0.3c0.9,0.4,1.7,1,2.2,1.8c0.5,0.8,0.8,1.8,0.8,2.8c0,1.3-0.5,2.6-1.5,3.5C24.1,59.6,22.9,60.1,21.5,60.1
		L21.5,60.1z M64.9,60.1c-1,0-1.9-0.3-2.8-0.8c-0.8-0.5-1.5-1.3-1.8-2.2c-0.4-0.9-0.5-1.9-0.3-2.9c0.2-1,0.7-1.9,1.4-2.6
		c0.7-0.7,1.6-1.2,2.6-1.4c1-0.2,2-0.1,2.9,0.3c0.9,0.4,1.7,1,2.2,1.8c0.5,0.8,0.8,1.8,0.8,2.8c0,1.3-0.5,2.6-1.5,3.5
		C67.5,59.6,66.3,60.1,64.9,60.1z M75.7,41.7H64.9c-0.3,0-0.6-0.1-0.8-0.3c-0.2-0.2-0.3-0.5-0.3-0.8v-5.8c0-0.3,0.1-0.6,0.3-0.8
		c0.2-0.2,0.5-0.3,0.8-0.3h6L75.7,41.7z M68.5,29.5l1.8,3h-5.3c-0.6,0-1.2,0.2-1.6,0.7c-0.4,0.4-0.7,1-0.7,1.6v5.8
		c0,0.6,0.2,1.2,0.7,1.6c0.4,0.4,1,0.7,1.6,0.7h11.3v10.8c0,0.2-0.1,0.5-0.3,0.6c-0.2,0.2-0.4,0.3-0.6,0.3H71
		c-0.1-1.5-0.9-2.9-2-3.9c-1.1-1-2.6-1.6-4.1-1.6s-3,0.6-4.1,1.6c-1.1,1-1.8,2.4-2,3.9h-6.4V28.6H67c0.3,0,0.6,0.1,0.9,0.2
		C68.1,29,68.3,29.2,68.5,29.5z M8.4,20.4h41.3c0.9,0,1.6,0.5,1.6,1.1v23H6.8v-23C6.8,20.9,7.5,20.4,8.4,20.4z M6.8,53.4v-7.7h44.5
		v8.8H27.7c-0.1-1.5-0.8-2.9-2-4c-1.1-1-2.6-1.6-4.1-1.6c-1.5,0-3,0.6-4.1,1.6c-1.1,1-1.8,2.4-2,4h-7C7.6,54.5,6.8,54,6.8,53.4z"/>
	
		<linearGradient id="SVGID_1_" gradientUnits="userSpaceOnUse" x1="18.8925" y1="51.1308" x2="20.7295" y2="46.458" gradientTransform="matrix(1 0 0 -1 0 84)">
		<stop  offset="0" style="stop-color:#0081B6"/>
		<stop  offset="1" style="stop-color:#87D1F1"/>
	</linearGradient>
	<path class="st3" d="M18.1,33.1l-2.3,1.2c0,0-0.1,0-0.1,0.1l5.8,3l2.4-1.2L18.1,33.1z"/>
	
		<linearGradient id="SVGID_00000026127878010740153750000014245321612478056878_" gradientUnits="userSpaceOnUse" x1="21.7389" y1="47.6286" x2="27.3102" y2="42.5635" gradientTransform="matrix(1 0 0 -1 0 84)">
		<stop  offset="0" style="stop-color:#0081B6"/>
		<stop  offset="1" style="stop-color:#87D1F1"/>
	</linearGradient>
	<path style="display:inline;fill:url(#SVGID_00000026127878010740153750000014245321612478056878_);" d="M27.6,34.5l-2.9,1.4v1.6
		c0,0.2-0.2,0.4-0.4,0.4c-0.2,0-0.4-0.2-0.4-0.4v-1.3l-2.4,1.2v5.9c0,0,0,0,0,0l5.6-2.8c0.3-0.1,0.5-0.4,0.5-0.8L27.6,34.5
		C27.6,34.5,27.6,34.5,27.6,34.5z"/>
	
		<linearGradient id="SVGID_00000126287770875582357820000005737492971861827251_" gradientUnits="userSpaceOnUse" x1="22.3081" y1="52.8581" x2="24.1392" y2="48.0354" gradientTransform="matrix(1 0 0 -1 0 84)">
		<stop  offset="0" style="stop-color:#0081B6"/>
		<stop  offset="1" style="stop-color:#87D1F1"/>
	</linearGradient>
	<path style="display:inline;fill:url(#SVGID_00000126287770875582357820000005737492971861827251_);" d="M27.4,34.3l-5.5-2.8l0,0
		c-0.2-0.1-0.5-0.1-0.8,0l-2.2,1.2l5.8,3.1l2.8-1.4C27.5,34.3,27.4,34.3,27.4,34.3z"/>
	
		<linearGradient id="SVGID_00000106854411854325827960000012951594183208604803_" gradientUnits="userSpaceOnUse" x1="15.7044" y1="47.5431" x2="21.2514" y2="42.7388" gradientTransform="matrix(1 0 0 -1 0 84)">
		<stop  offset="0" style="stop-color:#0081B6"/>
		<stop  offset="1" style="stop-color:#87D1F1"/>
	</linearGradient>
	<path style="display:inline;fill:url(#SVGID_00000106854411854325827960000012951594183208604803_);" d="M15.5,34.5
		C15.5,34.5,15.5,34.5,15.5,34.5l0,5.3c0,0.3,0.2,0.6,0.5,0.8l5.3,2.8l0,0c0,0,0,0,0,0v-5.8L15.5,34.5z"/>
	
		<linearGradient id="SVGID_00000098217346914718343170000003738939487533967781_" gradientUnits="userSpaceOnUse" x1="25.3439" y1="60.5719" x2="27.181" y2="55.8992" gradientTransform="matrix(1 0 0 -1 0 84)">
		<stop  offset="0" style="stop-color:#0081B6"/>
		<stop  offset="1" style="stop-color:#87D1F1"/>
	</linearGradient>
	<path style="display:inline;fill:url(#SVGID_00000098217346914718343170000003738939487533967781_);" d="M24.6,23.6l-2.3,1.2
		c0,0-0.1,0-0.1,0.1l5.8,3l2.4-1.2L24.6,23.6z"/>
	
		<linearGradient id="SVGID_00000160151028834724250250000001196907521695137926_" gradientUnits="userSpaceOnUse" x1="28.1903" y1="57.0698" x2="33.7617" y2="52.0046" gradientTransform="matrix(1 0 0 -1 0 84)">
		<stop  offset="0" style="stop-color:#0081B6"/>
		<stop  offset="1" style="stop-color:#87D1F1"/>
	</linearGradient>
	<path style="display:inline;fill:url(#SVGID_00000160151028834724250250000001196907521695137926_);" d="M34,25l-2.9,1.4v1.6
		c0,0.2-0.2,0.4-0.4,0.4c-0.2,0-0.4-0.2-0.4-0.4v-1.3L28,28v5.9c0,0,0,0,0,0l5.6-2.8c0.3-0.1,0.5-0.4,0.5-0.8L34,25
		C34,25.1,34,25.1,34,25z"/>
	
		<linearGradient id="SVGID_00000174591534325532305180000000254308361321862306_" gradientUnits="userSpaceOnUse" x1="28.7596" y1="62.2992" x2="30.5907" y2="57.4765" gradientTransform="matrix(1 0 0 -1 0 84)">
		<stop  offset="0" style="stop-color:#0081B6"/>
		<stop  offset="1" style="stop-color:#87D1F1"/>
	</linearGradient>
	<path style="display:inline;fill:url(#SVGID_00000174591534325532305180000000254308361321862306_);" d="M33.8,24.8L28.3,22l0,0
		c-0.2-0.1-0.5-0.1-0.8,0l-2.2,1.2l5.8,3.1l2.8-1.4C33.9,24.9,33.9,24.8,33.8,24.8z"/>
	
		<linearGradient id="SVGID_00000171689447535009770510000015304507072025328266_" gradientUnits="userSpaceOnUse" x1="22.1559" y1="56.9842" x2="27.7029" y2="52.1799" gradientTransform="matrix(1 0 0 -1 0 84)">
		<stop  offset="0" style="stop-color:#0081B6"/>
		<stop  offset="1" style="stop-color:#87D1F1"/>
	</linearGradient>
	<path style="display:inline;fill:url(#SVGID_00000171689447535009770510000015304507072025328266_);" d="M22,25
		C22,25.1,22,25.1,22,25l0,5.3c0,0.3,0.2,0.6,0.5,0.8l5.3,2.8l0,0c0,0,0,0,0,0v-5.8L22,25z"/>
	
		<linearGradient id="SVGID_00000044163894081277693040000011017876974355030451_" gradientUnits="userSpaceOnUse" x1="31.638" y1="51.1308" x2="33.4751" y2="46.458" gradientTransform="matrix(1 0 0 -1 0 84)">
		<stop  offset="0" style="stop-color:#0081B6"/>
		<stop  offset="1" style="stop-color:#87D1F1"/>
	</linearGradient>
	<path style="display:inline;fill:url(#SVGID_00000044163894081277693040000011017876974355030451_);" d="M30.8,33.1l-2.3,1.2
		c0,0-0.1,0-0.1,0.1l5.8,3l2.4-1.2L30.8,33.1z"/>
	
		<linearGradient id="SVGID_00000149346070121500932170000003839611065506153877_" gradientUnits="userSpaceOnUse" x1="34.4844" y1="47.6286" x2="40.0558" y2="42.5635" gradientTransform="matrix(1 0 0 -1 0 84)">
		<stop  offset="0" style="stop-color:#0081B6"/>
		<stop  offset="1" style="stop-color:#87D1F1"/>
	</linearGradient>
	<path style="display:inline;fill:url(#SVGID_00000149346070121500932170000003839611065506153877_);" d="M40.3,34.5l-2.9,1.4v1.6
		c0,0.2-0.2,0.4-0.4,0.4c-0.2,0-0.4-0.2-0.4-0.4v-1.3l-2.4,1.2v5.9c0,0,0,0,0,0l5.6-2.8c0.3-0.1,0.5-0.4,0.5-0.8L40.3,34.5
		C40.3,34.5,40.3,34.5,40.3,34.5z"/>
	
		<linearGradient id="SVGID_00000114050528808643289140000016773094310671472049_" gradientUnits="userSpaceOnUse" x1="35.0537" y1="52.8581" x2="36.8848" y2="48.0354" gradientTransform="matrix(1 0 0 -1 0 84)">
		<stop  offset="0" style="stop-color:#0081B6"/>
		<stop  offset="1" style="stop-color:#87D1F1"/>
	</linearGradient>
	<path style="display:inline;fill:url(#SVGID_00000114050528808643289140000016773094310671472049_);" d="M40.1,34.3l-5.5-2.8l0,0
		c-0.2-0.1-0.5-0.1-0.8,0l-2.2,1.2l5.8,3.1l2.8-1.4C40.2,34.3,40.2,34.3,40.1,34.3z"/>
	
		<linearGradient id="SVGID_00000016762891995651782770000007848495515950578864_" gradientUnits="userSpaceOnUse" x1="28.45" y1="47.5431" x2="33.997" y2="42.7388" gradientTransform="matrix(1 0 0 -1 0 84)">
		<stop  offset="0" style="stop-color:#0081B6"/>
		<stop  offset="1" style="stop-color:#87D1F1"/>
	</linearGradient>
	<path style="display:inline;fill:url(#SVGID_00000016762891995651782770000007848495515950578864_);" d="M28.3,34.5
		C28.3,34.5,28.3,34.5,28.3,34.5l0,5.3c0,0.3,0.2,0.6,0.5,0.8l5.3,2.8l0,0c0,0,0,0,0,0v-5.8L28.3,34.5z"/>
	<path class="st2" d="M-0.8,33.2c0-0.3,0.2-0.6,0.6-0.6h5.9c0.3,0,0.6,0.3,0.6,0.6c0,0.3-0.2,0.5-0.5,0.5h-6
		C-0.6,33.7-0.8,33.5-0.8,33.2z"/>
	<path class="st2" d="M2.4,35.9h3.5c0.3,0,0.6,0.2,0.6,0.6l0,0c0,0.3-0.2,0.6-0.6,0.6H2.4c-0.3,0-0.6-0.2-0.6-0.6l0,0
		C1.9,36.2,2.1,35.9,2.4,35.9z"/>
	<path class="st2" d="M2.9,28.9h2.8c0.3,0,0.6,0.2,0.6,0.6l0,0C6.3,29.7,6,30,5.7,30H2.9c-0.3,0-0.6-0.2-0.6-0.6l0,0
		C2.3,29.1,2.6,28.9,2.9,28.9z"/>
</g>
<g>
	<g>
		<path d="M2.3,49.1v21.7C2.3,74.2,5,77,8.4,77h21.7c3.4,0,6.2-2.8,6.2-6.2V49.1c0-3.4-2.8-6.2-6.2-6.2H8.4C5,43,2.3,45.7,2.3,49.1z
			 M6,49.1c0-1.3,1.1-2.4,2.4-2.4h21.7c1.3,0,2.4,1.1,2.4,2.4v21.7c0,1.3-1.1,2.4-2.4,2.4H8.4c-1.3,0-2.4-1.1-2.4-2.4V49.1z"/>
		<path d="M19.3,38.8c1,0,1.9-0.8,1.9-1.9V10.9l8.9,8.9c0.4,0.4,0.8,0.5,1.3,0.5c0.5,0,1-0.2,1.3-0.5c0.7-0.7,0.7-1.9,0-2.6
			L20.6,5.1c-0.7-0.7-1.9-0.7-2.6,0L5.9,17.1c-0.7,0.7-0.7,1.9,0,2.6s1.9,0.7,2.6,0l8.9-8.9V37C17.4,38,18.2,38.8,19.3,38.8z"/>
		<path d="M76.6,32.4V10.7c0-3.4-2.8-6.2-6.2-6.2H48.8c-3.4,0-6.2,2.8-6.2,6.2v21.7c0,3.4,2.8,6.2,6.2,6.2h21.7
			C73.9,38.5,76.6,35.8,76.6,32.4z M72.9,32.4c0,1.3-1.1,2.4-2.4,2.4H48.8c-1.3,0-2.4-1.1-2.4-2.4V10.7c0-1.3,1.1-2.4,2.4-2.4h21.7
			c1.3,0,2.4,1.1,2.4,2.4V32.4L72.9,32.4z"/>
		<path d="M59.6,42.6c-1,0-1.9,0.8-1.9,1.9v26.1l-8.9-8.9c-0.7-0.7-1.9-0.7-2.6,0c-0.7,0.7-0.7,1.9,0,2.6l12.1,12.1
			c0.4,0.4,0.8,0.5,1.3,0.5c0.5,0,1-0.2,1.3-0.5L73,64.3c0.7-0.7,0.7-1.9,0-2.6c-0.7-0.7-1.9-0.7-2.6,0l-8.9,8.9V44.5
			C61.5,43.5,60.7,42.6,59.6,42.6z"/>
	</g>
</g>
</svg>
