<svg xmlns="http://www.w3.org/2000/svg" viewBox="0 0 82.85 85.7"><defs><style>.cls-1{fill:#c82127;}</style></defs><g id="Layer_2" data-name="Layer 2"><g id="Layer_1-2" data-name="Layer 1"><path class="cls-1" d="M74.31,46.23a2,2,0,0,0,4,0V27.61a2.13,2.13,0,0,0,.2-3.69L42.37.34A2.16,2.16,0,0,0,40.1.3L1,23.88a2.13,2.13,0,0,0,1.06,4V83.7a2,2,0,0,0,4,0V27.85H74.31ZM8.83,23.85,41.16,4.33,71.07,23.85Z"/><path class="cls-1" d="M81.92,57.14,68.69,45.89H54.45V61.31l-5.64,0a3.43,3.43,0,0,0,.06-.56V52a3.8,3.8,0,0,0-3.8-3.8H42.94V39.57a3.79,3.79,0,0,0-3.79-3.79H30.36a3.79,3.79,0,0,0-3.79,3.79v8.58H24.18a3.8,3.8,0,0,0-3.8,3.8v8.78a4.4,4.4,0,0,0,.05.51l-9.54,0v15.5H22.07a5.11,5.11,0,0,0,10.21,0H64.59a5.11,5.11,0,0,0,10.21,0h7V61.22a2.62,2.62,0,0,0,.12-4.08Zm-37.05-5v8.38H36.76V52.15h8.11ZM30.57,39.78h8.37v8.37H30.57ZM24.38,52.15h8.11v8.38H24.38ZM74.43,72.72a6,6,0,0,0-9.47,0h-33a6,6,0,0,0-9.47,0H14.89V65.23l43.56.08V49.89h8.76l9.24,7.85h-11a2,2,0,0,0,0,4H77.8v11Z"/></g></g></svg>