<svg xmlns="http://www.w3.org/2000/svg" viewBox="0 0 84.24 73.58"><defs><style>.cls-1{font-size:19.76px;font-family:Constantia-Bold, Constantia;font-weight:700;letter-spacing:-0.05em;}.cls-1,.cls-4{fill:#c82127;}.cls-2{letter-spacing:0em;}.cls-3{letter-spacing:-0.02em;}</style></defs><g id="Layer_2" data-name="Layer 2"><g id="Layer_1-2" data-name="Layer 1"><text class="cls-1" transform="translate(24.07 60.07)">T<tspan class="cls-2" x="11.2" y="0">A</tspan><tspan class="cls-3" x="24.43" y="0">X</tspan></text><path class="cls-4" d="M72,32.06,49,10.31a7.3,7.3,0,0,0,.58-2.88,7.43,7.43,0,0,0-14.86,0,7.51,7.51,0,0,0,.41,2.43L11.57,32.16A13.62,13.62,0,0,0,0,45.6V60A13.62,13.62,0,0,0,13.61,73.58h57A13.63,13.63,0,0,0,84.24,60V45.6A13.63,13.63,0,0,0,72,32.06ZM42.18,14.86a7.41,7.41,0,0,0,4.35-1.41L66.11,32H17.57l19.9-18.81A7.44,7.44,0,0,0,42.18,14.86ZM42.18,4a3.43,3.43,0,1,1-3.43,3.43A3.44,3.44,0,0,1,42.18,4ZM80.24,60a9.62,9.62,0,0,1-9.61,9.61h-57A9.62,9.62,0,0,1,4,60V45.6A9.62,9.62,0,0,1,13.61,36h57a9.62,9.62,0,0,1,9.61,9.61Z"/></g></g></svg>