<svg xmlns="http://www.w3.org/2000/svg" viewBox="0 0 82.83 82.14"><defs><style>.cls-1{fill:#c82127;}</style></defs><g id="Layer_2" data-name="Layer 2"><g id="Layer_1-2" data-name="Layer 1"><path class="cls-1" d="M30.83,0H7A7,7,0,0,0,0,7V30.83a7,7,0,0,0,7,7H30.83a7,7,0,0,0,7-7V7A7,7,0,0,0,30.83,0Zm3,30.83a3,3,0,0,1-3,3H7a3,3,0,0,1-3-3V7A3,3,0,0,1,7,4H30.83a3,3,0,0,1,3,3Z"/><path class="cls-1" d="M30.83,43.94H7a7,7,0,0,0-7,7V74.77a7,7,0,0,0,7,7H30.83a7,7,0,0,0,7-7V50.93A7,7,0,0,0,30.83,43.94Zm3,30.83a3,3,0,0,1-3,3H7a3,3,0,0,1-3-3V50.93a3,3,0,0,1,3-3H30.83a3,3,0,0,1,3,3Z"/><path class="cls-1" d="M75.84,0H52a7,7,0,0,0-7,7V30.83a7,7,0,0,0,7,7H75.84a7,7,0,0,0,7-7V7A7,7,0,0,0,75.84,0Zm3,30.83a3,3,0,0,1-3,3H52a3,3,0,0,1-3-3V7a3,3,0,0,1,3-3H75.84a3,3,0,0,1,3,3Z"/><path class="cls-1" d="M81,59.69H77.58a13.86,13.86,0,0,0-1.22-3.12l2.69-2.69a1.71,1.71,0,0,0,0-2.41l-3-2.95a1.73,1.73,0,0,0-2.42,0l-2.52,2.53A14.23,14.23,0,0,0,68,49.62V45.94a1.72,1.72,0,0,0-1.71-1.71H62.13a1.71,1.71,0,0,0-1.7,1.71v3.39a14.76,14.76,0,0,0-3.28,1.19l-2.58-2.58a1.71,1.71,0,0,0-2.42,0l-2.94,2.94a1.71,1.71,0,0,0,0,2.42l2.33,2.34a14.26,14.26,0,0,0-1.76,4h-3a1.71,1.71,0,0,0-1.71,1.7v4.17a1.72,1.72,0,0,0,1.71,1.71h3.09a14.32,14.32,0,0,0,1.19,2.92l-2.29,2.3a1.7,1.7,0,0,0,0,2.41l3,2.95a1.71,1.71,0,0,0,2.41,0l2.19-2.19a14.26,14.26,0,0,0,3.49,1.5v3.27a1.71,1.71,0,0,0,1.71,1.71h4.16a1.71,1.71,0,0,0,1.71-1.71V77.21a14,14,0,0,0,3.3-1.34l2.56,2.56a1.7,1.7,0,0,0,2.41,0l2.95-3a1.7,1.7,0,0,0,0-2.41l-2.51-2.51a14.14,14.14,0,0,0,1.41-3.29H81a1.71,1.71,0,0,0,1.7-1.71V61.39A1.7,1.7,0,0,0,81,59.69ZM63.68,70.79a7.47,7.47,0,1,1,7.46-7.47A7.46,7.46,0,0,1,63.68,70.79Z"/></g></g></svg>