<svg xmlns="http://www.w3.org/2000/svg" viewBox="0 0 78.8 65.34"><g id="Layer_2" data-name="Layer 2"><g id="Layer_1-2" data-name="Layer 1"><path d="M67.26,34.54H59.55a11.74,11.74,0,0,0-3,.41,11.55,11.55,0,0,0-10.29-6.33H32.58A11.56,11.56,0,0,0,22.29,35a11.66,11.66,0,0,0-3-.41H11.54A11.56,11.56,0,0,0,0,46.09V58.42a6.93,6.93,0,0,0,6.93,6.92H71.88a6.92,6.92,0,0,0,6.92-6.92V46.09A11.55,11.55,0,0,0,67.26,34.54ZM21,40.16V60.73H6.93a2.31,2.31,0,0,1-2.31-2.31V46.09a6.93,6.93,0,0,1,6.92-6.93h7.72a6.81,6.81,0,0,1,1.81.24C21.05,39.65,21,39.91,21,40.16ZM53.15,60.73H25.66V40.16a6.94,6.94,0,0,1,6.92-6.92H46.22a6.94,6.94,0,0,1,6.93,6.92Zm21-2.31a2.32,2.32,0,0,1-2.31,2.31H57.76V40.16c0-.25,0-.51,0-.76a6.7,6.7,0,0,1,1.81-.24h7.71a6.94,6.94,0,0,1,6.93,6.93Z"/><path d="M15.4,33.26A10.26,10.26,0,1,0,5.14,23,10.27,10.27,0,0,0,15.4,33.26Zm0-15.9A5.64,5.64,0,1,1,9.76,23,5.65,5.65,0,0,1,15.4,17.36Z"/><path d="M39.4,27.41A13.71,13.71,0,1,0,25.7,13.7,13.73,13.73,0,0,0,39.4,27.41Zm0-22.79a9.09,9.09,0,1,1-9.08,9.08A9.09,9.09,0,0,1,39.4,4.62Z"/><path d="M63.4,33.26A10.26,10.26,0,1,0,53.15,23,10.27,10.27,0,0,0,63.4,33.26Zm0-15.9A5.64,5.64,0,1,1,57.76,23,5.65,5.65,0,0,1,63.4,17.36Z"/></g></g></svg>