<svg xmlns="http://www.w3.org/2000/svg" viewBox="0 0 78.88 78.88"><g id="Layer_2" data-name="Layer 2"><g id="Layer_1-2" data-name="Layer 1"><path d="M7.89,43.38V40.75a1.32,1.32,0,0,1-1.32-1.31V31.55a1.31,1.31,0,0,1,1.32-1.31H15l.26-1a24.12,24.12,0,0,1,2.68-6.42l.53-.88L13.41,16.9A1.3,1.3,0,0,1,13,16a1.28,1.28,0,0,1,.38-.92L19,9.47a1.33,1.33,0,0,1,1.85,0l5.05,5,.88-.52a24.12,24.12,0,0,1,6.42-2.68l1-.26V3.94a1.31,1.31,0,0,1,1.31-1.31h7.89A1.32,1.32,0,0,1,44.7,3.94v7.11l1,.26A24.19,24.19,0,0,1,52.11,14l.88.52,5-5a1.32,1.32,0,0,1,1.84,0l5.59,5.59a1.32,1.32,0,0,1,0,1.84l-5,5.05.52.88a24.12,24.12,0,0,1,2.68,6.42l.26,1H71a1.31,1.31,0,0,1,1.31,1.31v7.89A1.31,1.31,0,0,1,71,40.75v2.63a3.93,3.93,0,0,0,3.94-3.94V31.55A3.93,3.93,0,0,0,71,27.61H65.9a26.15,26.15,0,0,0-2.19-5.24l3.62-3.62a3.94,3.94,0,0,0,0-5.56L61.74,7.6a4,4,0,0,0-5.56,0l-3.62,3.62A26.92,26.92,0,0,0,47.33,9V3.94A4,4,0,0,0,43.38,0H35.49a4,4,0,0,0-3.94,3.94V9a26.4,26.4,0,0,0-5.24,2.19L22.7,7.6a4,4,0,0,0-5.57,0l-5.58,5.59a3.92,3.92,0,0,0,0,5.57l3.61,3.61A27.37,27.37,0,0,0,13,27.61H7.89a3.94,3.94,0,0,0-3.95,3.94v7.89A3.94,3.94,0,0,0,7.89,43.38Z"/><path d="M55.21,35.49h2.63a18.41,18.41,0,0,0-36.81,0h2.63a15.78,15.78,0,0,1,31.55,0Z"/><path d="M31.55,38.12a7.89,7.89,0,1,0,7.89-7.88A7.89,7.89,0,0,0,31.55,38.12Zm13.15,0a5.26,5.26,0,1,1-5.26-5.26A5.26,5.26,0,0,1,44.7,38.12Z"/><path d="M61.79,51.27a7.89,7.89,0,1,0-7.89-7.89A7.89,7.89,0,0,0,61.79,51.27Zm0-13.15a5.26,5.26,0,1,1-5.26,5.26A5.26,5.26,0,0,1,61.79,38.12Z"/><path d="M17.09,35.49A7.89,7.89,0,1,0,25,43.38,7.89,7.89,0,0,0,17.09,35.49Zm0,13.15a5.26,5.26,0,1,1,5.26-5.26A5.26,5.26,0,0,1,17.09,48.64Z"/><path d="M73.7,54.64A11.8,11.8,0,0,0,67,52.58H56.53a12.23,12.23,0,0,0-1.91.18,11.78,11.78,0,0,0-3.22-3.34,4.28,4.28,0,0,0-.61-.4,11.65,11.65,0,0,0-6.09-1.69H34.18a11.67,11.67,0,0,0-9.92,5.43,12.23,12.23,0,0,0-1.91-.18H11.83a11.69,11.69,0,0,0-6.65,2.06A11.82,11.82,0,0,0,0,64.42v5.25a9.22,9.22,0,0,0,9.2,9.21H22.35V76.25H10.52V61.79H7.89V76.11a5.46,5.46,0,0,1-1.43-.47,6.57,6.57,0,0,1-3.83-6V64.42a9.2,9.2,0,0,1,4-7.61,9.1,9.1,0,0,1,5.17-1.6H22.35c.23,0,.45,0,.68,0a11.62,11.62,0,0,0-.68,3.91V72.3a6.58,6.58,0,0,0,6.57,6.58h3.94v-21H30.24V76.25H28.92a3.94,3.94,0,0,1-3.94-4V59.16A9.2,9.2,0,0,1,34.18,50H44.7a9.21,9.21,0,0,1,4.79,1.36,3,3,0,0,1,.38.24,9.42,9.42,0,0,1,3,3.29,9.16,9.16,0,0,1,1.08,4.32V72.3a4,4,0,0,1-3.95,4H48.64V57.84H46v21H50a6.6,6.6,0,0,0,6.58-6.58V59.16a12.13,12.13,0,0,0-.68-3.91c.22,0,.45,0,.68,0H67a9.22,9.22,0,0,1,9.21,9.21v5.25a6.59,6.59,0,0,1-3.85,6,5.82,5.82,0,0,1-1.41.46V61.79H68.36V76.25H56.53v2.63H69.67A9,9,0,0,0,73.5,78a9.24,9.24,0,0,0,5.38-8.37V64.42A11.84,11.84,0,0,0,73.7,54.64Z"/></g></g></svg>