<svg xmlns="http://www.w3.org/2000/svg" viewBox="0 0 78.95 81.48"><g id="Layer_2" data-name="Layer 2"><g id="Layer_1-2" data-name="Layer 1"><path d="M13.64,34.55a1.19,1.19,0,0,0,1.2,1.19H60.63a1.2,1.2,0,1,0,0-2.39H14.84a1.2,1.2,0,0,0-1.2,1.2Z"/><path d="M30.24,8.88h0a1.52,1.52,0,0,0-1.41,1L23.52,23.78a1.2,1.2,0,0,0,.69,1.54,1.18,1.18,0,0,0,1.54-.69l1-2.7h6.88l1,2.7a1.19,1.19,0,0,0,2.23-.85L31.65,9.85a1.49,1.49,0,0,0-1.41-1ZM27.69,19.54l2.55-6.68,2.52,6.68Z"/><path d="M23.62,9a1.19,1.19,0,0,0-1.51.75l-3.8,11.45-4-11.49a1.19,1.19,0,1,0-2.25.79L16.9,24.39a1.51,1.51,0,0,0,1.43,1h0a1.52,1.52,0,0,0,1.42-1l4.61-13.88A1.19,1.19,0,0,0,23.62,9Z"/><path d="M45.42,8.88h-7.8a1.2,1.2,0,1,0,0,2.39h2.69V24.21a1.2,1.2,0,0,0,2.39,0V11.27h2.72a1.2,1.2,0,1,0,0-2.39Z"/><path d="M60.22,58.89a1.2,1.2,0,0,0,1.62-.49l5.57-10.51a1.19,1.19,0,0,0-2.11-1.12L59.73,57.28A1.19,1.19,0,0,0,60.22,58.89Z"/><path d="M60.63,49a1.19,1.19,0,0,0-1.19-1.19H58.18a1.19,1.19,0,1,0,0,2.38h1.26A1.19,1.19,0,0,0,60.63,49Z"/><path d="M67.7,57.34H69A1.2,1.2,0,0,0,69,55H67.7a1.2,1.2,0,1,0,0,2.39Z"/><path d="M79,52.58a15.25,15.25,0,0,0-2.78-8.81,1.19,1.19,0,1,0-2,1.36,13,13,0,1,1-3-3,1.19,1.19,0,1,0,1.41-1.92,15.18,15.18,0,0,0-3.8-2V9.38a1.19,1.19,0,0,0-.33-.83L60.71.37A1.19,1.19,0,0,0,59.82,0H21.75a1.2,1.2,0,1,0,0,2.39h36.6L56.71,9.62a2.36,2.36,0,0,0,.64,2.2,2.32,2.32,0,0,0,2.2.63l6.91-1.58v26.6a15.38,15.38,0,0,0-2.89-.27,15.19,15.19,0,0,0-8.3,2.44H14.84a1.19,1.19,0,1,0,0,2.38H52.39a15.76,15.76,0,0,0-2.69,3.9H14.84a1.2,1.2,0,1,0,0,2.39h34a14.88,14.88,0,0,0-.6,3.85H14.84a1.2,1.2,0,1,0,0,2.39H48.31a14.88,14.88,0,0,0,1,3.94H14.84a1.19,1.19,0,1,0,0,2.38H50.61a15.38,15.38,0,0,0,13,7.1,16.18,16.18,0,0,0,2.89-.27v4.23a.76.76,0,0,1-.76.76H9.87a.76.76,0,0,1-.76-.76V3.15a.76.76,0,0,1,.76-.76h7.26a1.2,1.2,0,1,0,0-2.39H9.87A3.15,3.15,0,0,0,6.72,3.15V5.69H3a3,3,0,0,0-3,3V68.46a1.2,1.2,0,0,0,2.39,0V8.67A.58.58,0,0,1,3,8.08H6.72V71.94a3.15,3.15,0,0,0,3.15,3.14H60.39v3.41a.6.6,0,0,1-.6.6H3a.59.59,0,0,1-.59-.6V73.07a1.2,1.2,0,0,0-2.39,0v5.42a3,3,0,0,0,3,3H59.79a3,3,0,0,0,3-3V75.08H65.7a3.15,3.15,0,0,0,3.15-3.14V67A15.42,15.42,0,0,0,79,52.58ZM59,10.12l1.48-6.49,4.82,5.05Z"/></g></g></svg>