<?xml version="1.0" encoding="utf-8"?>
<!-- Generator: Adobe Illustrator 25.4.1, SVG Export Plug-In . SVG Version: 6.00 Build 0)  -->
<svg version="1.1" id="Layer_1" xmlns="http://www.w3.org/2000/svg" xmlns:xlink="http://www.w3.org/1999/xlink" x="0px" y="0px"
	 viewBox="0 0 78.9 81.5" style="enable-background:new 0 0 78.9 81.5;" xml:space="preserve">
<g>
	<path d="M65,5c0-0.3,0-0.6,0-0.9C65,2.5,63.6,1,61.9,1c-1.7,0-3.1,1.4-3.1,3.1V5H20.7V4.8c0-0.3,0-0.6,0-0.9c0-1.5-1.4-3.1-3.1-3.1
		s-3.1,1.4-3.1,3.1v1.2C7.5,5.1,1.7,11,1.7,18v49.8c0,7.1,5.8,12.9,12.9,12.9h49.8c7.1,0,12.9-5.8,12.9-12.9V17.9
		C77.2,11,71.7,5.3,65,5L65,5z M14.6,11.1v0.6c0,1.5,1.4,3.1,3.1,3.1s3.1-1.4,3.1-3.1c0-0.2,0-0.5,0-0.6h38.1V12
		c0,1.5,1.4,3.1,3.1,3.1c1.7,0,3.1-1.4,3.1-3.1c0-0.3,0-0.6,0-0.9c3.5,0.3,6.3,3.2,6.3,6.8v8.6H7.8v-8.6C7.8,14,10.9,11.1,14.6,11.1
		L14.6,11.1z M64.4,74.4H14.6c-3.7,0-6.8-3.1-6.8-6.8v-35h63.4v35C71.1,71.3,68,74.4,64.4,74.4L64.4,74.4z"/>
	<path d="M53.6,41c-1.2-1.1-3.2-1.2-4.3,0s-1.2,3.2,0,4.3c2.6,2.5,5.2,4.9,7.8,7.2c-2.3,2.6-4.8,5.1-7.1,7.7c-1.1,1.2-1.2,3.2,0,4.3
		c1.2,1.1,3.2,1.2,4.3,0c3.1-3.4,6.1-6.6,9.4-10c1.1-1.2,1.2-3.2,0-4.3C60.2,47.2,57,44.1,53.6,41z"/>
	<path d="M51.3,50.3c-3.4-3.1-6.6-6.1-10-9.4c-1.2-1.1-3.2-1.2-4.3,0c-1.1,1.2-1.2,3.2,0,4.3c2.6,2.5,5.2,4.9,7.8,7.2
		c-2.3,2.6-4.8,5.1-7.1,7.7c-1.1,1.2-1.2,3.2,0,4.3c1.2,1.1,3.2,1.2,4.3,0c3.1-3.4,6.1-6.6,9.4-10C52.4,53.5,52.5,51.5,51.3,50.3z"
		/>
</g>
</svg>
